<?xml version="1.0" standalone="no"?>
<!DOCTYPE svg PUBLIC "-//W3C//DTD SVG 1.1//EN" "http://www.w3.org/Graphics/SVG/1.1/DTD/svg11.dtd">
<svg width="100%" height="100%" viewBox="0 0 122 91" version="1.1" xmlns="http://www.w3.org/2000/svg" xmlns:xlink="http://www.w3.org/1999/xlink" xml:space="preserve" style="fill-rule:evenodd;clip-rule:evenodd;stroke-linejoin:round;stroke-miterlimit:1.41421;">
    <g transform="matrix(0.695402,-4.28575e-32,-2.14287e-32,0.695402,-0.195402,17.6839)">
        <path d="M24,5L38,5L38,4L151,4L151,5L154,5L169,40L154,75L151,75L151,76L25,76L25,75L22,75L8,40L24,5Z" style="fill:rgb(27,55,99);fill-rule:nonzero;"/>
        <path d="M38,46L38,4L28,4L22,4C10,4 9,16 9,16C9,16 9,18 9,26C9,34 1,38 1,38L1,42C1,42 9,46 9,54C9,62 9,64 9,64C9,64 10,76 22,76C24,76 25,76 25,76L25,69C25,69 19,70 19,60C19,52 19,53 19,53C19,53 19,40 10,40C19,40 19,27 19,27C19,27 19,28 19,20C19,10 25,11 25,11L28,11C28,11 28,38 28,48C28,58 36,61 41,61C46,61 47,60 47,60L45,53C45,53 38,56 38,46Z" style="fill:rgb(244,244,237);fill-rule:nonzero;"/>
        <path d="M166,40C157,40 157,53 157,53C157,53 157,52 157,60C157,70 151,69 151,69L151,76C151,76 152,76 154.24,76C166.24,76 167,64 167,64C167,64 167,62 167,54C167,46 175,42 175,42L175,38C175,38 167,34 167,26C167,18 167,16 167,16C167,16 166.24,4 154.24,4C152,4 151,4 151,4L151,11C151,11 157,10 157,20C157,28 157,27 157,27C157,27 157,40 166,40Z" style="fill:rgb(244,244,237);fill-rule:nonzero;"/>
        <path d="M57.681,45C58.098,50 63.262,52.523 69.176,52.523C73.506,52.523 77.005,51.829 80.42,50.748L82.085,59.271C77.921,60.936 72.838,61.743 67.342,61.743C53.517,61.743 45.607,53.734 45.607,40.991C45.607,30.662 52.019,19.245 66.179,19.245C79.335,19.245 84.333,29.706 84.333,39.784C84.333,41.951 84.082,43.999 83.916,44.999L57.681,44.999L57.681,45ZM72.59,36C72.59,33 71.257,27.757 65.425,27.757C60.094,27.757 57.931,32 57.599,36L72.59,36Z" style="fill:rgb(244,244,237);fill-rule:nonzero;"/>
        <path d="M87.433,49.804C89.766,51.221 94.594,52.886 98.341,52.886C102.173,52.886 103.756,51.553 103.756,49.471C103.756,47.389 102.508,46.389 97.761,44.805C89.348,41.973 86.1,37.392 86.181,32.564C86.181,24.986 92.678,19.238 102.755,19.238C107.503,19.238 111.751,20.32 114.25,21.568L112.002,30.316C110.168,29.316 106.671,27.983 103.172,27.983C100.089,27.983 98.34,29.231 98.34,31.313C98.34,33.229 99.923,34.229 104.922,35.979C112.667,38.645 115.915,42.558 116,48.556C116,56.135 110.002,61.716 98.341,61.716C93.01,61.716 88.263,60.55 85.185,58.882L87.433,49.804Z" style="fill:rgb(244,244,237);fill-rule:nonzero;"/>
        <path d="M119.248,49.804C121.581,51.221 126.41,52.886 130.157,52.886C133.989,52.886 135.572,51.553 135.572,49.471C135.572,47.389 134.324,46.389 129.577,44.805C121.164,41.973 117.916,37.392 117.997,32.564C117.997,24.986 124.494,19.238 134.571,19.238C139.318,19.238 143.567,20.32 146.066,21.568L143.818,30.316C141.984,29.316 138.487,27.983 134.988,27.983C131.906,27.983 130.156,29.231 130.156,31.313C130.156,33.229 131.739,34.229 136.738,35.979C144.483,38.645 147.731,42.558 147.816,48.556C147.816,56.135 141.817,61.716 130.157,61.716C124.826,61.716 120.079,60.55 117,58.882L119.248,49.804Z" style="fill:rgb(244,244,237);fill-rule:nonzero;"/>
    </g>
</svg>
