<?xml version="1.0" standalone="no"?>
<!DOCTYPE svg PUBLIC "-//W3C//DTD SVG 1.1//EN" "http://www.w3.org/Graphics/SVG/1.1/DTD/svg11.dtd">
<svg width="100%" height="100%" viewBox="0 0 160 280" version="1.1" xmlns="http://www.w3.org/2000/svg" xmlns:xlink="http://www.w3.org/1999/xlink" xml:space="preserve" style="fill-rule:evenodd;clip-rule:evenodd;stroke-linecap:round;stroke-linejoin:round;stroke-miterlimit:1.41421;">
    <g transform="matrix(1.01038,-4.94964e-32,-4.9689e-32,1.01038,-232.166,-215.174)">
        <g transform="matrix(1,0,0,1,-1.31068,0)">
            <g transform="matrix(1,0,0,0.77442,-30,56.8379)">
                <path d="M405.271,541.668L275.271,541.668L275.271,549.63C275.271,553.653 277.8,556.918 280.915,556.918L399.627,556.918C402.742,556.918 405.271,553.653 405.271,549.63L405.271,541.668Z" style="fill:rgb(77,77,77);"/>
            </g>
            <g transform="matrix(-0.994908,1.23713e-16,-1.20626e-16,-1,617.613,764.634)">
                <path d="M243.582,288.317L374.247,288.317C374.247,324.375 344.973,353.65 308.915,353.65C272.857,353.65 243.582,324.375 243.582,288.317Z" style="fill:rgb(210,203,208);"/>
            </g>
        </g>
        <g>
            <g transform="matrix(1,0,0,1,-30,0)">
                <path d="M281.38,445.996C292.256,425.189 313.971,410.984 338.96,410.984C363.95,410.984 385.664,425.189 396.541,445.996C382.321,461.688 361.783,471.551 338.96,471.551C316.137,471.551 295.599,461.688 281.38,445.996Z" style="fill:rgb(51,51,51);fill-opacity:0.101961;"/>
            </g>
            <g transform="matrix(0.993631,-2.18953e-47,0,0.993631,-27.841,41.222)">
                <circle cx="338.96" cy="348.857" r="77.694" style="fill:url(#_Radial1);"/>
            </g>
            <g transform="matrix(0.993631,-2.18953e-47,0,0.993631,-27.841,41.222)">
                <circle cx="338.96" cy="348.857" r="77.694" style="fill:url(#_Linear2);"/>
            </g>
        </g>
        <g transform="matrix(1,0,0,1,-1.31068,0)">
            <g id="tube" transform="matrix(0.782516,-8.39084e-18,-8.39084e-18,0.816774,-24.5728,48.4879)">
                <rect x="402.348" y="279.121" width="51.117" height="97.946" style="fill:url(#_Linear3);"/>
            </g>
            <g transform="matrix(1,0,0,1,0,7)">
                <path d="M290.271,295.161L290.271,276.467L330.271,276.467L330.271,295.161C323.969,297.21 317.248,298.317 310.271,298.317C303.294,298.317 296.573,297.21 290.271,295.161Z" style="fill:url(#_Linear4);"/>
            </g>
            <g id="tube1" transform="matrix(0.782516,-8.39084e-18,-8.39084e-18,0.816774,-24.5728,48.4879)">
                <rect x="402.348" y="279.121" width="51.117" height="97.946" style="fill:none;stroke-width:2.47px;stroke:rgb(141,143,157);"/>
            </g>
        </g>
        <g transform="matrix(1.35529,0,2.40741e-35,1.35529,-111.548,-125.699)">
            <g transform="matrix(1.16375,1.97401e-17,2.88609e-17,1.58361,-43.3761,-212.929)">
                <path d="M267.367,369.62C267.367,369.18 340.407,369.261 340.407,369.62C340.407,389.776 324.043,406.14 303.887,406.14C283.731,406.14 267.367,389.776 267.367,369.62Z" style="fill:url(#_Linear5);"/>
            </g>
            <g transform="matrix(1.16375,0,5.54668e-32,1.16375,-43.3761,-58.2152)">
                <circle cx="303.887" cy="369.62" r="36.52" style="fill:url(#_Linear6);"/>
            </g>
            <g transform="matrix(-1.05422,3.39062e-16,-3.39062e-16,-1.05422,630.633,761.588)">
                <circle cx="303.887" cy="369.62" r="36.52" style="fill:url(#_Linear7);"/>
            </g>
            <g transform="matrix(1,0,0,1,6.38395,2.30836)">
                <circle cx="303.887" cy="369.62" r="36.52" style="fill:url(#_Linear8);"/>
            </g>
        </g>
        <g transform="matrix(1,0,0,1,-28.8879,0)">
            <path d="M378.02,380.73C378.02,379.419 376.955,378.354 375.644,378.354L300.052,378.354C298.741,378.354 297.676,379.419 297.676,380.73L297.676,385.481C297.676,386.793 298.741,387.857 300.052,387.857L375.644,387.857C376.955,387.857 378.02,386.793 378.02,385.481L378.02,380.73Z" style="fill:url(#_Linear9);stroke-width:1.98px;stroke:rgb(156,157,170);"/>
        </g>
        <g transform="matrix(0.5,2.46519e-32,2.46519e-32,0.5,38.9602,291.2)">
            <path d="M530,160L500,160L540,100L580,160L550,160L550,130L546,130L546,160L542,160L542,130L538,130L538,160L534,160L534,130L530,130L530,160Z" style="fill:url(#_Linear10);"/>
        </g>
        <g transform="matrix(0.5,2.46519e-32,2.46519e-32,0.5,38.9602,290.23)">
            <path d="M530,160L500,160L540,100L580,160L550,160L550,130L546,130L546,160L542,160L542,130L538,130L538,160L534,160L534,130L530,130L530,160Z" style="fill:url(#_Linear11);"/>
        </g>
        <g transform="matrix(1.80052,-9.02044e-32,-9.55834e-33,0.190789,137.591,348.648)">
            <g transform="matrix(0.130078,0,0,1.22758,34.2467,-56.6105)">
                <path d="M392.364,277.721L380.036,277.721L377.692,284.752L370.215,284.752L382.918,250.627L389.434,250.627L402.207,284.752L394.731,284.752L392.364,277.721ZM381.934,272.026L390.465,272.026L386.176,259.252L381.934,272.026Z" style="fill:rgb(123,126,142);fill-rule:nonzero;"/>
            </g>
            <g transform="matrix(0.130078,0,0,1.22758,34.2467,-56.6105)">
                <rect x="404.926" y="267.408" width="13.195" height="5.461" style="fill:rgb(123,126,142);fill-rule:nonzero;"/>
            </g>
            <g transform="matrix(0.130078,0,0,1.22758,34.2467,-56.6105)">
                <path d="M431.036,272.729L431.036,284.752L424.004,284.752L424.004,250.627L437.317,250.627C439.879,250.627 442.133,251.096 444.079,252.033C446.024,252.971 447.52,254.303 448.567,256.029C449.614,257.756 450.137,259.721 450.137,261.924C450.137,265.268 448.993,267.904 446.704,269.834C444.414,271.764 441.246,272.729 437.2,272.729L431.036,272.729ZM431.036,267.033L437.317,267.033C439.176,267.033 440.594,266.596 441.571,265.721C442.547,264.846 443.036,263.596 443.036,261.971C443.036,260.299 442.543,258.947 441.559,257.916C440.575,256.885 439.215,256.354 437.481,256.322L431.036,256.322L431.036,267.033Z" style="fill:rgb(123,126,142);fill-rule:nonzero;"/>
            </g>
            <g transform="matrix(0.130078,0,0,1.22758,34.2467,-56.6105)">
                <path d="M482.996,268.463C482.996,271.822 482.403,274.768 481.215,277.299C480.028,279.83 478.329,281.783 476.118,283.158C473.907,284.533 471.371,285.221 468.512,285.221C465.684,285.221 463.161,284.541 460.942,283.182C458.723,281.822 457.004,279.881 455.786,277.358C454.567,274.834 453.95,271.932 453.934,268.651L453.934,266.963C453.934,263.604 454.539,260.647 455.75,258.092C456.961,255.537 458.672,253.576 460.883,252.209C463.094,250.842 465.621,250.158 468.465,250.158C471.309,250.158 473.836,250.842 476.047,252.209C478.258,253.576 479.969,255.537 481.18,258.092C482.391,260.647 482.996,263.596 482.996,266.94L482.996,268.463ZM475.871,266.916C475.871,263.338 475.231,260.619 473.95,258.76C472.668,256.901 470.84,255.971 468.465,255.971C466.106,255.971 464.286,256.889 463.004,258.725C461.723,260.561 461.075,263.252 461.059,266.799L461.059,268.463C461.059,271.947 461.7,274.651 462.981,276.572C464.262,278.494 466.106,279.455 468.512,279.455C470.871,279.455 472.684,278.529 473.95,276.678C475.215,274.826 475.856,272.127 475.871,268.58L475.871,266.916Z" style="fill:rgb(123,126,142);fill-rule:nonzero;"/>
            </g>
            <g transform="matrix(0.130078,0,0,1.22758,34.2467,-56.6105)">
                <path d="M495.137,279.104L510.067,279.104L510.067,284.752L488.106,284.752L488.106,250.627L495.137,250.627L495.137,279.104Z" style="fill:rgb(123,126,142);fill-rule:nonzero;"/>
            </g>
            <g transform="matrix(0.130078,0,0,1.22758,34.2467,-56.6105)">
                <path d="M521.129,279.104L536.059,279.104L536.059,284.752L514.098,284.752L514.098,250.627L521.129,250.627L521.129,279.104Z" style="fill:rgb(123,126,142);fill-rule:nonzero;"/>
            </g>
            <g transform="matrix(0.130078,0,0,1.22758,34.2467,-56.6105)">
                <path d="M566.621,268.463C566.621,271.822 566.028,274.768 564.84,277.299C563.653,279.83 561.954,281.783 559.743,283.158C557.532,284.533 554.996,285.221 552.137,285.221C549.309,285.221 546.786,284.541 544.567,283.182C542.348,281.822 540.629,279.881 539.411,277.358C538.192,274.834 537.575,271.932 537.559,268.651L537.559,266.963C537.559,263.604 538.164,260.647 539.375,258.092C540.586,255.537 542.297,253.576 544.508,252.209C546.719,250.842 549.246,250.158 552.09,250.158C554.934,250.158 557.461,250.842 559.672,252.209C561.883,253.576 563.594,255.537 564.805,258.092C566.016,260.647 566.621,263.596 566.621,266.94L566.621,268.463ZM559.496,266.916C559.496,263.338 558.856,260.619 557.575,258.76C556.293,256.901 554.465,255.971 552.09,255.971C549.731,255.971 547.911,256.889 546.629,258.725C545.348,260.561 544.7,263.252 544.684,266.799L544.684,268.463C544.684,271.947 545.325,274.651 546.606,276.572C547.887,278.494 549.731,279.455 552.137,279.455C554.496,279.455 556.309,278.529 557.575,276.678C558.84,274.826 559.481,272.127 559.496,268.58L559.496,266.916Z" style="fill:rgb(123,126,142);fill-rule:nonzero;"/>
            </g>
        </g>
        <g transform="matrix(1.80052,-9.02044e-32,-9.55834e-33,0.190789,137.591,347.648)">
            <g transform="matrix(0.130078,0,0,1.22758,34.2467,-56.6105)">
                <path d="M392.364,277.721L380.036,277.721L377.692,284.752L370.215,284.752L382.918,250.627L389.434,250.627L402.207,284.752L394.731,284.752L392.364,277.721ZM381.934,272.026L390.465,272.026L386.176,259.252L381.934,272.026Z" style="fill:url(#_Linear12);fill-rule:nonzero;"/>
            </g>
            <g transform="matrix(0.130078,0,0,1.22758,34.2467,-56.6105)">
                <rect x="404.926" y="267.408" width="13.195" height="5.461" style="fill:url(#_Linear13);fill-rule:nonzero;"/>
            </g>
            <g transform="matrix(0.130078,0,0,1.22758,34.2467,-56.6105)">
                <path d="M431.036,272.729L431.036,284.752L424.004,284.752L424.004,250.627L437.317,250.627C439.879,250.627 442.133,251.096 444.079,252.033C446.024,252.971 447.52,254.303 448.567,256.029C449.614,257.756 450.137,259.721 450.137,261.924C450.137,265.268 448.993,267.904 446.704,269.834C444.414,271.764 441.246,272.729 437.2,272.729L431.036,272.729ZM431.036,267.033L437.317,267.033C439.176,267.033 440.594,266.596 441.571,265.721C442.547,264.846 443.036,263.596 443.036,261.971C443.036,260.299 442.543,258.947 441.559,257.916C440.575,256.885 439.215,256.354 437.481,256.322L431.036,256.322L431.036,267.033Z" style="fill:url(#_Linear14);fill-rule:nonzero;"/>
            </g>
            <g transform="matrix(0.130078,0,0,1.22758,34.2467,-56.6105)">
                <path d="M482.996,268.463C482.996,271.822 482.403,274.768 481.215,277.299C480.028,279.83 478.329,281.783 476.118,283.158C473.907,284.533 471.371,285.221 468.512,285.221C465.684,285.221 463.161,284.541 460.942,283.182C458.723,281.822 457.004,279.881 455.786,277.358C454.567,274.834 453.95,271.932 453.934,268.651L453.934,266.963C453.934,263.604 454.539,260.647 455.75,258.092C456.961,255.537 458.672,253.576 460.883,252.209C463.094,250.842 465.621,250.158 468.465,250.158C471.309,250.158 473.836,250.842 476.047,252.209C478.258,253.576 479.969,255.537 481.18,258.092C482.391,260.647 482.996,263.596 482.996,266.94L482.996,268.463ZM475.871,266.916C475.871,263.338 475.231,260.619 473.95,258.76C472.668,256.901 470.84,255.971 468.465,255.971C466.106,255.971 464.286,256.889 463.004,258.725C461.723,260.561 461.075,263.252 461.059,266.799L461.059,268.463C461.059,271.947 461.7,274.651 462.981,276.572C464.262,278.494 466.106,279.455 468.512,279.455C470.871,279.455 472.684,278.529 473.95,276.678C475.215,274.826 475.856,272.127 475.871,268.58L475.871,266.916Z" style="fill:url(#_Linear15);fill-rule:nonzero;"/>
            </g>
            <g transform="matrix(0.130078,0,0,1.22758,34.2467,-56.6105)">
                <path d="M495.137,279.104L510.067,279.104L510.067,284.752L488.106,284.752L488.106,250.627L495.137,250.627L495.137,279.104Z" style="fill:url(#_Linear16);fill-rule:nonzero;"/>
            </g>
            <g transform="matrix(0.130078,0,0,1.22758,34.2467,-56.6105)">
                <path d="M521.129,279.104L536.059,279.104L536.059,284.752L514.098,284.752L514.098,250.627L521.129,250.627L521.129,279.104Z" style="fill:url(#_Linear17);fill-rule:nonzero;"/>
            </g>
            <g transform="matrix(0.130078,0,0,1.22758,34.2467,-56.6105)">
                <path d="M566.621,268.463C566.621,271.822 566.028,274.768 564.84,277.299C563.653,279.83 561.954,281.783 559.743,283.158C557.532,284.533 554.996,285.221 552.137,285.221C549.309,285.221 546.786,284.541 544.567,283.182C542.348,281.822 540.629,279.881 539.411,277.358C538.192,274.834 537.575,271.932 537.559,268.651L537.559,266.963C537.559,263.604 538.164,260.647 539.375,258.092C540.586,255.537 542.297,253.576 544.508,252.209C546.719,250.842 549.246,250.158 552.09,250.158C554.934,250.158 557.461,250.842 559.672,252.209C561.883,253.576 563.594,255.537 564.805,258.092C566.016,260.647 566.621,263.596 566.621,266.94L566.621,268.463ZM559.496,266.916C559.496,263.338 558.856,260.619 557.575,258.76C556.293,256.901 554.465,255.971 552.09,255.971C549.731,255.971 547.911,256.889 546.629,258.725C545.348,260.561 544.7,263.252 544.684,266.799L544.684,268.463C544.684,271.947 545.325,274.651 546.606,276.572C547.887,278.494 549.731,279.455 552.137,279.455C554.496,279.455 556.309,278.529 557.575,276.678C558.84,274.826 559.481,272.127 559.496,268.58L559.496,266.916Z" style="fill:url(#_Linear18);fill-rule:nonzero;"/>
            </g>
        </g>
        <g id="head" transform="matrix(1,0,-1.64215e-47,1,-1.31068,3.95892)">
            <g transform="matrix(0.994908,-1.87205e-18,-1.83899e-18,1,2.92916,-65.3327)">
                <path d="M243.582,288.317L374.247,288.317C374.247,324.375 344.973,353.65 308.915,353.65C272.857,353.65 243.582,324.375 243.582,288.317Z" style="fill:url(#_Radial19);"/>
            </g>
            <g transform="matrix(0.994908,-1.87205e-18,-1.83899e-18,1,2.92916,-65.3327)">
                <path d="M243.582,288.317L374.247,288.317C374.247,324.375 344.973,353.65 308.915,353.65C272.857,353.65 243.582,324.375 243.582,288.317Z" style="fill:url(#_Linear20);"/>
            </g>
            <g transform="matrix(0.82233,-1.54732e-18,-1.52e-18,0.826539,56.241,-15.3209)">
                <path d="M243.582,288.317L374.247,288.317C374.247,324.375 344.973,353.65 308.915,353.65C272.857,353.65 243.582,324.375 243.582,288.317Z" style="fill:url(#_Linear21);"/>
            </g>
            <g transform="matrix(0.995104,1.61849e-18,1.61849e-18,0.988496,1.17635,2.42715)">
                <path d="M380.96,217.054C380.96,213.704 378.258,210.984 374.93,210.984L246.3,210.984C242.973,210.984 240.271,213.704 240.271,217.054L240.271,229.194C240.271,232.544 242.973,235.264 246.3,235.264L374.93,235.264C378.258,235.264 380.96,232.544 380.96,229.194L380.96,217.054Z" style="fill:url(#_Linear22);"/>
                <path d="M375.008,210.985L375.086,210.986L375.163,210.989L375.24,210.992L375.317,210.997L375.394,211.002L375.47,211.008L375.546,211.016L375.622,211.024L375.698,211.033L375.773,211.043L375.848,211.054L375.923,211.066L375.997,211.079L376.071,211.093L376.145,211.108L376.218,211.123L376.291,211.14L376.364,211.157L376.436,211.176L376.508,211.195L376.58,211.215L376.651,211.236L376.722,211.257L376.793,211.28L376.863,211.304L376.933,211.328L377.002,211.353L377.071,211.379L377.14,211.406L377.208,211.433L377.276,211.462L377.344,211.491L377.411,211.521L377.477,211.552L377.543,211.583L377.609,211.616L377.674,211.649L377.739,211.683L377.803,211.717L377.867,211.753L377.93,211.789L377.993,211.826L378.056,211.864L378.118,211.902L378.179,211.941L378.24,211.981L378.3,212.022L378.36,212.063L378.42,212.105L378.478,212.148L378.537,212.191L378.594,212.235L378.652,212.28L378.708,212.325L378.765,212.371L378.82,212.418L378.875,212.465L378.93,212.513L378.983,212.562L379.037,212.611L379.089,212.661L379.141,212.712L379.193,212.763L379.244,212.815L379.294,212.867L379.344,212.92L379.393,212.974L379.441,213.028L379.489,213.083L379.536,213.138L379.582,213.194L379.628,213.251L379.673,213.308L379.717,213.365L379.761,213.423L379.804,213.482L379.847,213.541L379.888,213.601L379.929,213.661L379.97,213.722L380.009,213.784L380.048,213.845L380.086,213.908L380.124,213.971L380.16,214.034L380.196,214.098L380.231,214.162L380.266,214.227L380.3,214.292L380.333,214.358L380.365,214.424L380.396,214.49L380.427,214.557L380.456,214.625L380.486,214.692L380.514,214.761L380.541,214.829L380.568,214.899L380.594,214.968L380.618,215.038L380.643,215.108L380.666,215.179L380.688,215.25L380.71,215.321L380.731,215.393L380.751,215.465L380.77,215.538L380.788,215.611L380.805,215.684L380.822,215.758L380.837,215.832L380.852,215.906L380.865,215.98L380.878,216.055L380.89,216.13L380.901,216.206L380.911,216.282L380.92,216.358L380.928,216.434L380.936,216.511L380.942,216.587L380.947,216.665L380.952,216.742L380.955,216.82L380.958,216.898L380.959,216.976L380.96,217.054L380.96,229.194L380.959,229.272L380.958,229.35L380.955,229.428L380.952,229.506L380.947,229.583L380.942,229.661L380.936,229.737L380.928,229.814L380.92,229.89L380.911,229.966L380.901,230.042L380.89,230.118L380.878,230.193L380.865,230.268L380.852,230.342L380.837,230.416L380.822,230.49L380.805,230.564L380.788,230.637L380.77,230.71L380.751,230.783L380.731,230.855L380.71,230.927L380.688,230.998L380.666,231.069L380.643,231.14L380.618,231.21L380.594,231.28L380.568,231.349L380.541,231.419L380.514,231.487L380.486,231.556L380.456,231.623L380.427,231.691L380.396,231.758L380.365,231.824L380.333,231.89L380.3,231.956L380.266,232.021L380.231,232.086L380.196,232.15L380.16,232.214L380.124,232.277L380.086,232.34L380.048,232.403L380.009,232.464L379.97,232.526L379.929,232.587L379.888,232.647L379.847,232.707L379.804,232.766L379.761,232.825L379.717,232.883L379.673,232.94L379.628,232.997L379.582,233.054L379.536,233.11L379.489,233.165L379.441,233.22L379.393,233.274L379.344,233.328L379.294,233.381L379.244,233.433L379.193,233.485L379.141,233.536L379.089,233.587L379.037,233.637L378.983,233.686L378.93,233.735L378.875,233.783L378.82,233.83L378.765,233.877L378.708,233.923L378.652,233.968L378.594,234.013L378.537,234.057L378.478,234.101L378.42,234.143L378.36,234.185L378.3,234.226L378.24,234.267L378.179,234.307L378.118,234.346L378.056,234.384L377.993,234.422L377.93,234.459L377.867,234.495L377.803,234.531L377.739,234.565L377.674,234.599L377.609,234.632L377.543,234.665L377.477,234.696L377.411,234.727L377.344,234.757L377.276,234.786L377.208,234.815L377.14,234.842L377.071,234.869L377.002,234.895L376.933,234.92L376.863,234.945L376.793,234.968L376.722,234.991L376.651,235.012L376.58,235.033L376.508,235.053L376.436,235.072L376.364,235.091L376.291,235.108L376.218,235.125L376.145,235.14L376.071,235.155L375.997,235.169L375.923,235.182L375.848,235.194L375.773,235.205L375.698,235.215L375.622,235.224L375.546,235.232L375.47,235.24L375.394,235.246L375.317,235.251L375.24,235.256L375.163,235.259L375.086,235.262L375.008,235.263L374.93,235.264L246.3,235.264L246.222,235.263L246.145,235.262L246.067,235.259L245.99,235.256L245.913,235.251L245.837,235.246L245.76,235.24L245.684,235.232L245.608,235.224L245.533,235.215L245.458,235.205L245.383,235.194L245.308,235.182L245.234,235.169L245.16,235.155L245.086,235.14L245.012,235.125L244.939,235.108L244.867,235.091L244.794,235.072L244.722,235.053L244.65,235.033L244.579,235.012L244.508,234.991L244.438,234.968L244.367,234.945L244.298,234.92L244.228,234.895L244.159,234.869L244.09,234.842L244.022,234.815L243.954,234.786L243.887,234.757L243.82,234.727L243.753,234.696L243.687,234.665L243.622,234.632L243.556,234.599L243.492,234.565L243.427,234.531L243.363,234.495L243.3,234.459L243.237,234.422L243.175,234.384L243.113,234.346L243.051,234.307L242.991,234.267L242.93,234.226L242.87,234.185L242.811,234.143L242.752,234.101L242.694,234.057L242.636,234.013L242.579,233.968L242.522,233.923L242.466,233.877L242.41,233.83L242.355,233.783L242.301,233.735L242.247,233.686L242.194,233.637L242.141,233.587L242.089,233.536L242.038,233.485L241.987,233.433L241.937,233.381L241.887,233.328L241.838,233.274L241.79,233.22L241.742,233.165L241.695,233.11L241.648,233.054L241.603,232.997L241.558,232.94L241.513,232.883L241.469,232.825L241.426,232.766L241.384,232.707L241.342,232.647L241.301,232.587L241.261,232.526L241.221,232.464L241.182,232.403L241.144,232.34L241.107,232.277L241.07,232.214L241.034,232.15L240.999,232.086L240.965,232.021L240.931,231.956L240.898,231.89L240.866,231.824L240.834,231.758L240.804,231.691L240.774,231.623L240.745,231.556L240.717,231.487L240.689,231.419L240.663,231.349L240.637,231.28L240.612,231.21L240.588,231.14L240.565,231.069L240.542,230.998L240.52,230.927L240.5,230.855L240.48,230.783L240.461,230.71L240.443,230.637L240.425,230.564L240.409,230.49L240.393,230.416L240.379,230.342L240.365,230.268L240.352,230.193L240.34,230.118L240.329,230.042L240.319,229.966L240.31,229.89L240.302,229.814L240.295,229.737L240.288,229.661L240.283,229.583L240.279,229.506L240.275,229.428L240.273,229.35L240.271,229.272L240.271,229.194L240.271,217.054L240.271,216.976L240.273,216.898L240.275,216.82L240.279,216.742L240.283,216.665L240.288,216.587L240.295,216.511L240.302,216.434L240.31,216.358L240.319,216.282L240.329,216.206L240.34,216.13L240.352,216.055L240.365,215.98L240.379,215.906L240.393,215.832L240.409,215.758L240.425,215.684L240.443,215.611L240.461,215.538L240.48,215.465L240.5,215.393L240.52,215.321L240.542,215.25L240.565,215.179L240.588,215.108L240.612,215.038L240.637,214.968L240.663,214.899L240.689,214.829L240.717,214.761L240.745,214.692L240.774,214.625L240.804,214.557L240.834,214.49L240.866,214.424L240.898,214.358L240.931,214.292L240.965,214.227L240.999,214.162L241.034,214.098L241.07,214.034L241.107,213.971L241.144,213.908L241.182,213.845L241.221,213.784L241.261,213.722L241.301,213.661L241.342,213.601L241.384,213.541L241.426,213.482L241.469,213.423L241.513,213.365L241.558,213.308L241.603,213.251L241.648,213.194L241.695,213.138L241.742,213.083L241.79,213.028L241.838,212.974L241.887,212.92L241.937,212.867L241.987,212.815L242.038,212.763L242.089,212.712L242.141,212.661L242.194,212.611L242.247,212.562L242.301,212.513L242.355,212.465L242.41,212.418L242.466,212.371L242.522,212.325L242.579,212.28L242.636,212.235L242.694,212.191L242.752,212.148L242.811,212.105L242.87,212.063L242.93,212.022L242.991,211.981L243.051,211.941L243.113,211.902L243.175,211.864L243.237,211.826L243.3,211.789L243.363,211.753L243.427,211.717L243.492,211.683L243.556,211.649L243.622,211.616L243.687,211.583L243.753,211.552L243.82,211.521L243.887,211.491L243.954,211.462L244.022,211.433L244.09,211.406L244.159,211.379L244.228,211.353L244.298,211.328L244.367,211.304L244.438,211.28L244.508,211.257L244.579,211.236L244.65,211.215L244.722,211.195L244.794,211.176L244.867,211.157L244.939,211.14L245.012,211.123L245.086,211.108L245.16,211.093L245.234,211.079L245.308,211.066L245.383,211.054L245.458,211.043L245.533,211.033L245.608,211.024L245.684,211.016L245.76,211.008L245.837,211.002L245.913,210.997L245.99,210.992L246.067,210.989L246.145,210.986L246.222,210.985L246.3,210.984L374.93,210.984L375.008,210.985ZM246.307,212.987L246.248,212.987L246.195,212.988L246.143,212.99L246.091,212.992L246.039,212.995L245.988,212.999L245.937,213.003L245.885,213.008L245.835,213.014L245.784,213.02L245.734,213.026L245.683,213.034L245.634,213.042L245.584,213.051L245.534,213.06L245.485,213.07L245.436,213.08L245.387,213.091L245.339,213.103L245.29,213.115L245.242,213.128L245.194,213.141L245.147,213.155L245.099,213.169L245.052,213.185L245.005,213.2L244.959,213.216L244.913,213.233L244.866,213.251L244.821,213.268L244.775,213.287L244.73,213.306L244.685,213.325L244.64,213.345L244.595,213.366L244.551,213.387L244.507,213.409L244.464,213.431L244.42,213.454L244.377,213.477L244.335,213.501L244.292,213.525L244.25,213.55L244.208,213.575L244.167,213.601L244.125,213.627L244.085,213.654L244.044,213.681L244.004,213.708L243.964,213.737L243.924,213.765L243.885,213.794L243.847,213.824L243.808,213.854L243.77,213.885L243.732,213.916L243.695,213.947L243.658,213.979L243.621,214.011L243.585,214.044L243.549,214.077L243.514,214.111L243.479,214.145L243.444,214.179L243.41,214.214L243.376,214.249L243.343,214.285L243.31,214.321L243.277,214.357L243.245,214.394L243.214,214.431L243.183,214.469L243.152,214.507L243.121,214.545L243.092,214.584L243.062,214.623L243.033,214.662L243.005,214.702L242.977,214.742L242.949,214.783L242.922,214.824L242.896,214.865L242.87,214.906L242.844,214.948L242.819,214.99L242.794,215.032L242.77,215.075L242.747,215.118L242.724,215.162L242.701,215.205L242.679,215.249L242.658,215.293L242.637,215.338L242.616,215.383L242.596,215.428L242.577,215.473L242.558,215.519L242.54,215.565L242.522,215.611L242.505,215.657L242.488,215.704L242.472,215.751L242.456,215.798L242.441,215.845L242.427,215.893L242.413,215.941L242.4,215.989L242.387,216.037L242.375,216.086L242.364,216.135L242.353,216.184L242.342,216.233L242.332,216.283L242.323,216.333L242.315,216.383L242.307,216.433L242.299,216.484L242.293,216.534L242.287,216.585L242.281,216.637L242.276,216.688L242.272,216.74L242.268,216.791L242.265,216.844L242.263,216.896L242.261,216.948L242.26,217.001L242.26,217.061L242.26,229.187L242.26,229.247L242.261,229.3L242.263,229.352L242.265,229.404L242.268,229.457L242.272,229.508L242.276,229.56L242.281,229.612L242.287,229.663L242.293,229.714L242.299,229.764L242.307,229.815L242.315,229.865L242.323,229.915L242.332,229.965L242.342,230.015L242.353,230.064L242.364,230.113L242.375,230.162L242.387,230.211L242.4,230.259L242.413,230.307L242.427,230.355L242.441,230.403L242.456,230.45L242.472,230.497L242.488,230.544L242.505,230.591L242.522,230.637L242.54,230.683L242.558,230.729L242.577,230.775L242.596,230.82L242.616,230.865L242.637,230.91L242.658,230.955L242.679,230.999L242.701,231.043L242.724,231.086L242.747,231.13L242.77,231.173L242.794,231.216L242.819,231.258L242.844,231.3L242.87,231.342L242.896,231.383L242.922,231.424L242.949,231.465L242.977,231.506L243.005,231.546L243.033,231.586L243.062,231.625L243.092,231.664L243.121,231.703L243.152,231.741L243.183,231.779L243.214,231.817L243.245,231.854L243.277,231.891L243.31,231.927L243.343,231.963L243.376,231.999L243.41,232.034L243.444,232.069L243.479,232.103L243.514,232.137L243.549,232.171L243.585,232.204L243.621,232.237L243.658,232.269L243.695,232.301L243.732,232.333L243.77,232.363L243.808,232.394L243.847,232.424L243.885,232.454L243.924,232.483L243.964,232.511L244.004,232.54L244.044,232.567L244.085,232.595L244.125,232.621L244.167,232.647L244.208,232.673L244.25,232.698L244.292,232.723L244.335,232.747L244.377,232.771L244.42,232.794L244.464,232.817L244.507,232.839L244.551,232.861L244.595,232.882L244.64,232.903L244.685,232.923L244.73,232.942L244.775,232.961L244.821,232.98L244.866,232.998L244.913,233.015L244.959,233.032L245.005,233.048L245.052,233.063L245.099,233.079L245.147,233.093L245.194,233.107L245.242,233.12L245.29,233.133L245.339,233.145L245.387,233.157L245.436,233.168L245.485,233.178L245.534,233.188L245.584,233.198L245.634,233.206L245.683,233.214L245.734,233.222L245.784,233.228L245.835,233.235L245.885,233.24L245.937,233.245L245.988,233.249L246.039,233.253L246.091,233.256L246.143,233.258L246.195,233.26L246.248,233.261L246.307,233.261L374.924,233.261L374.983,233.261L375.035,233.26L375.087,233.258L375.139,233.256L375.191,233.253L375.243,233.249L375.294,233.245L375.345,233.24L375.396,233.235L375.446,233.228L375.497,233.222L375.547,233.214L375.597,233.206L375.647,233.198L375.696,233.188L375.745,233.178L375.794,233.168L375.843,233.157L375.892,233.145L375.94,233.133L375.988,233.12L376.036,233.107L376.084,233.093L376.131,233.079L376.178,233.063L376.225,233.048L376.272,233.032L376.318,233.015L376.364,232.998L376.41,232.98L376.456,232.961L376.501,232.942L376.546,232.923L376.591,232.903L376.635,232.882L376.679,232.861L376.723,232.839L376.767,232.817L376.81,232.794L376.853,232.771L376.896,232.747L376.938,232.723L376.981,232.698L377.022,232.673L377.064,232.647L377.105,232.621L377.146,232.595L377.186,232.567L377.227,232.54L377.266,232.511L377.306,232.483L377.345,232.454L377.384,232.424L377.422,232.394L377.461,232.363L377.498,232.333L377.536,232.301L377.573,232.269L377.609,232.237L377.645,232.204L377.681,232.171L377.717,232.138L377.752,232.103L377.786,232.069L377.82,232.034L377.854,231.999L377.888,231.963L377.92,231.927L377.953,231.891L377.985,231.854L378.017,231.817L378.048,231.779L378.079,231.741L378.109,231.703L378.139,231.664L378.168,231.625L378.197,231.586L378.226,231.546L378.254,231.506L378.281,231.465L378.308,231.424L378.335,231.383L378.361,231.342L378.386,231.3L378.411,231.258L378.436,231.215L378.46,231.173L378.484,231.13L378.507,231.087L378.529,231.043L378.551,230.999L378.573,230.955L378.594,230.91L378.614,230.865L378.634,230.82L378.654,230.775L378.672,230.729L378.691,230.683L378.709,230.637L378.726,230.591L378.742,230.544L378.759,230.497L378.774,230.45L378.789,230.403L378.803,230.355L378.817,230.307L378.831,230.259L378.843,230.211L378.855,230.162L378.867,230.113L378.878,230.064L378.888,230.015L378.898,229.965L378.907,229.915L378.916,229.865L378.924,229.815L378.931,229.764L378.938,229.714L378.944,229.663L378.949,229.611L378.954,229.56L378.959,229.509L378.962,229.457L378.965,229.404L378.967,229.352L378.969,229.3L378.97,229.247L378.97,229.187L378.97,217.061L378.97,217.001L378.969,216.948L378.967,216.896L378.965,216.844L378.962,216.791L378.959,216.74L378.954,216.688L378.949,216.637L378.944,216.585L378.938,216.534L378.931,216.484L378.924,216.433L378.916,216.383L378.907,216.333L378.898,216.283L378.888,216.233L378.878,216.184L378.867,216.135L378.855,216.086L378.843,216.038L378.831,215.989L378.817,215.941L378.803,215.893L378.789,215.845L378.774,215.798L378.759,215.751L378.742,215.704L378.726,215.657L378.709,215.611L378.691,215.565L378.672,215.519L378.654,215.473L378.634,215.428L378.614,215.383L378.594,215.338L378.573,215.293L378.551,215.249L378.529,215.205L378.507,215.162L378.484,215.118L378.46,215.075L378.436,215.033L378.411,214.99L378.386,214.948L378.361,214.906L378.335,214.865L378.308,214.824L378.281,214.783L378.254,214.742L378.226,214.702L378.197,214.662L378.168,214.623L378.139,214.584L378.109,214.545L378.079,214.507L378.048,214.469L378.017,214.431L377.985,214.394L377.953,214.357L377.92,214.321L377.888,214.285L377.854,214.249L377.82,214.214L377.786,214.179L377.752,214.145L377.717,214.111L377.681,214.077L377.645,214.044L377.609,214.011L377.573,213.979L377.536,213.947L377.498,213.916L377.461,213.885L377.422,213.854L377.384,213.824L377.345,213.794L377.306,213.765L377.266,213.737L377.227,213.708L377.186,213.681L377.146,213.654L377.105,213.627L377.064,213.601L377.022,213.575L376.981,213.55L376.938,213.525L376.896,213.501L376.853,213.477L376.81,213.454L376.767,213.431L376.723,213.409L376.679,213.387L376.635,213.366L376.591,213.345L376.546,213.325L376.501,213.306L376.455,213.287L376.41,213.268L376.364,213.251L376.318,213.233L376.272,213.216L376.225,213.2L376.178,213.185L376.131,213.169L376.084,213.155L376.036,213.141L375.988,213.128L375.94,213.115L375.892,213.103L375.843,213.091L375.794,213.08L375.745,213.07L375.696,213.06L375.647,213.051L375.597,213.042L375.547,213.034L375.497,213.026L375.446,213.02L375.396,213.014L375.345,213.008L375.294,213.003L375.243,212.999L375.191,212.995L375.139,212.992L375.087,212.99L375.035,212.988L374.983,212.987L374.924,212.987L246.307,212.987Z" style="fill:rgb(210,203,208);"/>
            </g>
        </g>
    </g>
    <defs>
        <radialGradient id="_Radial1" cx="0" cy="0" r="1" gradientUnits="userSpaceOnUse" gradientTransform="matrix(77.6938,0,0,77.6938,338.96,348.857)"><stop offset="0%" style="stop-color:rgb(232,226,225);stop-opacity:1"/><stop offset="50%" style="stop-color:rgb(227,221,221);stop-opacity:1"/><stop offset="100%" style="stop-color:rgb(186,175,183);stop-opacity:1"/></radialGradient>
        <linearGradient id="_Linear2" x1="0" y1="0" x2="1" y2="0" gradientUnits="userSpaceOnUse" gradientTransform="matrix(5.98873e-14,51.1221,-51.1221,5.98873e-14,338.96,375.429)"><stop offset="0%" style="stop-color:rgb(105,109,124);stop-opacity:0"/><stop offset="100%" style="stop-color:rgb(105,110,123);stop-opacity:0.223529"/></linearGradient>
        <linearGradient id="_Linear3" x1="0" y1="0" x2="1" y2="0" gradientUnits="userSpaceOnUse" gradientTransform="matrix(51.1172,5.25134e-16,5.25134e-16,48.9732,402.348,328.094)"><stop offset="0%" style="stop-color:rgb(153,155,168);stop-opacity:1"/><stop offset="23%" style="stop-color:rgb(212,213,218);stop-opacity:1"/><stop offset="71%" style="stop-color:rgb(128,130,143);stop-opacity:1"/><stop offset="100%" style="stop-color:rgb(144,146,160);stop-opacity:1"/></linearGradient>
        <linearGradient id="_Linear4" x1="0" y1="0" x2="1" y2="0" gradientUnits="userSpaceOnUse" gradientTransform="matrix(2.87592e-13,-21.8504,21.8504,2.87592e-13,310.271,298.317)"><stop offset="0%" style="stop-color:rgb(105,109,124);stop-opacity:0.101961"/><stop offset="100%" style="stop-color:rgb(105,110,123);stop-opacity:1"/></linearGradient>
        <linearGradient id="_Linear5" x1="0" y1="0" x2="1" y2="0" gradientUnits="userSpaceOnUse" gradientTransform="matrix(4.47241e-15,-73.04,73.04,4.47241e-15,303.887,406.14)"><stop offset="0%" style="stop-color:rgb(105,109,124);stop-opacity:0.101961"/><stop offset="100%" style="stop-color:rgb(105,110,123);stop-opacity:1"/></linearGradient>
        <linearGradient id="_Linear6" x1="0" y1="0" x2="1" y2="0" gradientUnits="userSpaceOnUse" gradientTransform="matrix(4.47241e-15,-73.04,73.04,4.47241e-15,303.887,406.14)"><stop offset="0%" style="stop-color:rgb(123,126,142);stop-opacity:1"/><stop offset="100%" style="stop-color:rgb(156,157,170);stop-opacity:1"/></linearGradient>
        <linearGradient id="_Linear7" x1="0" y1="0" x2="1" y2="0" gradientUnits="userSpaceOnUse" gradientTransform="matrix(4.47241e-15,-73.04,73.04,4.47241e-15,303.887,406.14)"><stop offset="0%" style="stop-color:rgb(123,126,142);stop-opacity:1"/><stop offset="55%" style="stop-color:rgb(130,132,148);stop-opacity:1"/><stop offset="100%" style="stop-color:rgb(156,157,170);stop-opacity:1"/></linearGradient>
        <linearGradient id="_Linear8" x1="0" y1="0" x2="1" y2="0" gradientUnits="userSpaceOnUse" gradientTransform="matrix(4.47241e-15,-73.04,73.04,4.47241e-15,303.887,406.14)"><stop offset="0%" style="stop-color:rgb(123,126,142);stop-opacity:1"/><stop offset="51%" style="stop-color:rgb(147,149,163);stop-opacity:1"/><stop offset="100%" style="stop-color:rgb(156,157,170);stop-opacity:1"/></linearGradient>
        <linearGradient id="_Linear9" x1="0" y1="0" x2="1" y2="0" gradientUnits="userSpaceOnUse" gradientTransform="matrix(5.81895e-16,9.50307,-9.50307,5.81895e-16,337.848,378.354)"><stop offset="0%" style="stop-color:black;stop-opacity:1"/><stop offset="100%" style="stop-color:rgb(123,126,142);stop-opacity:0"/></linearGradient>
        <linearGradient id="_Linear10" x1="0" y1="0" x2="1" y2="0" gradientUnits="userSpaceOnUse" gradientTransform="matrix(1.21808e-13,-59.1406,59.1406,1.21808e-13,540,160)"><stop offset="0%" style="stop-color:rgb(123,126,142);stop-opacity:1"/><stop offset="51%" style="stop-color:rgb(147,149,163);stop-opacity:1"/><stop offset="100%" style="stop-color:rgb(156,157,170);stop-opacity:1"/></linearGradient>
        <linearGradient id="_Linear11" x1="0" y1="0" x2="1" y2="0" gradientUnits="userSpaceOnUse" gradientTransform="matrix(1.21808e-13,-59.1406,59.1406,1.21808e-13,540,160)"><stop offset="0%" style="stop-color:rgb(151,154,166);stop-opacity:1"/><stop offset="51%" style="stop-color:rgb(168,169,181);stop-opacity:1"/><stop offset="100%" style="stop-color:rgb(174,175,186);stop-opacity:1"/></linearGradient>
        <linearGradient id="_Linear12" x1="0" y1="0" x2="1" y2="0" gradientUnits="userSpaceOnUse" gradientTransform="matrix(2.14696e-15,-35.0625,35.0625,2.14696e-15,460.984,285.221)"><stop offset="0%" style="stop-color:rgb(142,145,158);stop-opacity:1"/><stop offset="51%" style="stop-color:rgb(166,167,179);stop-opacity:1"/><stop offset="100%" style="stop-color:rgb(174,175,186);stop-opacity:1"/></linearGradient>
        <linearGradient id="_Linear13" x1="0" y1="0" x2="1" y2="0" gradientUnits="userSpaceOnUse" gradientTransform="matrix(2.14696e-15,-35.0625,35.0625,2.14696e-15,460.984,285.221)"><stop offset="0%" style="stop-color:rgb(142,145,158);stop-opacity:1"/><stop offset="51%" style="stop-color:rgb(166,167,179);stop-opacity:1"/><stop offset="100%" style="stop-color:rgb(174,175,186);stop-opacity:1"/></linearGradient>
        <linearGradient id="_Linear14" x1="0" y1="0" x2="1" y2="0" gradientUnits="userSpaceOnUse" gradientTransform="matrix(2.14696e-15,-35.0625,35.0625,2.14696e-15,460.984,285.221)"><stop offset="0%" style="stop-color:rgb(142,145,158);stop-opacity:1"/><stop offset="51%" style="stop-color:rgb(166,167,179);stop-opacity:1"/><stop offset="100%" style="stop-color:rgb(174,175,186);stop-opacity:1"/></linearGradient>
        <linearGradient id="_Linear15" x1="0" y1="0" x2="1" y2="0" gradientUnits="userSpaceOnUse" gradientTransform="matrix(2.14696e-15,-35.0625,35.0625,2.14696e-15,460.984,285.221)"><stop offset="0%" style="stop-color:rgb(142,145,158);stop-opacity:1"/><stop offset="51%" style="stop-color:rgb(166,167,179);stop-opacity:1"/><stop offset="100%" style="stop-color:rgb(174,175,186);stop-opacity:1"/></linearGradient>
        <linearGradient id="_Linear16" x1="0" y1="0" x2="1" y2="0" gradientUnits="userSpaceOnUse" gradientTransform="matrix(2.14696e-15,-35.0625,35.0625,2.14696e-15,460.984,285.221)"><stop offset="0%" style="stop-color:rgb(142,145,158);stop-opacity:1"/><stop offset="51%" style="stop-color:rgb(166,167,179);stop-opacity:1"/><stop offset="100%" style="stop-color:rgb(174,175,186);stop-opacity:1"/></linearGradient>
        <linearGradient id="_Linear17" x1="0" y1="0" x2="1" y2="0" gradientUnits="userSpaceOnUse" gradientTransform="matrix(2.14696e-15,-35.0625,35.0625,2.14696e-15,460.984,285.221)"><stop offset="0%" style="stop-color:rgb(142,145,158);stop-opacity:1"/><stop offset="51%" style="stop-color:rgb(166,167,179);stop-opacity:1"/><stop offset="100%" style="stop-color:rgb(174,175,186);stop-opacity:1"/></linearGradient>
        <linearGradient id="_Linear18" x1="0" y1="0" x2="1" y2="0" gradientUnits="userSpaceOnUse" gradientTransform="matrix(2.14696e-15,-35.0625,35.0625,2.14696e-15,460.984,285.221)"><stop offset="0%" style="stop-color:rgb(142,145,158);stop-opacity:1"/><stop offset="51%" style="stop-color:rgb(166,167,179);stop-opacity:1"/><stop offset="100%" style="stop-color:rgb(174,175,186);stop-opacity:1"/></linearGradient>
        <radialGradient id="_Radial19" cx="0" cy="0" r="1" gradientUnits="userSpaceOnUse" gradientTransform="matrix(-0.272228,130.665,-131.334,-0.270841,308.915,222.984)"><stop offset="0%" style="stop-color:rgb(232,226,225);stop-opacity:1"/><stop offset="74%" style="stop-color:rgb(227,221,221);stop-opacity:1"/><stop offset="100%" style="stop-color:rgb(186,175,183);stop-opacity:1"/></radialGradient>
        <linearGradient id="_Linear20" x1="0" y1="0" x2="1" y2="0" gradientUnits="userSpaceOnUse" gradientTransform="matrix(4.14171e-15,65.3327,-65.6671,3.87754e-15,308.915,288.317)"><stop offset="0%" style="stop-color:black;stop-opacity:0.4"/><stop offset="16%" style="stop-color:black;stop-opacity:0.215686"/><stop offset="35%" style="stop-color:black;stop-opacity:0.0588235"/><stop offset="100%" style="stop-color:black;stop-opacity:0"/></linearGradient>
        <linearGradient id="_Linear21" x1="0" y1="0" x2="1" y2="0" gradientUnits="userSpaceOnUse" gradientTransform="matrix(-50.7217,79.0437,-79.4483,-50.4634,374.247,288.317)"><stop offset="0%" style="stop-color:white;stop-opacity:0.435294"/><stop offset="100%" style="stop-color:white;stop-opacity:0"/></linearGradient>
        <linearGradient id="_Linear22" x1="0" y1="0" x2="1" y2="0" gradientUnits="userSpaceOnUse" gradientTransform="matrix(1.50398e-15,-24.5619,24.5619,1.50398e-15,308.628,235.546)"><stop offset="0%" style="stop-color:rgb(232,226,225);stop-opacity:1"/><stop offset="100%" style="stop-color:rgb(206,198,204);stop-opacity:1"/></linearGradient>
    </defs>
</svg>
