<?xml version="1.0" standalone="no"?>
<!DOCTYPE svg PUBLIC "-//W3C//DTD SVG 1.1//EN" "http://www.w3.org/Graphics/SVG/1.1/DTD/svg11.dtd">
<svg width="100%" height="100%" viewBox="0 0 210 297" version="1.1" xmlns="http://www.w3.org/2000/svg" xmlns:xlink="http://www.w3.org/1999/xlink" xml:space="preserve" style="fill-rule:evenodd;clip-rule:evenodd;stroke-linejoin:round;stroke-miterlimit:1.41421;">
    <g transform="matrix(1.64062,9.86076e-32,9.86076e-32,1.64062,-961.406,-1064.77)">
        <g transform="matrix(0.744186,-5.35739e-17,-5.35739e-17,0.962918,170.744,48.1392)">
            <rect x="558" y="624" width="172" height="188" style="fill:white;"/>
        </g>
        <g transform="matrix(1,0,0,1,2,0)">
            <g transform="matrix(1,0,0,1,-5,95)">
                <rect x="627" y="678" width="46" height="6" style="fill:rgb(243,237,229);"/>
            </g>
            <g transform="matrix(1.73913,3.90753e-18,3.77939e-18,1.66667,-468.435,-350)">
                <rect x="627" y="678" width="46" height="6" style="fill:rgb(243,237,229);"/>
            </g>
            <g transform="matrix(0.586957,5.32455e-18,5.1812e-17,5.5,225.978,-2956)">
                <rect x="627" y="678" width="46" height="6" style="fill:rgb(243,237,229);"/>
            </g>
            <g transform="matrix(0.8,0,0,0.8,115.1,157.225)">
                <path d="M615.5,784C617.605,780 621.816,780 623.921,782C626.026,784 626.026,788 623.921,792C622.447,795 618.658,798 615.5,800C612.342,798 608.553,795 607.079,792C604.974,788 604.974,784 607.079,782C609.184,780 613.395,780 615.5,784Z" style="fill:rgb(255,98,142);"/>
            </g>
            <g transform="matrix(0.869565,-2.61124e-17,-3.70422e-17,2.5,116.783,-904)">
                <rect x="627" y="678" width="46" height="6" style="fill:rgb(243,237,229);"/>
            </g>
            <g transform="matrix(0.847826,-2.61124e-17,-3.61161e-17,2.5,90.413,-904)">
                <rect x="627" y="678" width="46" height="6" style="fill:rgb(243,237,229);"/>
            </g>
            <g transform="matrix(0.609524,3.80337e-18,3.9028e-18,0.609524,598.005,642.38)">
                <path d="M64.021,253.914L68.099,255.672L68.099,256.41L63.253,254.19L63.253,253.621L68.099,251.406L68.099,252.145L64.021,253.914Z" style="fill:rgb(119,119,119);fill-rule:nonzero;"/>
                <path d="M69.751,258.485L69.113,258.485L72.675,249.221L73.308,249.221L69.751,258.485Z" style="fill:rgb(119,119,119);fill-rule:nonzero;"/>
                <path d="M78.593,253.891L74.427,252.115L74.427,251.395L79.378,253.61L79.378,254.178L74.427,256.399L74.427,255.672L78.593,253.891Z" style="fill:rgb(119,119,119);fill-rule:nonzero;"/>
            </g>
            <g transform="matrix(0.609524,0,0,0.609524,638.005,642.38)">
                <path d="M64.056,255.092C63.958,255.99 63.637,256.678 63.092,257.154C62.547,257.631 61.822,257.869 60.915,257.869C60.283,257.869 59.723,257.711 59.237,257.395C58.75,257.078 58.374,256.63 58.109,256.05C57.843,255.47 57.708,254.807 57.704,254.061L57.704,252.953C57.704,252.196 57.837,251.524 58.103,250.938C58.369,250.352 58.75,249.9 59.248,249.581C59.746,249.263 60.32,249.104 60.968,249.104C61.882,249.104 62.604,249.351 63.133,249.845C63.662,250.339 63.97,251.022 64.056,251.893L63.329,251.893C63.15,250.444 62.363,249.719 60.968,249.719C60.195,249.719 59.579,250.008 59.12,250.586C58.661,251.164 58.431,251.963 58.431,252.983L58.431,254.026C58.431,255.01 58.655,255.795 59.102,256.381C59.549,256.967 60.154,257.26 60.915,257.26C61.669,257.26 62.238,257.079 62.621,256.718C63.003,256.357 63.24,255.815 63.329,255.092L64.056,255.092Z" style="fill:rgb(119,119,119);fill-rule:nonzero;"/>
                <path d="M72.113,253.949C72.113,254.735 71.977,255.424 71.705,256.018C71.434,256.612 71.046,257.069 70.542,257.389C70.038,257.709 69.456,257.869 68.796,257.869C67.8,257.869 66.996,257.513 66.382,256.8C65.769,256.087 65.462,255.125 65.462,253.914L65.462,253.035C65.462,252.258 65.6,251.57 65.875,250.97C66.151,250.37 66.54,249.909 67.044,249.587C67.548,249.265 68.128,249.104 68.785,249.104C69.441,249.104 70.02,249.262 70.522,249.578C71.024,249.895 71.412,250.342 71.685,250.92C71.958,251.498 72.101,252.168 72.113,252.93L72.113,253.949ZM71.392,253.024C71.392,251.996 71.16,251.192 70.695,250.61C70.23,250.028 69.593,249.737 68.785,249.737C67.992,249.737 67.36,250.029 66.889,250.612C66.418,251.196 66.183,252.012 66.183,253.059L66.183,253.949C66.183,254.961 66.417,255.763 66.886,256.355C67.355,256.946 67.992,257.242 68.796,257.242C69.613,257.242 70.249,256.95 70.706,256.366C71.163,255.782 71.392,254.969 71.392,253.926L71.392,253.024Z" style="fill:rgb(119,119,119);fill-rule:nonzero;"/>
                <path d="M74.65,254.278L74.65,257.752L73.929,257.752L73.929,249.221L76.835,249.221C77.722,249.221 78.422,249.447 78.936,249.901C79.45,250.354 79.706,250.977 79.706,251.77C79.706,252.571 79.459,253.189 78.965,253.624C78.471,254.06 77.755,254.278 76.818,254.278L74.65,254.278ZM74.65,253.668L76.835,253.668C77.535,253.668 78.068,253.502 78.435,253.17C78.802,252.838 78.986,252.375 78.986,251.781C78.986,251.192 78.803,250.722 78.438,250.372C78.073,250.023 77.554,249.844 76.882,249.836L74.65,249.836L74.65,253.668Z" style="fill:rgb(119,119,119);fill-rule:nonzero;"/>
                <path d="M83.82,253.873L86.427,249.221L87.259,249.221L84.177,254.541L84.177,257.752L83.456,257.752L83.456,254.541L80.38,249.221L81.236,249.221L83.82,253.873Z" style="fill:rgb(119,119,119);fill-rule:nonzero;"/>
            </g>
        </g>
        <g transform="matrix(2.78261,-8.57021e-17,-3.61161e-17,2.5,-1158.7,-1046)">
            <rect x="627" y="678" width="46" height="6" style="fill:rgb(243,237,229);"/>
        </g>
        <g transform="matrix(2.78261,-8.57021e-17,-3.61161e-17,2.5,-1158.7,-879.971)">
            <rect x="627" y="678" width="46" height="6" style="fill:rgb(243,237,229);"/>
        </g>
        <g transform="matrix(2.34783,-4.82074e-18,-3.61161e-17,0.166667,-876.087,601)">
            <rect x="627" y="678" width="46" height="6" style="fill:rgb(243,237,229);"/>
        </g>
        <g transform="matrix(2.34783,-4.82074e-18,-3.61161e-17,0.166667,-876.087,651)">
            <rect x="627" y="678" width="46" height="6" style="fill:rgb(243,237,229);"/>
        </g>
        <g transform="matrix(1,0,0,1,2,0)">
            <g transform="matrix(1,0,0,1,-5,-5)">
                <rect x="627" y="678" width="46" height="6" style="fill:rgb(243,237,229);"/>
            </g>
            <g transform="matrix(0.586957,5.32455e-18,5.1812e-17,5.5,225.978,-3056)">
                <rect x="627" y="678" width="46" height="6" style="fill:rgb(243,237,229);"/>
            </g>
            <g transform="matrix(0.823544,0,0,0.823544,80.6672,114.902)">
                <path d="M637.661,690.053C637.661,688.92 638.581,688 639.714,688C640.847,688 641.767,688.92 641.767,690.053C642.333,689.072 643.59,688.735 644.571,689.301C645.552,689.868 645.889,691.124 645.323,692.106C646.304,691.539 647.56,691.876 648.127,692.857C648.693,693.838 648.357,695.095 647.375,695.661C648.508,695.661 649.428,696.581 649.428,697.714C649.428,698.847 648.508,699.767 647.375,699.767C648.357,700.333 648.693,701.59 648.127,702.571C647.56,703.552 646.304,703.889 645.323,703.323C645.889,704.304 645.552,705.56 644.571,706.127C643.59,706.693 642.333,706.357 641.767,705.375C641.767,706.508 640.847,707.428 639.714,707.428C638.581,707.428 637.661,706.508 637.661,705.375C637.095,706.357 635.838,706.693 634.857,706.127C633.876,705.56 633.539,704.304 634.106,703.323C633.124,703.889 631.868,703.552 631.301,702.571C630.735,701.59 631.072,700.333 632.053,699.767C630.92,699.767 630,698.847 630,697.714C630,696.581 630.92,695.661 632.053,695.661C631.072,695.095 630.735,693.838 631.301,692.857C631.868,691.876 633.124,691.539 634.106,692.106C633.539,691.124 633.876,689.868 634.857,689.301C635.838,688.735 637.095,689.072 637.661,690.053Z" style="fill:rgb(43,79,132);"/>
            </g>
            <g transform="matrix(1.73913,3.90753e-18,3.77939e-18,1.66667,-468.435,-450)">
                <rect x="627" y="678" width="46" height="6" style="fill:rgb(243,237,229);"/>
            </g>
            <g transform="matrix(0.869565,-2.61124e-17,-3.70422e-17,2.5,116.783,-1004)">
                <rect x="627" y="678" width="46" height="6" style="fill:rgb(243,237,229);"/>
            </g>
            <g transform="matrix(0.847826,-2.61124e-17,-3.61161e-17,2.5,90.413,-1004)">
                <rect x="627" y="678" width="46" height="6" style="fill:rgb(243,237,229);"/>
            </g>
            <g transform="matrix(0.609524,3.80337e-18,3.9028e-18,0.609524,598.005,542.38)">
                <path d="M64.021,253.914L68.099,255.672L68.099,256.41L63.253,254.19L63.253,253.621L68.099,251.406L68.099,252.145L64.021,253.914Z" style="fill:rgb(119,119,119);fill-rule:nonzero;"/>
                <path d="M69.751,258.485L69.113,258.485L72.675,249.221L73.308,249.221L69.751,258.485Z" style="fill:rgb(119,119,119);fill-rule:nonzero;"/>
                <path d="M78.593,253.891L74.427,252.115L74.427,251.395L79.378,253.61L79.378,254.178L74.427,256.399L74.427,255.672L78.593,253.891Z" style="fill:rgb(119,119,119);fill-rule:nonzero;"/>
            </g>
            <g transform="matrix(0.609524,0,0,0.609524,638.005,542.38)">
                <path d="M64.056,255.092C63.958,255.99 63.637,256.678 63.092,257.154C62.547,257.631 61.822,257.869 60.915,257.869C60.283,257.869 59.723,257.711 59.237,257.395C58.75,257.078 58.374,256.63 58.109,256.05C57.843,255.47 57.708,254.807 57.704,254.061L57.704,252.953C57.704,252.196 57.837,251.524 58.103,250.938C58.369,250.352 58.75,249.9 59.248,249.581C59.746,249.263 60.32,249.104 60.968,249.104C61.882,249.104 62.604,249.351 63.133,249.845C63.662,250.339 63.97,251.022 64.056,251.893L63.329,251.893C63.15,250.444 62.363,249.719 60.968,249.719C60.195,249.719 59.579,250.008 59.12,250.586C58.661,251.164 58.431,251.963 58.431,252.983L58.431,254.026C58.431,255.01 58.655,255.795 59.102,256.381C59.549,256.967 60.154,257.26 60.915,257.26C61.669,257.26 62.238,257.079 62.621,256.718C63.003,256.357 63.24,255.815 63.329,255.092L64.056,255.092Z" style="fill:rgb(119,119,119);fill-rule:nonzero;"/>
                <path d="M72.113,253.949C72.113,254.735 71.977,255.424 71.705,256.018C71.434,256.612 71.046,257.069 70.542,257.389C70.038,257.709 69.456,257.869 68.796,257.869C67.8,257.869 66.996,257.513 66.382,256.8C65.769,256.087 65.462,255.125 65.462,253.914L65.462,253.035C65.462,252.258 65.6,251.57 65.875,250.97C66.151,250.37 66.54,249.909 67.044,249.587C67.548,249.265 68.128,249.104 68.785,249.104C69.441,249.104 70.02,249.262 70.522,249.578C71.024,249.895 71.412,250.342 71.685,250.92C71.958,251.498 72.101,252.168 72.113,252.93L72.113,253.949ZM71.392,253.024C71.392,251.996 71.16,251.192 70.695,250.61C70.23,250.028 69.593,249.737 68.785,249.737C67.992,249.737 67.36,250.029 66.889,250.612C66.418,251.196 66.183,252.012 66.183,253.059L66.183,253.949C66.183,254.961 66.417,255.763 66.886,256.355C67.355,256.946 67.992,257.242 68.796,257.242C69.613,257.242 70.249,256.95 70.706,256.366C71.163,255.782 71.392,254.969 71.392,253.926L71.392,253.024Z" style="fill:rgb(119,119,119);fill-rule:nonzero;"/>
                <path d="M74.65,254.278L74.65,257.752L73.929,257.752L73.929,249.221L76.835,249.221C77.722,249.221 78.422,249.447 78.936,249.901C79.45,250.354 79.706,250.977 79.706,251.77C79.706,252.571 79.459,253.189 78.965,253.624C78.471,254.06 77.755,254.278 76.818,254.278L74.65,254.278ZM74.65,253.668L76.835,253.668C77.535,253.668 78.068,253.502 78.435,253.17C78.802,252.838 78.986,252.375 78.986,251.781C78.986,251.192 78.803,250.722 78.438,250.372C78.073,250.023 77.554,249.844 76.882,249.836L74.65,249.836L74.65,253.668Z" style="fill:rgb(119,119,119);fill-rule:nonzero;"/>
                <path d="M83.82,253.873L86.427,249.221L87.259,249.221L84.177,254.541L84.177,257.752L83.456,257.752L83.456,254.541L80.38,249.221L81.236,249.221L83.82,253.873Z" style="fill:rgb(119,119,119);fill-rule:nonzero;"/>
            </g>
        </g>
        <g transform="matrix(1,0,0,1,2,50)">
            <g transform="matrix(1,0,0,1,-5,-5)">
                <rect x="627" y="678" width="46" height="6" style="fill:rgb(243,237,229);"/>
            </g>
            <g transform="matrix(0.586957,5.32455e-18,5.1812e-17,5.5,225.978,-3056)">
                <rect x="627" y="678" width="46" height="6" style="fill:rgb(243,237,229);"/>
            </g>
            <g transform="matrix(0.842105,0,0,0.842105,93.2632,97.9211)">
                <path d="M620.156,701.493C620.156,696.805 615.899,693 610.656,693C605.413,693 601.156,696.805 601.156,701.493C601.156,703.753 602.165,705.921 603.958,707.515L603.208,712L607.425,709.479C608.461,709.814 609.554,709.985 610.656,709.985C615.899,709.985 620.156,706.18 620.156,701.493Z" style="fill:rgb(104,195,255);"/>
            </g>
            <g transform="matrix(1.73913,3.90753e-18,3.77939e-18,1.66667,-468.435,-450)">
                <rect x="627" y="678" width="46" height="6" style="fill:rgb(243,237,229);"/>
            </g>
            <g transform="matrix(0.869565,-2.61124e-17,-3.70422e-17,2.5,116.783,-1004)">
                <rect x="627" y="678" width="46" height="6" style="fill:rgb(243,237,229);"/>
            </g>
            <g transform="matrix(0.847826,-2.61124e-17,-3.61161e-17,2.5,90.413,-1004)">
                <rect x="627" y="678" width="46" height="6" style="fill:rgb(243,237,229);"/>
            </g>
            <g transform="matrix(0.609524,3.80337e-18,3.9028e-18,0.609524,598.005,542.38)">
                <path d="M64.021,253.914L68.099,255.672L68.099,256.41L63.253,254.19L63.253,253.621L68.099,251.406L68.099,252.145L64.021,253.914Z" style="fill:rgb(119,119,119);fill-rule:nonzero;"/>
                <path d="M69.751,258.485L69.113,258.485L72.675,249.221L73.308,249.221L69.751,258.485Z" style="fill:rgb(119,119,119);fill-rule:nonzero;"/>
                <path d="M78.593,253.891L74.427,252.115L74.427,251.395L79.378,253.61L79.378,254.178L74.427,256.399L74.427,255.672L78.593,253.891Z" style="fill:rgb(119,119,119);fill-rule:nonzero;"/>
            </g>
            <g transform="matrix(0.609524,0,0,0.609524,638.005,542.38)">
                <path d="M64.056,255.092C63.958,255.99 63.637,256.678 63.092,257.154C62.547,257.631 61.822,257.869 60.915,257.869C60.283,257.869 59.723,257.711 59.237,257.395C58.75,257.078 58.374,256.63 58.109,256.05C57.843,255.47 57.708,254.807 57.704,254.061L57.704,252.953C57.704,252.196 57.837,251.524 58.103,250.938C58.369,250.352 58.75,249.9 59.248,249.581C59.746,249.263 60.32,249.104 60.968,249.104C61.882,249.104 62.604,249.351 63.133,249.845C63.662,250.339 63.97,251.022 64.056,251.893L63.329,251.893C63.15,250.444 62.363,249.719 60.968,249.719C60.195,249.719 59.579,250.008 59.12,250.586C58.661,251.164 58.431,251.963 58.431,252.983L58.431,254.026C58.431,255.01 58.655,255.795 59.102,256.381C59.549,256.967 60.154,257.26 60.915,257.26C61.669,257.26 62.238,257.079 62.621,256.718C63.003,256.357 63.24,255.815 63.329,255.092L64.056,255.092Z" style="fill:rgb(119,119,119);fill-rule:nonzero;"/>
                <path d="M72.113,253.949C72.113,254.735 71.977,255.424 71.705,256.018C71.434,256.612 71.046,257.069 70.542,257.389C70.038,257.709 69.456,257.869 68.796,257.869C67.8,257.869 66.996,257.513 66.382,256.8C65.769,256.087 65.462,255.125 65.462,253.914L65.462,253.035C65.462,252.258 65.6,251.57 65.875,250.97C66.151,250.37 66.54,249.909 67.044,249.587C67.548,249.265 68.128,249.104 68.785,249.104C69.441,249.104 70.02,249.262 70.522,249.578C71.024,249.895 71.412,250.342 71.685,250.92C71.958,251.498 72.101,252.168 72.113,252.93L72.113,253.949ZM71.392,253.024C71.392,251.996 71.16,251.192 70.695,250.61C70.23,250.028 69.593,249.737 68.785,249.737C67.992,249.737 67.36,250.029 66.889,250.612C66.418,251.196 66.183,252.012 66.183,253.059L66.183,253.949C66.183,254.961 66.417,255.763 66.886,256.355C67.355,256.946 67.992,257.242 68.796,257.242C69.613,257.242 70.249,256.95 70.706,256.366C71.163,255.782 71.392,254.969 71.392,253.926L71.392,253.024Z" style="fill:rgb(119,119,119);fill-rule:nonzero;"/>
                <path d="M74.65,254.278L74.65,257.752L73.929,257.752L73.929,249.221L76.835,249.221C77.722,249.221 78.422,249.447 78.936,249.901C79.45,250.354 79.706,250.977 79.706,251.77C79.706,252.571 79.459,253.189 78.965,253.624C78.471,254.06 77.755,254.278 76.818,254.278L74.65,254.278ZM74.65,253.668L76.835,253.668C77.535,253.668 78.068,253.502 78.435,253.17C78.802,252.838 78.986,252.375 78.986,251.781C78.986,251.192 78.803,250.722 78.438,250.372C78.073,250.023 77.554,249.844 76.882,249.836L74.65,249.836L74.65,253.668Z" style="fill:rgb(119,119,119);fill-rule:nonzero;"/>
                <path d="M83.82,253.873L86.427,249.221L87.259,249.221L84.177,254.541L84.177,257.752L83.456,257.752L83.456,254.541L80.38,249.221L81.236,249.221L83.82,253.873Z" style="fill:rgb(119,119,119);fill-rule:nonzero;"/>
            </g>
        </g>
    </g>
</svg>
