<?xml version="1.0" standalone="no"?><!DOCTYPE svg PUBLIC "-//W3C//DTD SVG 1.1//EN" "http://www.w3.org/Graphics/SVG/1.1/DTD/svg11.dtd"><svg width="100%" height="100%" viewBox="0 0 24 24" version="1.1" xmlns="http://www.w3.org/2000/svg" xmlns:xlink="http://www.w3.org/1999/xlink" xml:space="preserve" style="fill-rule:evenodd;clip-rule:evenodd;stroke-linejoin:round;stroke-miterlimit:1.41421;"><g id="Layer1"><path d="M24,3c0,-0.552 -0.448,-1 -1,-1l-22,0c-0.552,0 -1,0.448 -1,1l0,2c0,0.552 0.448,1 1,1l22,0c0.552,0 1,-0.448 1,-1l0,-2Z" style="fill:#808080;"/><path d="M24,11c0,-0.552 -0.448,-1 -1,-1l-22,0c-0.552,0 -1,0.448 -1,1l0,2c0,0.552 0.448,1 1,1l22,0c0.552,0 1,-0.448 1,-1l0,-2Z" style="fill:#808080;"/><path d="M24,19c0,-0.552 -0.448,-1 -1,-1l-22,0c-0.552,0 -1,0.448 -1,1l0,2c0,0.552 0.448,1 1,1l22,0c0.552,0 1,-0.448 1,-1l0,-2Z" style="fill:#808080;"/></g></svg>