<?xml version="1.0" encoding="UTF-8" standalone="no"?><!DOCTYPE svg PUBLIC "-//W3C//DTD SVG 1.1//EN" "http://www.w3.org/Graphics/SVG/1.1/DTD/svg11.dtd"><svg width="100%" height="100%" viewBox="0 0 33 38" version="1.1" xmlns="http://www.w3.org/2000/svg" xmlns:xlink="http://www.w3.org/1999/xlink" xml:space="preserve" style="fill-rule:evenodd;clip-rule:evenodd;stroke-linejoin:round;stroke-miterlimit:1.41421;"><g id="gold"><path d="M40.904,30.944c-0.673,-0.644 -1.309,-1.328 -1.903,-2.047c0.084,-0.06 0.168,-0.121 0.253,-0.182c0.243,-0.172 0.485,-0.344 0.725,-0.519c0.21,-0.152 0.418,-0.307 0.627,-0.461c0.114,-0.085 0.23,-0.168 0.344,-0.252c0.161,-0.119 0.322,-0.238 0.482,-0.358c0.08,-0.06 0.16,-0.12 0.24,-0.181c0.08,-0.06 0.158,-0.122 0.239,-0.18c0.161,-0.118 0.322,-0.235 0.482,-0.354c0.169,-0.125 0.338,-0.251 0.505,-0.378c0.135,-0.094 0.269,-0.188 0.404,-0.283l0.057,-0.036c0.084,-0.053 0.167,-0.106 0.25,-0.158l-0.265,0.131l-0.061,0.03l-0.21,0.089c-0.092,0.038 -0.182,0.079 -0.275,0.113c-0.279,0.102 -0.559,0.204 -0.839,0.303c-0.113,0.039 -0.225,0.081 -0.34,0.118c-0.49,0.158 -0.984,0.306 -1.478,0.449l-0.167,0.046c-0.285,0.077 -0.571,0.153 -0.857,0.226c-0.189,0.049 -0.381,0.099 -0.571,0.144c-0.238,0.055 -0.475,0.109 -0.713,0.162c-0.528,-0.754 -1.014,-1.54 -1.454,-2.353c0.067,-0.031 0.134,-0.062 0.201,-0.093c0.107,-0.049 0.213,-0.1 0.32,-0.149c0.343,-0.156 0.684,-0.313 1.024,-0.475c0.296,-0.14 0.591,-0.285 0.887,-0.425c0.197,-0.094 0.393,-0.188 0.589,-0.284c0.226,-0.11 0.451,-0.221 0.675,-0.334c0.216,-0.101 0.43,-0.204 0.645,-0.307c0.206,-0.1 0.413,-0.201 0.618,-0.303c0.163,-0.072 0.325,-0.145 0.487,-0.218c0.073,-0.028 0.146,-0.056 0.219,-0.084c0.049,-0.019 0.099,-0.038 0.149,-0.058c-0.127,0.033 -0.254,0.066 -0.381,0.099l-0.087,0.016c-0.145,0.027 -0.291,0.054 -0.437,0.081l-0.038,0.005c-0.321,0.043 -0.641,0.084 -0.962,0.123c-0.128,0.015 -0.256,0.032 -0.384,0.044c-0.247,0.024 -0.495,0.041 -0.742,0.059c0,0 0.001,0 0.001,0c-0.31,0.022 -0.62,0.044 -0.931,0.061c-0.118,0.006 -0.237,0.01 -0.355,0.014c-0.001,0 0.002,-0.001 0.002,-0.001c-0.428,0.015 -0.856,0.026 -1.284,0.034l0.002,0c-0.16,0.003 -0.319,0.002 -0.48,0.001c-0.263,-0.001 -0.526,-0.004 -0.789,-0.008c-0.369,-0.888 -0.686,-1.802 -0.948,-2.74c0.169,-0.025 0.337,-0.051 0.506,-0.077c0.128,-0.02 0.256,-0.042 0.385,-0.062c0.403,-0.063 0.806,-0.128 1.208,-0.199c0.249,-0.044 0.497,-0.092 0.745,-0.137c0.396,-0.072 0.792,-0.145 1.187,-0.223c0.211,-0.043 0.422,-0.086 0.632,-0.131c0.139,-0.026 0.276,-0.052 0.414,-0.078c0.174,-0.034 0.348,-0.069 0.522,-0.104c0.188,-0.039 0.376,-0.078 0.563,-0.119c0.192,-0.033 0.383,-0.067 0.574,-0.102l0.078,-0.01c0.116,-0.015 0.232,-0.031 0.348,-0.046c-0.117,0.003 -0.234,0.006 -0.351,0.009c-0.026,0.001 -0.052,0.002 -0.079,0.002c-0.032,-0.001 -0.064,-0.003 -0.096,-0.004c-0.162,-0.006 -0.323,-0.013 -0.484,-0.02l-0.044,-0.004l-0.176,-0.015c-0.43,-0.04 -0.861,-0.084 -1.291,-0.133l-0.108,-0.016c-0.565,-0.082 -1.13,-0.171 -1.692,-0.272c-0.127,-0.022 -0.254,-0.049 -0.381,-0.074c-0.171,-0.035 -0.342,-0.069 -0.513,-0.105c-0.33,-0.07 -0.659,-0.142 -0.988,-0.218c-0.122,-0.028 -0.244,-0.06 -0.365,-0.09c-0.224,-0.056 -0.447,-0.114 -0.67,-0.173c-0.161,-0.043 -0.323,-0.086 -0.484,-0.131c-0.182,-1.106 -0.289,-2.237 -0.314,-3.388c0.198,0.037 0.397,0.072 0.596,0.107c0.204,0.035 0.408,0.067 0.613,0.1c0.446,0.074 0.894,0.143 1.342,0.204c0.273,0.037 0.546,0.069 0.82,0.103c0.247,0.031 0.494,0.061 0.742,0.089c0.26,0.029 0.52,0.054 0.78,0.079c0.169,0.015 0.338,0.03 0.507,0.044c0.22,0.023 0.44,0.043 0.66,0.063c0.194,0.017 0.388,0.033 0.582,0.048c0.145,0.01 0.29,0.021 0.435,0.03c0.212,0.021 0.425,0.041 0.638,0.059l0.087,0.012c0.127,0.018 0.255,0.034 0.383,0.051c-0.154,-0.035 -0.308,-0.07 -0.462,-0.107l-0.101,-0.029c-0.171,-0.051 -0.341,-0.102 -0.511,-0.155l-0.044,-0.015c-0.509,-0.18 -1.016,-0.367 -1.519,-0.565l-0.107,-0.045c-0.577,-0.246 -1.149,-0.502 -1.714,-0.774c-0.126,-0.06 -0.251,-0.124 -0.375,-0.188c-0.17,-0.086 -0.339,-0.173 -0.508,-0.262c-0.329,-0.172 -0.655,-0.35 -0.98,-0.531c-0.116,-0.065 -0.232,-0.134 -0.347,-0.202c-0.163,-0.096 -0.325,-0.192 -0.487,-0.29c-0.314,-0.191 -0.626,-0.385 -0.934,-0.584c0.122,-1.333 0.354,-2.635 0.686,-3.896c0.249,0.157 0.5,0.311 0.752,0.461c0.195,0.116 0.391,0.228 0.587,0.341c0.376,0.216 0.755,0.428 1.138,0.632c0.193,0.102 0.388,0.203 0.583,0.302c0.14,0.071 0.281,0.14 0.421,0.209c0.25,0.125 0.5,0.249 0.752,0.368c0.328,0.155 0.658,0.303 0.989,0.449c0.105,0.045 0.209,0.09 0.314,0.134c0.487,0.218 0.98,0.423 1.476,0.62c0.082,0.032 0.164,0.064 0.246,0.095c0.117,0.049 0.234,0.098 0.351,0.146c0.102,0.041 0.205,0.083 0.307,0.123l0.089,0.041c0.13,0.057 0.261,0.115 0.391,0.172c-0.187,-0.102 -0.187,-0.102 -0.374,-0.205c-0.029,-0.016 -0.058,-0.031 -0.086,-0.048c-0.094,-0.056 -0.186,-0.116 -0.279,-0.175c-0.152,-0.097 -0.177,-0.114 -0.318,-0.206l-0.04,-0.027c-0.489,-0.346 -0.97,-0.701 -1.44,-1.071l-0.095,-0.078c-0.533,-0.444 -1.055,-0.902 -1.561,-1.377c-0.161,-0.151 -0.316,-0.307 -0.472,-0.463c-0.39,-0.391 -0.769,-0.792 -1.14,-1.201c-0.142,-0.157 -0.28,-0.32 -0.418,-0.482c-0.223,-0.263 -0.442,-0.529 -0.657,-0.799c-0.2,-0.252 -0.397,-0.506 -0.589,-0.764c0.622,-1.551 1.401,-3.022 2.318,-4.394l0.075,0.111c3.168,4.682 7.944,8.188 13.533,9.722c-1.029,1.347 -1.641,3.029 -1.641,4.853c0,4.416 3.585,8 8,8l0.026,0c0.655,0.005 1.273,0.167 1.818,0.45c0.078,0.032 0.155,0.067 0.23,0.105c0.114,0.057 0.225,0.119 0.33,0.19c0.329,0.22 0.605,0.51 0.823,0.839c0.095,0.142 0.178,0.291 0.253,0.444c0.331,0.582 0.52,1.255 0.52,1.972c0,0.03 0,0.06 -0.001,0.089c0,0.013 0.001,0.026 0.001,0.039l0.002,-0.013c0.053,-0.314 0.07,-0.635 0.065,-0.952c-0.006,-0.357 -0.043,-0.714 -0.121,-1.062c-0.032,-0.142 -0.072,-0.283 -0.119,-0.421c-0.145,-0.434 -0.36,-0.844 -0.648,-1.2c-0.187,-0.231 -0.403,-0.436 -0.64,-0.614c-0.139,-0.105 -0.291,-0.197 -0.445,-0.279c-0.3,-0.159 -0.62,-0.28 -0.948,-0.368c-0.233,-0.061 -0.472,-0.1 -0.71,-0.13c-0.072,-0.008 -0.143,-0.015 -0.215,-0.022c-0.105,-0.008 -0.211,-0.014 -0.317,-0.022c-0.189,-0.014 -0.379,-0.032 -0.567,-0.057c-0.184,-0.025 -0.368,-0.056 -0.55,-0.095c-0.093,-0.019 -0.185,-0.042 -0.277,-0.064c-0.115,-0.027 -0.23,-0.056 -0.345,-0.089c-0.257,-0.072 -0.51,-0.157 -0.76,-0.252c-0.086,-0.033 -0.173,-0.065 -0.259,-0.1c-0.096,-0.039 -0.191,-0.081 -0.285,-0.124c-0.09,-0.04 -0.18,-0.08 -0.269,-0.123c0.407,-0.684 0.683,-1.325 0.805,-1.872c0.759,0.464 1.65,0.731 2.603,0.731c0.956,0 1.85,-0.269 2.609,-0.735c0.283,1.269 1.396,3.046 3.048,4.701l-0.003,0.004c1.449,1.448 2.346,3.449 2.346,5.658c0,4.415 -3.585,8 -8,8l-0.078,0c-5.882,-0.019 -11.269,-2.158 -15.435,-5.693c0.025,-0.025 0.05,-0.05 0.075,-0.075c0.326,-0.325 0.65,-0.652 0.971,-0.982c0.13,-0.135 0.261,-0.268 0.391,-0.401c0.131,-0.134 0.26,-0.269 0.389,-0.403c0.128,-0.135 0.255,-0.273 0.385,-0.406c0.13,-0.133 0.26,-0.266 0.389,-0.399c0.136,-0.143 0.273,-0.285 0.408,-0.428c0.109,-0.108 0.218,-0.216 0.326,-0.324l0.047,-0.043c0.068,-0.062 0.136,-0.124 0.204,-0.187l-0.22,0.169l-0.05,0.038c-0.134,0.092 -0.244,0.167 -0.38,0.259c-0.086,0.058 -0.175,0.11 -0.263,0.165c-0.157,0.097 -0.316,0.195 -0.474,0.291c-0.094,0.058 -0.188,0.117 -0.284,0.172c-0.224,0.129 -0.45,0.256 -0.677,0.382c-0.193,0.107 -0.386,0.215 -0.581,0.319c-0.105,0.056 -0.305,0.16 -0.393,0.205c-0.32,0.166 -0.642,0.329 -0.965,0.489c-0.088,0.044 -0.178,0.086 -0.267,0.128c-0.038,0.018 -0.076,0.036 -0.114,0.054Z" style="fill:#b89766;"/></g><g id="color"><path d="M7.9,30.95c-0.674,-0.645 -1.309,-1.328 -1.904,-2.047c0.085,-0.061 0.169,-0.122 0.253,-0.182c0.243,-0.172 0.485,-0.345 0.726,-0.519c0.21,-0.153 0.417,-0.308 0.626,-0.462c0.115,-0.085 0.23,-0.168 0.345,-0.252c0.161,-0.119 0.321,-0.238 0.482,-0.358c0.08,-0.06 0.16,-0.12 0.24,-0.181c0.079,-0.06 0.158,-0.122 0.239,-0.18c0.161,-0.118 0.322,-0.236 0.482,-0.354c0.169,-0.126 0.338,-0.251 0.505,-0.378c0.135,-0.094 0.269,-0.189 0.403,-0.283l0.058,-0.037c0.084,-0.052 0.167,-0.105 0.25,-0.158l-0.265,0.132l-0.061,0.03l-0.21,0.089c-0.092,0.038 -0.182,0.078 -0.275,0.113c-0.279,0.102 -0.559,0.203 -0.839,0.302c-0.113,0.04 -0.226,0.082 -0.34,0.119c-0.49,0.158 -0.984,0.305 -1.479,0.449l-0.167,0.046c-0.285,0.077 -0.571,0.153 -0.857,0.226c-0.189,0.049 -0.381,0.099 -0.571,0.144c-0.238,0.055 -0.475,0.109 -0.713,0.162c-0.528,-0.754 -1.014,-1.54 -1.455,-2.354c0.068,-0.03 0.135,-0.061 0.202,-0.093c0.107,-0.049 0.213,-0.1 0.32,-0.148c0.342,-0.156 0.684,-0.314 1.024,-0.475c0.296,-0.141 0.591,-0.285 0.888,-0.425c0.196,-0.094 0.392,-0.189 0.588,-0.284c0.226,-0.111 0.451,-0.222 0.675,-0.335c0.216,-0.101 0.431,-0.204 0.645,-0.307c0.207,-0.1 0.413,-0.201 0.619,-0.303c0.162,-0.072 0.325,-0.145 0.487,-0.218c0.073,-0.028 0.146,-0.056 0.218,-0.084c0.05,-0.019 0.1,-0.038 0.15,-0.057c-0.127,0.033 -0.254,0.065 -0.381,0.098l-0.087,0.016c-0.146,0.027 -0.292,0.054 -0.438,0.081l-0.038,0.005c-0.32,0.043 -0.641,0.084 -0.962,0.123c-0.128,0.015 -0.256,0.032 -0.384,0.045c-0.247,0.023 -0.494,0.04 -0.742,0.058c0,0 0.002,0 0.001,0c-0.31,0.022 -0.62,0.044 -0.931,0.061c-0.118,0.006 -0.237,0.01 -0.355,0.014c-0.001,0 0.002,0 0.001,0c-0.427,0.014 -0.855,0.025 -1.283,0.034l0.002,-0.001c-0.16,0.003 -0.32,0.002 -0.48,0.001c-0.263,-0.001 -0.526,-0.003 -0.789,-0.008c-0.37,-0.888 -0.687,-1.803 -0.949,-2.74c0.169,-0.025 0.338,-0.051 0.506,-0.077c0.129,-0.021 0.257,-0.042 0.385,-0.063c0.404,-0.063 0.807,-0.128 1.209,-0.198c0.249,-0.044 0.497,-0.092 0.745,-0.137c0.396,-0.072 0.792,-0.145 1.187,-0.224c0.211,-0.042 0.422,-0.086 0.633,-0.13c0.138,-0.026 0.276,-0.052 0.414,-0.079c0.174,-0.034 0.348,-0.069 0.522,-0.104c0.187,-0.039 0.375,-0.078 0.563,-0.118c0.191,-0.034 0.382,-0.068 0.573,-0.103l0.079,-0.01c0.116,-0.015 0.232,-0.03 0.348,-0.046c-0.117,0.003 -0.234,0.007 -0.351,0.009c-0.026,0.001 -0.053,0.002 -0.079,0.002c-0.032,0 -0.065,-0.002 -0.097,-0.003c-0.161,-0.007 -0.323,-0.013 -0.484,-0.021l-0.043,-0.003l-0.176,-0.016c-0.431,-0.04 -0.862,-0.083 -1.291,-0.133l-0.109,-0.016c-0.565,-0.082 -1.13,-0.17 -1.692,-0.271c-0.127,-0.023 -0.254,-0.05 -0.381,-0.075c-0.172,-0.034 -0.343,-0.069 -0.514,-0.105c-0.33,-0.069 -0.659,-0.142 -0.987,-0.218c-0.123,-0.028 -0.244,-0.06 -0.366,-0.09c-0.223,-0.056 -0.447,-0.113 -0.669,-0.172c-0.162,-0.043 -0.324,-0.087 -0.485,-0.131c-0.182,-1.107 -0.289,-2.238 -0.314,-3.39c0.198,0.037 0.397,0.073 0.596,0.107c0.204,0.035 0.409,0.067 0.613,0.101c0.447,0.074 0.894,0.143 1.343,0.204c0.273,0.037 0.546,0.068 0.819,0.102c0.248,0.031 0.495,0.062 0.743,0.089c0.26,0.029 0.52,0.055 0.78,0.08c0.169,0.015 0.338,0.03 0.507,0.043c0.22,0.023 0.44,0.044 0.66,0.064c0.194,0.017 0.388,0.032 0.582,0.047c0.145,0.011 0.29,0.021 0.435,0.031c0.213,0.021 0.426,0.041 0.638,0.059l0.087,0.012c0.128,0.017 0.255,0.034 0.383,0.051c-0.154,-0.035 -0.308,-0.071 -0.461,-0.107l-0.102,-0.03c-0.17,-0.05 -0.341,-0.102 -0.511,-0.154l-0.043,-0.015c-0.51,-0.18 -1.017,-0.367 -1.52,-0.565l-0.107,-0.045c-0.577,-0.247 -1.149,-0.503 -1.714,-0.774c-0.126,-0.061 -0.251,-0.125 -0.376,-0.188c-0.17,-0.086 -0.339,-0.174 -0.507,-0.262c-0.329,-0.173 -0.656,-0.35 -0.98,-0.532c-0.117,-0.065 -0.233,-0.134 -0.348,-0.202c-0.163,-0.095 -0.325,-0.192 -0.487,-0.29c-0.314,-0.191 -0.625,-0.385 -0.934,-0.584c0.122,-1.333 0.354,-2.635 0.686,-3.896c0.249,0.156 0.5,0.31 0.753,0.46c0.194,0.116 0.391,0.229 0.587,0.341c0.376,0.217 0.754,0.429 1.138,0.632c0.193,0.103 0.388,0.204 0.583,0.303c0.14,0.071 0.28,0.139 0.421,0.209c0.25,0.125 0.5,0.248 0.753,0.368c0.327,0.155 0.657,0.303 0.988,0.448c0.105,0.045 0.209,0.09 0.314,0.135c0.487,0.218 0.98,0.423 1.476,0.62c0.083,0.032 0.165,0.064 0.247,0.095c0.117,0.049 0.234,0.098 0.351,0.146c0.102,0.041 0.204,0.083 0.307,0.123l0.089,0.041c0.13,0.057 0.261,0.115 0.391,0.172c-0.188,-0.102 -0.188,-0.101 -0.375,-0.205c-0.028,-0.016 -0.057,-0.031 -0.085,-0.048c-0.095,-0.056 -0.187,-0.116 -0.279,-0.175c-0.153,-0.097 -0.178,-0.114 -0.319,-0.206l-0.039,-0.028c-0.489,-0.345 -0.971,-0.7 -1.441,-1.071l-0.095,-0.077c-0.533,-0.445 -1.055,-0.902 -1.561,-1.377c-0.161,-0.151 -0.317,-0.308 -0.472,-0.464c-0.39,-0.391 -0.769,-0.791 -1.14,-1.2c-0.143,-0.158 -0.28,-0.321 -0.418,-0.483c-0.224,-0.263 -0.443,-0.529 -0.658,-0.799c-0.2,-0.252 -0.396,-0.506 -0.589,-0.764c0.622,-1.551 1.402,-3.023 2.319,-4.395l0.075,0.111c3.168,4.683 7.946,8.19 13.536,9.724c-1.03,1.347 -1.642,3.029 -1.642,4.854c0,4.416 3.585,8.001 8.002,8.001l0.025,0.001c0.656,0.004 1.274,0.166 1.819,0.45c0.078,0.031 0.155,0.067 0.23,0.104c0.114,0.057 0.225,0.12 0.33,0.191c0.329,0.22 0.605,0.51 0.824,0.838c0.094,0.142 0.178,0.291 0.252,0.445c0.331,0.582 0.52,1.255 0.52,1.972c0,0.03 0,0.06 -0.001,0.089c0.001,0.013 0.001,0.026 0.001,0.039l0.003,-0.013c0.052,-0.314 0.07,-0.635 0.064,-0.953c-0.006,-0.356 -0.043,-0.713 -0.121,-1.061c-0.031,-0.143 -0.072,-0.284 -0.118,-0.422c-0.146,-0.433 -0.361,-0.844 -0.649,-1.2c-0.187,-0.231 -0.403,-0.435 -0.64,-0.614c-0.139,-0.105 -0.291,-0.196 -0.445,-0.279c-0.3,-0.159 -0.62,-0.28 -0.949,-0.368c-0.232,-0.061 -0.471,-0.1 -0.71,-0.13c-0.071,-0.008 -0.143,-0.015 -0.214,-0.022c-0.106,-0.008 -0.212,-0.014 -0.317,-0.022c-0.19,-0.014 -0.379,-0.032 -0.567,-0.057c-0.185,-0.025 -0.368,-0.056 -0.551,-0.095c-0.092,-0.019 -0.184,-0.042 -0.277,-0.064c-0.115,-0.027 -0.23,-0.056 -0.345,-0.089c-0.257,-0.073 -0.51,-0.157 -0.76,-0.252c-0.086,-0.033 -0.173,-0.065 -0.259,-0.1c-0.096,-0.039 -0.191,-0.082 -0.285,-0.124c-0.09,-0.04 -0.18,-0.08 -0.269,-0.123c0.407,-0.685 0.683,-1.325 0.805,-1.872c0.759,0.464 1.65,0.731 2.603,0.731c0.957,0 1.851,-0.269 2.61,-0.735c0.283,1.269 1.396,3.047 3.049,4.701l-0.004,0.004c1.45,1.449 2.347,3.45 2.347,5.659c0,4.416 -3.585,8.002 -8.001,8.002l-0.078,-0.001c-5.883,-0.018 -11.271,-2.158 -15.439,-5.694c0.025,-0.025 0.05,-0.049 0.075,-0.074c0.327,-0.325 0.651,-0.652 0.972,-0.982c0.13,-0.135 0.261,-0.268 0.391,-0.402c0.13,-0.134 0.26,-0.268 0.389,-0.403c0.128,-0.135 0.255,-0.272 0.385,-0.405c0.13,-0.133 0.26,-0.267 0.389,-0.4c0.137,-0.142 0.273,-0.284 0.408,-0.428c0.109,-0.108 0.218,-0.216 0.326,-0.324l0.047,-0.042c0.068,-0.063 0.136,-0.125 0.204,-0.188l-0.22,0.169l-0.05,0.038c-0.134,0.092 -0.243,0.167 -0.38,0.259c-0.086,0.058 -0.175,0.11 -0.263,0.165c-0.157,0.097 -0.316,0.195 -0.474,0.291c-0.094,0.058 -0.188,0.117 -0.284,0.172c-0.224,0.13 -0.45,0.256 -0.677,0.382c-0.193,0.108 -0.386,0.216 -0.582,0.32c-0.104,0.055 -0.304,0.159 -0.392,0.205c-0.32,0.166 -0.642,0.328 -0.965,0.489c-0.089,0.043 -0.178,0.085 -0.267,0.128c-0.038,0.018 -0.076,0.036 -0.114,0.054Z" style="fill:#dddad2;"/><path d="M21.432,11.04c0.596,-1.756 1.746,-2.946 3.067,-2.946c1.32,0 2.47,1.19 3.067,2.946c-0.848,-0.659 -1.912,-1.052 -3.068,-1.052c-1.155,0 -2.219,0.393 -3.066,1.052Z" style="fill:#f62f5f;"/><path d="M26.499,12.717c2.318,0.547 3.984,2.017 4.001,3.746l0,0.026c-1.537,0 -2.939,0.386 -4.001,1.02l0,-4.792Z" style="fill:#ffbe00;"/><path d="M24.499,10.988c2.208,0 4,1.793 4,4.001c0,2.208 -1.792,4.001 -4,4.001c-2.209,0 -4.001,-1.793 -4.001,-4.001c0,-2.208 1.792,-4.001 4.001,-4.001Zm-0.986,3.827c0.281,0.11 0.62,0.174 0.986,0.174c0.365,0 0.704,-0.064 0.985,-0.174c0.01,0.057 0.015,0.115 0.015,0.174c0,0.552 -0.448,1 -1,1c-0.552,0 -1.001,-0.448 -1.001,-1c0,-0.059 0.005,-0.117 0.015,-0.174Z" style="fill:#dddad2;"/></g></svg>