<?xml version="1.0" encoding="UTF-8" standalone="no"?><!DOCTYPE svg PUBLIC "-//W3C//DTD SVG 1.1//EN" "http://www.w3.org/Graphics/SVG/1.1/DTD/svg11.dtd"><svg width="100%" height="100%" viewBox="0 0 57 57" version="1.1" xmlns="http://www.w3.org/2000/svg" xmlns:xlink="http://www.w3.org/1999/xlink" xml:space="preserve" style="fill-rule:evenodd;clip-rule:evenodd;stroke-linejoin:round;stroke-miterlimit:1.41421;"><g id="Livello2"><g><rect x="0" y="0" width="57" height="57" style="fill:none;"/><g id="black"><path d="M17.504,43.829c-0.861,-0.824 -1.674,-1.698 -2.434,-2.617c0.108,-0.078 0.216,-0.156 0.324,-0.233c0.31,-0.22 0.62,-0.44 0.928,-0.664c0.268,-0.195 0.534,-0.393 0.801,-0.59c0.146,-0.108 0.293,-0.214 0.44,-0.321c0.206,-0.153 0.411,-0.306 0.617,-0.459c0.102,-0.077 0.204,-0.154 0.306,-0.231c0.102,-0.077 0.202,-0.156 0.306,-0.231c0.206,-0.15 0.411,-0.301 0.616,-0.452c0.216,-0.16 0.432,-0.321 0.646,-0.483c0.172,-0.121 0.344,-0.241 0.516,-0.363l0.074,-0.046c0.106,-0.067 0.213,-0.134 0.32,-0.202l-0.339,0.168l-0.078,0.039l-0.27,0.113c-0.117,0.049 -0.232,0.101 -0.351,0.145c-0.357,0.13 -0.714,0.26 -1.073,0.387c-0.145,0.05 -0.288,0.104 -0.434,0.151c-0.627,0.202 -1.259,0.391 -1.891,0.574l-0.213,0.059c-0.365,0.098 -0.73,0.196 -1.096,0.29c-0.242,0.062 -0.487,0.125 -0.731,0.183c-0.303,0.07 -0.607,0.139 -0.911,0.207c-0.675,-0.964 -1.297,-1.968 -1.86,-3.009c0.086,-0.039 0.172,-0.079 0.258,-0.119c0.136,-0.063 0.272,-0.128 0.409,-0.19c0.438,-0.199 0.875,-0.401 1.309,-0.607c0.379,-0.18 0.756,-0.364 1.135,-0.544c0.251,-0.12 0.502,-0.241 0.753,-0.363c0.288,-0.141 0.576,-0.283 0.863,-0.428c0.275,-0.129 0.55,-0.26 0.824,-0.392c0.264,-0.128 0.528,-0.257 0.791,-0.387c0.208,-0.092 0.416,-0.186 0.623,-0.28c0.093,-0.035 0.186,-0.071 0.279,-0.106c0.064,-0.025 0.128,-0.049 0.192,-0.074c-0.163,0.042 -0.325,0.084 -0.488,0.126l-0.111,0.021c-0.186,0.034 -0.373,0.069 -0.56,0.103l-0.048,0.006c-0.41,0.055 -0.82,0.108 -1.23,0.157c-0.164,0.02 -0.327,0.042 -0.491,0.057c-0.316,0.031 -0.632,0.052 -0.949,0.075c0,0.001 0.002,0 0.002,0c-0.397,0.028 -0.794,0.056 -1.191,0.078c-0.151,0.008 -0.303,0.013 -0.454,0.018c-0.001,0 0.003,0 0.002,0c-0.547,0.018 -1.094,0.032 -1.641,0.043l0.003,-0.001c-0.205,0.004 -0.409,0.003 -0.614,0.002c-0.336,-0.002 -0.673,-0.005 -1.009,-0.011c-0.472,-1.135 -0.878,-2.304 -1.213,-3.503c0.216,-0.032 0.432,-0.065 0.647,-0.099c0.164,-0.026 0.328,-0.054 0.492,-0.079c0.516,-0.081 1.031,-0.164 1.545,-0.254c0.319,-0.057 0.636,-0.118 0.954,-0.176c0.506,-0.092 1.012,-0.185 1.517,-0.285c0.27,-0.055 0.539,-0.11 0.809,-0.167c0.176,-0.033 0.353,-0.067 0.529,-0.101c0.223,-0.043 0.445,-0.087 0.667,-0.132c0.241,-0.05 0.481,-0.1 0.721,-0.152c0.244,-0.042 0.489,-0.086 0.733,-0.131l0.1,-0.013c0.148,-0.019 0.297,-0.039 0.445,-0.059c-0.149,0.005 -0.299,0.009 -0.449,0.012c-0.033,0.001 -0.067,0.003 -0.101,0.002c-0.041,0 -0.082,-0.003 -0.123,-0.004c-0.207,-0.008 -0.413,-0.017 -0.619,-0.026l-0.056,-0.005l-0.225,-0.02c-0.551,-0.051 -1.101,-0.106 -1.65,-0.17l-0.14,-0.02c-0.722,-0.105 -1.444,-0.218 -2.162,-0.347c-0.163,-0.029 -0.326,-0.063 -0.488,-0.096c-0.219,-0.043 -0.438,-0.088 -0.656,-0.134c-0.422,-0.088 -0.843,-0.181 -1.263,-0.278c-0.156,-0.036 -0.312,-0.077 -0.467,-0.116c-0.286,-0.071 -0.572,-0.145 -0.857,-0.22c-0.206,-0.055 -0.413,-0.111 -0.619,-0.168c-0.233,-1.414 -0.369,-2.861 -0.402,-4.333c0.254,0.047 0.508,0.093 0.763,0.137c0.26,0.045 0.522,0.086 0.783,0.129c0.571,0.094 1.143,0.182 1.717,0.26c0.349,0.047 0.698,0.088 1.048,0.131c0.316,0.04 0.632,0.079 0.949,0.114c0.332,0.037 0.665,0.07 0.998,0.101c0.216,0.02 0.432,0.039 0.648,0.056c0.281,0.03 0.562,0.056 0.843,0.082c0.249,0.021 0.497,0.041 0.745,0.06c0.185,0.014 0.371,0.027 0.556,0.039c0.272,0.027 0.544,0.053 0.816,0.076l0.111,0.015c0.163,0.022 0.326,0.044 0.49,0.065c-0.197,-0.045 -0.394,-0.09 -0.59,-0.136l-0.13,-0.038c-0.218,-0.065 -0.436,-0.131 -0.653,-0.198l-0.056,-0.019c-0.652,-0.23 -1.3,-0.469 -1.943,-0.722l-0.137,-0.058c-0.737,-0.315 -1.469,-0.642 -2.192,-0.99c-0.161,-0.077 -0.32,-0.159 -0.48,-0.24c-0.217,-0.11 -0.433,-0.222 -0.648,-0.335c-0.421,-0.221 -0.839,-0.447 -1.253,-0.679c-0.15,-0.084 -0.297,-0.172 -0.445,-0.259c-0.208,-0.122 -0.416,-0.246 -0.622,-0.371c-0.402,-0.243 -0.8,-0.492 -1.195,-0.747c0.157,-1.704 0.453,-3.368 0.877,-4.981c0.319,0.2 0.639,0.397 0.963,0.589c0.248,0.148 0.499,0.292 0.75,0.436c0.481,0.277 0.965,0.548 1.455,0.808c0.247,0.131 0.496,0.26 0.746,0.387c0.178,0.09 0.358,0.178 0.538,0.267c0.319,0.159 0.639,0.317 0.962,0.47c0.419,0.198 0.84,0.388 1.264,0.574c0.134,0.057 0.268,0.115 0.402,0.172c0.623,0.279 1.253,0.541 1.887,0.792c0.105,0.041 0.21,0.082 0.315,0.122c0.15,0.063 0.299,0.125 0.449,0.187c0.131,0.053 0.261,0.105 0.392,0.157l0.114,0.052c0.167,0.074 0.334,0.148 0.501,0.22c-0.24,-0.13 -0.24,-0.129 -0.48,-0.262c-0.036,-0.02 -0.073,-0.04 -0.109,-0.061c-0.121,-0.072 -0.238,-0.149 -0.357,-0.224c-0.194,-0.124 -0.227,-0.146 -0.407,-0.263l-0.051,-0.035c-0.625,-0.442 -1.24,-0.897 -1.842,-1.37l-0.12,-0.099c-0.682,-0.568 -1.349,-1.153 -1.997,-1.761c-0.205,-0.193 -0.404,-0.393 -0.604,-0.592c-0.498,-0.5 -0.983,-1.012 -1.457,-1.535c-0.182,-0.202 -0.358,-0.41 -0.534,-0.618c-0.286,-0.336 -0.566,-0.676 -0.841,-1.021c-0.256,-0.322 -0.507,-0.647 -0.753,-0.977c0.795,-1.983 1.792,-3.865 2.965,-5.619l0.095,0.142c4.051,5.987 10.159,10.471 17.306,12.433c-1.316,1.721 -2.099,3.873 -2.099,6.206c0,5.646 4.584,10.23 10.23,10.23l0.033,0c0.838,0.005 1.629,0.212 2.325,0.575c0.1,0.041 0.198,0.086 0.295,0.134c0.146,0.073 0.287,0.153 0.422,0.243c0.42,0.282 0.773,0.653 1.052,1.073c0.122,0.181 0.228,0.372 0.323,0.568c0.424,0.744 0.665,1.605 0.665,2.522c0,0.038 0,0.076 -0.001,0.114c0.001,0.016 0.001,0.032 0.001,0.049l0.003,-0.017c0.068,-0.401 0.09,-0.811 0.083,-1.217c-0.008,-0.456 -0.055,-0.913 -0.154,-1.358c-0.041,-0.182 -0.093,-0.362 -0.152,-0.539c-0.186,-0.554 -0.461,-1.079 -0.83,-1.534c-0.239,-0.295 -0.514,-0.557 -0.817,-0.785c-0.179,-0.135 -0.373,-0.251 -0.57,-0.356c-0.384,-0.205 -0.793,-0.359 -1.213,-0.471c-0.297,-0.079 -0.602,-0.128 -0.907,-0.166c-0.092,-0.011 -0.183,-0.02 -0.275,-0.028c-0.135,-0.012 -0.27,-0.019 -0.405,-0.029c-0.242,-0.018 -0.484,-0.041 -0.725,-0.073c-0.236,-0.031 -0.471,-0.071 -0.704,-0.121c-0.118,-0.025 -0.236,-0.053 -0.354,-0.082c-0.147,-0.035 -0.295,-0.072 -0.441,-0.113c-0.329,-0.094 -0.653,-0.202 -0.972,-0.323c-0.111,-0.042 -0.222,-0.083 -0.331,-0.128c-0.123,-0.05 -0.244,-0.104 -0.365,-0.158c-0.115,-0.052 -0.23,-0.103 -0.344,-0.158c0.521,-0.875 0.874,-1.694 1.03,-2.393c0.97,0.593 2.11,0.935 3.328,0.935c1.223,0 2.366,-0.344 3.337,-0.941c0.361,1.623 1.785,3.896 3.898,6.012l-0.005,0.005c1.853,1.851 3.001,4.41 3.001,7.235c0,5.646 -4.584,10.23 -10.231,10.23l-0.099,0c-7.522,-0.024 -14.411,-2.76 -19.739,-7.28c0.032,-0.032 0.064,-0.064 0.096,-0.096c0.418,-0.415 0.832,-0.833 1.242,-1.256c0.166,-0.172 0.334,-0.342 0.501,-0.513c0.166,-0.171 0.331,-0.343 0.497,-0.515c0.164,-0.173 0.325,-0.349 0.493,-0.518c0.166,-0.17 0.331,-0.341 0.497,-0.512c0.174,-0.181 0.349,-0.363 0.521,-0.546c0.14,-0.138 0.279,-0.276 0.417,-0.415l0.06,-0.054c0.087,-0.08 0.174,-0.16 0.261,-0.24l-0.281,0.216l-0.064,0.049c-0.172,0.117 -0.312,0.213 -0.486,0.331c-0.11,0.074 -0.224,0.141 -0.337,0.21c-0.2,0.125 -0.404,0.25 -0.605,0.373c-0.121,0.074 -0.241,0.149 -0.363,0.22c-0.287,0.166 -0.576,0.328 -0.866,0.489c-0.247,0.137 -0.494,0.275 -0.744,0.408c-0.133,0.071 -0.389,0.204 -0.502,0.262c-0.409,0.212 -0.821,0.42 -1.234,0.625c-0.113,0.056 -0.227,0.11 -0.341,0.164c-0.049,0.023 -0.097,0.046 -0.146,0.069l0,0Z"/><path d="M34.805,18.373c0.763,-2.244 2.233,-3.766 3.921,-3.766c1.688,0 3.159,1.522 3.922,3.767c-1.083,-0.843 -2.444,-1.345 -3.922,-1.345c-1.477,0 -2.838,0.502 -3.921,1.344l0,0Z"/><path d="M41.284,20.517c2.964,0.699 5.094,2.58 5.115,4.791l0,0.033c-1.964,0 -3.757,0.493 -5.115,1.303l0,-6.127Z"/><path d="M38.726,18.307c2.824,0 5.115,2.292 5.115,5.116c0,2.823 -2.291,5.115 -5.115,5.115c-2.823,0 -5.115,-2.292 -5.115,-5.115c0,-2.824 2.292,-5.116 5.115,-5.116l0,0Zm-1.259,4.894c0.359,0.14 0.792,0.222 1.259,0.222c0.467,0 0.901,-0.082 1.26,-0.222c0.013,0.072 0.019,0.146 0.019,0.222c0,0.705 -0.573,1.278 -1.279,1.278c-0.705,0 -1.278,-0.573 -1.278,-1.278c0,-0.076 0.006,-0.15 0.019,-0.222Z"/></g></g></g></svg>