<?xml version="1.0" encoding="UTF-8" standalone="no"?><!DOCTYPE svg PUBLIC "-//W3C//DTD SVG 1.1//EN" "http://www.w3.org/Graphics/SVG/1.1/DTD/svg11.dtd"><svg width="100%" height="100%" viewBox="0 0 33 38" version="1.1" xmlns="http://www.w3.org/2000/svg" xmlns:xlink="http://www.w3.org/1999/xlink" xml:space="preserve" style="fill-rule:evenodd;clip-rule:evenodd;stroke-linejoin:round;stroke-miterlimit:1.41421;"><g id="black"><path d="M7.904,30.944c-0.673,-0.644 -1.309,-1.328 -1.903,-2.047c0.084,-0.06 0.168,-0.121 0.253,-0.182c0.243,-0.172 0.485,-0.344 0.725,-0.519c0.21,-0.152 0.418,-0.307 0.627,-0.461c0.114,-0.085 0.23,-0.168 0.344,-0.252c0.161,-0.119 0.322,-0.238 0.482,-0.358c0.08,-0.06 0.16,-0.12 0.24,-0.181c0.08,-0.06 0.158,-0.122 0.239,-0.18c0.161,-0.118 0.322,-0.235 0.482,-0.354c0.169,-0.125 0.338,-0.251 0.505,-0.378c0.135,-0.094 0.269,-0.188 0.404,-0.283l0.057,-0.036c0.084,-0.053 0.167,-0.106 0.25,-0.158l-0.265,0.131l-0.061,0.03l-0.21,0.089c-0.092,0.038 -0.182,0.079 -0.275,0.113c-0.279,0.102 -0.559,0.204 -0.839,0.303c-0.113,0.039 -0.225,0.081 -0.34,0.118c-0.49,0.158 -0.984,0.306 -1.478,0.449l-0.167,0.046c-0.285,0.077 -0.571,0.153 -0.857,0.226c-0.189,0.049 -0.381,0.099 -0.571,0.144c-0.238,0.055 -0.475,0.109 -0.713,0.162c-0.528,-0.754 -1.014,-1.54 -1.454,-2.353c0.067,-0.031 0.134,-0.062 0.201,-0.093c0.107,-0.049 0.213,-0.1 0.32,-0.149c0.343,-0.156 0.684,-0.313 1.024,-0.475c0.296,-0.14 0.591,-0.285 0.887,-0.425c0.197,-0.094 0.393,-0.188 0.589,-0.284c0.226,-0.11 0.451,-0.221 0.675,-0.334c0.216,-0.101 0.43,-0.204 0.645,-0.307c0.206,-0.1 0.413,-0.201 0.618,-0.303c0.163,-0.072 0.325,-0.145 0.487,-0.218c0.073,-0.028 0.146,-0.056 0.219,-0.084c0.049,-0.019 0.099,-0.038 0.149,-0.058c-0.127,0.033 -0.254,0.066 -0.381,0.099l-0.087,0.016c-0.145,0.027 -0.291,0.054 -0.437,0.081l-0.038,0.005c-0.321,0.043 -0.641,0.084 -0.962,0.123c-0.128,0.015 -0.256,0.032 -0.384,0.044c-0.247,0.024 -0.495,0.041 -0.742,0.059c0,0 0.001,0 0.001,0c-0.31,0.022 -0.62,0.044 -0.931,0.061c-0.118,0.006 -0.237,0.01 -0.355,0.014c-0.001,0 0.002,-0.001 0.002,-0.001c-0.428,0.015 -0.856,0.026 -1.284,0.034l0.002,0c-0.16,0.003 -0.319,0.002 -0.48,0.001c-0.263,-0.001 -0.526,-0.004 -0.789,-0.008c-0.369,-0.888 -0.686,-1.802 -0.948,-2.74c0.169,-0.025 0.337,-0.051 0.506,-0.077c0.128,-0.02 0.256,-0.042 0.385,-0.062c0.403,-0.063 0.806,-0.128 1.208,-0.199c0.249,-0.044 0.497,-0.092 0.745,-0.137c0.396,-0.072 0.792,-0.145 1.187,-0.223c0.211,-0.043 0.422,-0.086 0.632,-0.131c0.139,-0.026 0.276,-0.052 0.414,-0.078c0.174,-0.034 0.348,-0.069 0.522,-0.104c0.188,-0.039 0.376,-0.078 0.563,-0.119c0.192,-0.033 0.383,-0.067 0.574,-0.102l0.078,-0.01c0.116,-0.015 0.232,-0.031 0.348,-0.046c-0.117,0.003 -0.234,0.006 -0.351,0.009c-0.026,0.001 -0.052,0.002 -0.079,0.002c-0.032,-0.001 -0.064,-0.003 -0.096,-0.004c-0.162,-0.006 -0.323,-0.013 -0.484,-0.02l-0.044,-0.004l-0.176,-0.015c-0.43,-0.04 -0.861,-0.084 -1.291,-0.133l-0.108,-0.016c-0.565,-0.082 -1.13,-0.171 -1.692,-0.272c-0.127,-0.022 -0.254,-0.049 -0.381,-0.074c-0.171,-0.035 -0.342,-0.069 -0.513,-0.105c-0.33,-0.07 -0.659,-0.142 -0.988,-0.218c-0.122,-0.028 -0.244,-0.06 -0.365,-0.09c-0.224,-0.056 -0.447,-0.114 -0.67,-0.173c-0.161,-0.043 -0.323,-0.086 -0.484,-0.131c-0.182,-1.106 -0.289,-2.237 -0.314,-3.388c0.198,0.037 0.397,0.072 0.596,0.107c0.204,0.035 0.408,0.067 0.613,0.1c0.446,0.074 0.894,0.143 1.342,0.204c0.273,0.037 0.546,0.069 0.82,0.103c0.247,0.031 0.494,0.061 0.742,0.089c0.26,0.029 0.52,0.054 0.78,0.079c0.169,0.015 0.338,0.03 0.507,0.044c0.22,0.023 0.44,0.043 0.66,0.063c0.194,0.017 0.388,0.033 0.582,0.048c0.145,0.01 0.29,0.021 0.435,0.03c0.212,0.021 0.425,0.041 0.638,0.059l0.087,0.012c0.127,0.018 0.255,0.034 0.383,0.051c-0.154,-0.035 -0.308,-0.07 -0.462,-0.107l-0.101,-0.029c-0.171,-0.051 -0.341,-0.102 -0.511,-0.155l-0.044,-0.015c-0.509,-0.18 -1.016,-0.367 -1.519,-0.565l-0.107,-0.045c-0.577,-0.246 -1.149,-0.502 -1.714,-0.774c-0.126,-0.06 -0.251,-0.124 -0.375,-0.188c-0.17,-0.086 -0.339,-0.173 -0.508,-0.262c-0.329,-0.172 -0.655,-0.35 -0.98,-0.531c-0.116,-0.065 -0.232,-0.134 -0.347,-0.202c-0.163,-0.096 -0.325,-0.192 -0.487,-0.29c-0.314,-0.191 -0.626,-0.385 -0.934,-0.584c0.122,-1.333 0.354,-2.635 0.686,-3.896c0.249,0.157 0.5,0.311 0.752,0.461c0.195,0.116 0.391,0.228 0.587,0.341c0.376,0.216 0.755,0.428 1.138,0.632c0.193,0.102 0.388,0.203 0.583,0.302c0.14,0.071 0.281,0.14 0.421,0.209c0.25,0.125 0.5,0.249 0.752,0.368c0.328,0.155 0.658,0.303 0.989,0.449c0.105,0.045 0.209,0.09 0.314,0.134c0.487,0.218 0.98,0.423 1.476,0.62c0.082,0.032 0.164,0.064 0.246,0.095c0.117,0.049 0.234,0.098 0.351,0.146c0.102,0.041 0.205,0.083 0.307,0.123l0.089,0.041c0.13,0.057 0.261,0.115 0.391,0.172c-0.187,-0.102 -0.187,-0.102 -0.374,-0.205c-0.029,-0.016 -0.058,-0.031 -0.086,-0.048c-0.094,-0.056 -0.186,-0.116 -0.279,-0.175c-0.152,-0.097 -0.177,-0.114 -0.318,-0.206l-0.04,-0.027c-0.489,-0.346 -0.97,-0.701 -1.44,-1.071l-0.095,-0.078c-0.533,-0.444 -1.055,-0.902 -1.561,-1.377c-0.161,-0.151 -0.316,-0.307 -0.472,-0.463c-0.39,-0.391 -0.769,-0.792 -1.14,-1.201c-0.142,-0.157 -0.28,-0.32 -0.418,-0.482c-0.223,-0.263 -0.442,-0.529 -0.657,-0.799c-0.2,-0.252 -0.397,-0.506 -0.589,-0.764c0.622,-1.551 1.401,-3.022 2.318,-4.394l0.075,0.111c3.168,4.682 7.944,8.188 13.533,9.722c-1.029,1.347 -1.641,3.029 -1.641,4.853c0,4.416 3.585,8 8,8l0.026,0c0.655,0.005 1.273,0.167 1.818,0.45c0.078,0.032 0.155,0.067 0.23,0.105c0.114,0.057 0.225,0.119 0.33,0.19c0.329,0.22 0.605,0.51 0.823,0.839c0.095,0.142 0.178,0.291 0.253,0.444c0.331,0.582 0.52,1.255 0.52,1.972c0,0.03 0,0.06 -0.001,0.089c0,0.013 0.001,0.026 0.001,0.039l0.002,-0.013c0.053,-0.314 0.07,-0.635 0.065,-0.952c-0.006,-0.357 -0.043,-0.714 -0.121,-1.062c-0.032,-0.142 -0.072,-0.283 -0.119,-0.421c-0.145,-0.434 -0.36,-0.844 -0.648,-1.2c-0.187,-0.231 -0.403,-0.436 -0.64,-0.614c-0.139,-0.105 -0.291,-0.197 -0.445,-0.279c-0.3,-0.159 -0.62,-0.28 -0.948,-0.368c-0.233,-0.061 -0.472,-0.1 -0.71,-0.13c-0.072,-0.008 -0.143,-0.015 -0.215,-0.022c-0.105,-0.008 -0.211,-0.014 -0.317,-0.022c-0.189,-0.014 -0.379,-0.032 -0.567,-0.057c-0.184,-0.025 -0.368,-0.056 -0.55,-0.095c-0.093,-0.019 -0.185,-0.042 -0.277,-0.064c-0.115,-0.027 -0.23,-0.056 -0.345,-0.089c-0.257,-0.072 -0.51,-0.157 -0.76,-0.252c-0.086,-0.033 -0.173,-0.065 -0.259,-0.1c-0.096,-0.039 -0.191,-0.081 -0.285,-0.124c-0.09,-0.04 -0.18,-0.08 -0.269,-0.123c0.407,-0.684 0.683,-1.325 0.805,-1.872c0.759,0.464 1.65,0.731 2.603,0.731c0.956,0 1.85,-0.269 2.609,-0.735c0.283,1.269 1.396,3.046 3.048,4.701l-0.003,0.004c1.449,1.448 2.346,3.449 2.346,5.658c0,4.415 -3.585,8 -8,8l-0.078,0c-5.882,-0.019 -11.269,-2.158 -15.435,-5.693c0.025,-0.025 0.05,-0.05 0.075,-0.075c0.326,-0.325 0.65,-0.652 0.971,-0.982c0.13,-0.135 0.261,-0.268 0.391,-0.401c0.131,-0.134 0.26,-0.269 0.389,-0.403c0.128,-0.135 0.255,-0.273 0.385,-0.406c0.13,-0.133 0.26,-0.266 0.389,-0.399c0.136,-0.143 0.273,-0.285 0.408,-0.428c0.109,-0.108 0.218,-0.216 0.326,-0.324l0.047,-0.043c0.068,-0.062 0.136,-0.124 0.204,-0.187l-0.22,0.169l-0.05,0.038c-0.134,0.092 -0.244,0.167 -0.38,0.259c-0.086,0.058 -0.175,0.11 -0.263,0.165c-0.157,0.097 -0.316,0.195 -0.474,0.291c-0.094,0.058 -0.188,0.117 -0.284,0.172c-0.224,0.129 -0.45,0.256 -0.677,0.382c-0.193,0.107 -0.386,0.215 -0.581,0.319c-0.105,0.056 -0.305,0.16 -0.393,0.205c-0.32,0.166 -0.642,0.329 -0.965,0.489c-0.088,0.044 -0.178,0.086 -0.267,0.128c-0.038,0.018 -0.076,0.036 -0.114,0.054Z" style="fill:#262626;"/><path d="M21.434,11.038c0.596,-1.755 1.746,-2.945 3.066,-2.945c1.32,0 2.47,1.19 3.066,2.945c-0.847,-0.659 -1.911,-1.052 -3.066,-1.052c-1.155,0 -2.219,0.393 -3.066,1.052Z" style="fill:#262626;"/><path d="M26.5,12.714c2.318,0.547 3.983,2.017 4,3.746l0,0.026c-1.536,0 -2.938,0.386 -4,1.02l0,-4.792Z" style="fill:#262626;"/><path d="M24.5,10.986c2.208,0 4,1.793 4,4c0,2.208 -1.792,4 -4,4c-2.208,0 -4,-1.792 -4,-4c0,-2.207 1.792,-4 4,-4Zm-0.985,3.827c0.281,0.109 0.62,0.173 0.985,0.173c0.365,0 0.704,-0.064 0.985,-0.173c0.01,0.056 0.015,0.114 0.015,0.173c0,0.552 -0.448,1 -1,1c-0.552,0 -1,-0.448 -1,-1c0,-0.059 0.005,-0.117 0.015,-0.173Z" style="fill:#262626;"/></g><g id="gold"><path d="M-25.096,30.944c-0.673,-0.644 -1.309,-1.328 -1.903,-2.047c0.084,-0.06 0.168,-0.121 0.253,-0.182c0.243,-0.172 0.485,-0.344 0.725,-0.519c0.21,-0.152 0.418,-0.307 0.627,-0.461c0.114,-0.085 0.23,-0.168 0.344,-0.252c0.161,-0.119 0.322,-0.238 0.482,-0.358c0.08,-0.06 0.16,-0.12 0.24,-0.181c0.08,-0.06 0.158,-0.122 0.239,-0.18c0.161,-0.118 0.322,-0.235 0.482,-0.354c0.169,-0.125 0.338,-0.251 0.505,-0.378c0.135,-0.094 0.269,-0.188 0.404,-0.283l0.057,-0.036c0.084,-0.053 0.167,-0.106 0.25,-0.158l-0.265,0.131l-0.061,0.03l-0.21,0.089c-0.092,0.038 -0.182,0.079 -0.275,0.113c-0.279,0.102 -0.559,0.204 -0.839,0.303c-0.113,0.039 -0.225,0.081 -0.34,0.118c-0.49,0.158 -0.984,0.306 -1.478,0.449l-0.167,0.046c-0.285,0.077 -0.571,0.153 -0.857,0.226c-0.189,0.049 -0.381,0.099 -0.571,0.144c-0.238,0.055 -0.475,0.109 -0.713,0.162c-0.528,-0.754 -1.014,-1.54 -1.454,-2.353c0.067,-0.031 0.134,-0.062 0.201,-0.093c0.107,-0.049 0.213,-0.1 0.32,-0.149c0.343,-0.156 0.684,-0.313 1.024,-0.475c0.296,-0.14 0.591,-0.285 0.887,-0.425c0.197,-0.094 0.393,-0.188 0.589,-0.284c0.226,-0.11 0.451,-0.221 0.675,-0.334c0.216,-0.101 0.43,-0.204 0.645,-0.307c0.206,-0.1 0.413,-0.201 0.618,-0.303c0.163,-0.072 0.325,-0.145 0.487,-0.218c0.073,-0.028 0.146,-0.056 0.219,-0.084c0.049,-0.019 0.099,-0.038 0.149,-0.058c-0.127,0.033 -0.254,0.066 -0.381,0.099l-0.087,0.016c-0.145,0.027 -0.291,0.054 -0.437,0.081l-0.038,0.005c-0.321,0.043 -0.641,0.084 -0.962,0.123c-0.128,0.015 -0.256,0.032 -0.384,0.044c-0.247,0.024 -0.495,0.041 -0.742,0.059c0,0 0.001,0 0.001,0c-0.31,0.022 -0.62,0.044 -0.931,0.061c-0.118,0.006 -0.237,0.01 -0.355,0.014c-0.001,0 0.002,-0.001 0.002,-0.001c-0.428,0.015 -0.856,0.026 -1.284,0.034l0.002,0c-0.16,0.003 -0.319,0.002 -0.48,0.001c-0.263,-0.001 -0.526,-0.004 -0.789,-0.008c-0.369,-0.888 -0.686,-1.802 -0.948,-2.74c0.169,-0.025 0.337,-0.051 0.506,-0.077c0.128,-0.02 0.256,-0.042 0.385,-0.062c0.403,-0.063 0.806,-0.128 1.208,-0.199c0.249,-0.044 0.497,-0.092 0.745,-0.137c0.396,-0.072 0.792,-0.145 1.187,-0.223c0.211,-0.043 0.422,-0.086 0.632,-0.131c0.139,-0.026 0.276,-0.052 0.414,-0.078c0.174,-0.034 0.348,-0.069 0.522,-0.104c0.188,-0.039 0.376,-0.078 0.563,-0.119c0.192,-0.033 0.383,-0.067 0.574,-0.102l0.078,-0.01c0.116,-0.015 0.232,-0.031 0.348,-0.046c-0.117,0.003 -0.234,0.006 -0.351,0.009c-0.026,0.001 -0.052,0.002 -0.079,0.002c-0.032,-0.001 -0.064,-0.003 -0.096,-0.004c-0.162,-0.006 -0.323,-0.013 -0.484,-0.02l-0.044,-0.004l-0.176,-0.015c-0.43,-0.04 -0.861,-0.084 -1.291,-0.133l-0.108,-0.016c-0.565,-0.082 -1.13,-0.171 -1.692,-0.272c-0.127,-0.022 -0.254,-0.049 -0.381,-0.074c-0.171,-0.035 -0.342,-0.069 -0.513,-0.105c-0.33,-0.07 -0.659,-0.142 -0.988,-0.218c-0.122,-0.028 -0.244,-0.06 -0.365,-0.09c-0.224,-0.056 -0.447,-0.114 -0.67,-0.173c-0.161,-0.043 -0.323,-0.086 -0.484,-0.131c-0.182,-1.106 -0.289,-2.237 -0.314,-3.388c0.198,0.037 0.397,0.072 0.596,0.107c0.204,0.035 0.408,0.067 0.613,0.1c0.446,0.074 0.894,0.143 1.342,0.204c0.273,0.037 0.546,0.069 0.82,0.103c0.247,0.031 0.494,0.061 0.742,0.089c0.26,0.029 0.52,0.054 0.78,0.079c0.169,0.015 0.338,0.03 0.507,0.044c0.22,0.023 0.44,0.043 0.66,0.063c0.194,0.017 0.388,0.033 0.582,0.048c0.145,0.01 0.29,0.021 0.435,0.03c0.212,0.021 0.425,0.041 0.638,0.059l0.087,0.012c0.127,0.018 0.255,0.034 0.383,0.051c-0.154,-0.035 -0.308,-0.07 -0.462,-0.107l-0.101,-0.029c-0.171,-0.051 -0.341,-0.102 -0.511,-0.155l-0.044,-0.015c-0.509,-0.18 -1.016,-0.367 -1.519,-0.565l-0.107,-0.045c-0.577,-0.246 -1.149,-0.502 -1.714,-0.774c-0.126,-0.06 -0.251,-0.124 -0.375,-0.188c-0.17,-0.086 -0.339,-0.173 -0.508,-0.262c-0.329,-0.172 -0.655,-0.35 -0.98,-0.531c-0.116,-0.065 -0.232,-0.134 -0.347,-0.202c-0.163,-0.096 -0.325,-0.192 -0.487,-0.29c-0.314,-0.191 -0.626,-0.385 -0.934,-0.584c0.122,-1.333 0.354,-2.635 0.686,-3.896c0.249,0.157 0.5,0.311 0.752,0.461c0.195,0.116 0.391,0.228 0.587,0.341c0.376,0.216 0.755,0.428 1.138,0.632c0.193,0.102 0.388,0.203 0.583,0.302c0.14,0.071 0.281,0.14 0.421,0.209c0.25,0.125 0.5,0.249 0.752,0.368c0.328,0.155 0.658,0.303 0.989,0.449c0.105,0.045 0.209,0.09 0.314,0.134c0.487,0.218 0.98,0.423 1.476,0.62c0.082,0.032 0.164,0.064 0.246,0.095c0.117,0.049 0.234,0.098 0.351,0.146c0.102,0.041 0.205,0.083 0.307,0.123l0.089,0.041c0.13,0.057 0.261,0.115 0.391,0.172c-0.187,-0.102 -0.187,-0.102 -0.374,-0.205c-0.029,-0.016 -0.058,-0.031 -0.086,-0.048c-0.094,-0.056 -0.186,-0.116 -0.279,-0.175c-0.152,-0.097 -0.177,-0.114 -0.318,-0.206l-0.04,-0.027c-0.489,-0.346 -0.97,-0.701 -1.44,-1.071l-0.095,-0.078c-0.533,-0.444 -1.055,-0.902 -1.561,-1.377c-0.161,-0.151 -0.316,-0.307 -0.472,-0.463c-0.39,-0.391 -0.769,-0.792 -1.14,-1.201c-0.142,-0.157 -0.28,-0.32 -0.418,-0.482c-0.223,-0.263 -0.442,-0.529 -0.657,-0.799c-0.2,-0.252 -0.397,-0.506 -0.589,-0.764c0.622,-1.551 1.401,-3.022 2.318,-4.394l0.075,0.111c3.168,4.682 7.944,8.188 13.533,9.722c-1.029,1.347 -1.641,3.029 -1.641,4.853c0,4.416 3.585,8 8,8l0.026,0c0.655,0.005 1.273,0.167 1.818,0.45c0.078,0.032 0.155,0.067 0.23,0.105c0.114,0.057 0.225,0.119 0.33,0.19c0.329,0.22 0.605,0.51 0.823,0.839c0.095,0.142 0.178,0.291 0.253,0.444c0.331,0.582 0.52,1.255 0.52,1.972c0,0.03 0,0.06 -0.001,0.089c0,0.013 0.001,0.026 0.001,0.039l0.002,-0.013c0.053,-0.314 0.07,-0.635 0.065,-0.952c-0.006,-0.357 -0.043,-0.714 -0.121,-1.062c-0.032,-0.142 -0.072,-0.283 -0.119,-0.421c-0.145,-0.434 -0.36,-0.844 -0.648,-1.2c-0.187,-0.231 -0.403,-0.436 -0.64,-0.614c-0.139,-0.105 -0.291,-0.197 -0.445,-0.279c-0.3,-0.159 -0.62,-0.28 -0.948,-0.368c-0.233,-0.061 -0.472,-0.1 -0.71,-0.13c-0.072,-0.008 -0.143,-0.015 -0.215,-0.022c-0.105,-0.008 -0.211,-0.014 -0.317,-0.022c-0.189,-0.014 -0.379,-0.032 -0.567,-0.057c-0.184,-0.025 -0.368,-0.056 -0.55,-0.095c-0.093,-0.019 -0.185,-0.042 -0.277,-0.064c-0.115,-0.027 -0.23,-0.056 -0.345,-0.089c-0.257,-0.072 -0.51,-0.157 -0.76,-0.252c-0.086,-0.033 -0.173,-0.065 -0.259,-0.1c-0.096,-0.039 -0.191,-0.081 -0.285,-0.124c-0.09,-0.04 -0.18,-0.08 -0.269,-0.123c0.407,-0.684 0.683,-1.325 0.805,-1.872c0.759,0.464 1.65,0.731 2.603,0.731c0.956,0 1.85,-0.269 2.609,-0.735c0.283,1.269 1.396,3.046 3.048,4.701l-0.003,0.004c1.449,1.448 2.346,3.449 2.346,5.658c0,4.415 -3.585,8 -8,8l-0.078,0c-5.882,-0.019 -11.269,-2.158 -15.435,-5.693c0.025,-0.025 0.05,-0.05 0.075,-0.075c0.326,-0.325 0.65,-0.652 0.971,-0.982c0.13,-0.135 0.261,-0.268 0.391,-0.401c0.131,-0.134 0.26,-0.269 0.389,-0.403c0.128,-0.135 0.255,-0.273 0.385,-0.406c0.13,-0.133 0.26,-0.266 0.389,-0.399c0.136,-0.143 0.273,-0.285 0.408,-0.428c0.109,-0.108 0.218,-0.216 0.326,-0.324l0.047,-0.043c0.068,-0.062 0.136,-0.124 0.204,-0.187l-0.22,0.169l-0.05,0.038c-0.134,0.092 -0.244,0.167 -0.38,0.259c-0.086,0.058 -0.175,0.11 -0.263,0.165c-0.157,0.097 -0.316,0.195 -0.474,0.291c-0.094,0.058 -0.188,0.117 -0.284,0.172c-0.224,0.129 -0.45,0.256 -0.677,0.382c-0.193,0.107 -0.386,0.215 -0.581,0.319c-0.105,0.056 -0.305,0.16 -0.393,0.205c-0.32,0.166 -0.642,0.329 -0.965,0.489c-0.088,0.044 -0.178,0.086 -0.267,0.128c-0.038,0.018 -0.076,0.036 -0.114,0.054Z" style="fill:#b89766;"/></g></svg>