<?xml version="1.0" standalone="no"?>
<!DOCTYPE svg PUBLIC "-//W3C//DTD SVG 1.1//EN" "http://www.w3.org/Graphics/SVG/1.1/DTD/svg11.dtd">
<svg width="100%" height="100%" viewBox="0 0 122 91" version="1.1" xmlns="http://www.w3.org/2000/svg" xmlns:xlink="http://www.w3.org/1999/xlink" xml:space="preserve" style="fill-rule:evenodd;clip-rule:evenodd;stroke-linejoin:round;stroke-miterlimit:1.41421;">
    <g transform="matrix(0.211967,-1.99783e-33,-5.42599e-33,0.211967,29.4601,0.971384)">
        <path id="Shape" d="M233.164,15.681L208.476,15.681L234.15,43.54L234.15,56.801L181.268,56.801L181.268,41.275L206.937,41.275L181.268,13.415L181.268,0.135L233.164,0.135L233.164,15.681ZM170.786,15.681L146.098,15.681L171.771,43.54L171.771,56.801L118.889,56.801L118.889,41.275L144.561,41.275L118.889,13.415L118.889,0.135L170.786,0.135L170.786,15.681ZM109.018,16.312L82.378,16.312L82.378,40.625L109.018,40.625L109.018,56.801L63.444,56.801L63.444,0.135L109.018,0.135L109.018,16.312Z" style="fill:white;"/>
        <path id="Shape1" d="M27.142,386.29L0.071,82.67L297.521,82.67L270.425,386.241L148.614,420.011L27.142,386.29Z" style="fill:rgb(21,114,182);"/>
        <path id="Shape2" d="M148.798,394.199L247.225,366.911L270.382,107.496L148.798,107.496L148.798,394.199Z" style="fill:rgb(51,169,220);"/>
        <g id="Group" transform="matrix(1,0,0,1,55,142)">
            <path id="Shape3" d="M93.848,210.996L93.857,172.25L52.385,161.051L49.733,131.353L12.354,131.353L17.57,189.82L93.848,210.996Z" style="fill:rgb(235,235,235);"/>
            <g id="Shape4" transform="matrix(1.18225,0,0,1,-0.117548,0)">
                <path d="M93.926,0.125L93.926,37.364L3.979,37.364L0.645,0.125L93.926,0.125Z" style="fill:rgb(235,235,235);"/>
            </g>
            <g id="Shape5" transform="matrix(1.38683,0,0,1,-19.154,0)">
                <path d="M93.797,75.5L93.797,112.738L52.85,112.738L49.516,75.5L93.797,75.5Z" style="fill:rgb(235,235,235);"/>
            </g>
        </g>
        <path d="M194.765,254.732L148.797,254.732L148.797,217.496L198.072,217.496L201.475,179.364L148.797,179.364L148.797,142.125L242.172,142.125L225.23,331.82L148.796,352.996L148.796,314.236L190.423,303.026L194.765,254.732Z" style="fill:white;"/>
    </g>
</svg>
