<?xml version="1.0" standalone="no"?>
<!DOCTYPE svg PUBLIC "-//W3C//DTD SVG 1.1//EN" "http://www.w3.org/Graphics/SVG/1.1/DTD/svg11.dtd">
<svg width="100%" height="100%" viewBox="0 0 122 91" version="1.1" xmlns="http://www.w3.org/2000/svg" xmlns:xlink="http://www.w3.org/1999/xlink" xml:space="preserve" style="fill-rule:evenodd;clip-rule:evenodd;stroke-linejoin:round;stroke-miterlimit:1.41421;">
    <g transform="matrix(1.01694,0,-4.93038e-32,1.01694,-0.01734,-0.263107)">
        <path d="M101.694,51.611C97.967,51.611 94.606,52.537 91.708,53.986C88.854,48.923 89.099,45.591 89.099,45.591C89.099,44.599 89.048,44.22 89.578,42.287C90.104,40.353 90.523,40.195 90.572,38.911C90.622,37.627 87.513,37.701 87.513,37.701C82.719,37.333 82.878,40.368 82.878,40.368C82.878,40.368 82.488,43.158 80.096,47.433C78.867,49.629 77.064,52.746 75.117,55.873C74.104,54.096 73.152,50.598 73.181,49.066C73.214,47.337 74.361,43.291 74.525,42.998C74.688,42.704 75.607,41.04 71.378,41.203C67.151,41.367 67.315,42.509 67.216,42.965C67.118,43.422 66.857,44.302 66.169,46.391C65.48,48.478 56.96,66.848 56.075,68.609C55.19,70.37 55.059,70.044 54.959,68.25C54.861,66.457 57.973,55.461 57.973,55.461C58.958,52.491 55.845,52.327 55.845,52.327C55.262,52.459 54.689,52.753 54.14,53.256C54.152,53.209 54.162,53.158 54.173,53.111C55.877,44.955 50.502,45.543 50.502,45.543C45.848,45.571 42.399,48.82 40.002,52.821C37.475,54.123 33.1,56.4 28.38,58.966C27.881,58.394 25.348,55.621 19.694,51.611C13.402,46.424 9.862,43.194 9.862,37.615C10.157,26.358 34.246,8.839 56.073,8.055C56.073,8.055 68.953,8.055 68.953,16.081C68.953,24.107 55.483,37.615 40.046,37.615C40.046,37.615 33.661,37.899 29.63,33.887C28.973,33.23 28.84,33.364 28.84,33.364C28.84,33.364 28.254,33.19 28.254,34.169C28.254,34.169 29.295,41.428 41.832,41.428C60.662,41.428 75.302,29.196 75.302,15.445C75.302,15.445 76.592,1.002 54.502,1.002C34.051,1 1.015,20.158 1.015,36.797C1.015,36.797 -0.102,44.79 17.203,56.274C21.568,59.373 21.26,59.13 24.118,61.315C19.791,63.732 15.561,66.214 12.55,68.248C12.55,68.248 4.883,73.339 4.883,80.713C4.883,88.085 9.799,89 13.468,89C17.795,89 32.085,85.444 32.085,69.815C32.085,69.815 32.501,65.554 30.512,62.05C31.512,61.375 34.735,59.67 37.459,58.26C36.151,61.872 35.573,65.247 35.623,66.815C35.559,69.751 36.083,77.516 41.785,78.235C44.768,78.611 47.554,73.947 49.777,68.248C49.104,77.275 52.896,76.604 52.896,76.604C58.27,76.668 68.006,51.057 68.006,51.057C67.944,54.236 71.212,60.411 71.631,61.187C70.915,62.21 70.212,63.164 69.542,64.006C65.938,68.541 62.955,71.347 62.955,73.175C62.955,75.001 65.971,75.033 65.971,75.033C65.971,75.033 78.196,74.087 78.196,65.408C77.967,60.706 76.853,59.6 76.853,59.6C76.853,59.6 81.958,52.132 83.962,47.718C84.45,51.024 86.488,55.595 87.129,56.973C82.876,60.499 80.392,65.008 80.312,68.052C80.312,70.629 82.227,71.186 83.144,71.186C84.062,71.186 84.659,71.082 87.563,69.802C91.699,67.98 94.158,64.497 94.158,61.689C94.158,58.879 93.111,56.994 93.111,56.994C93.111,56.994 95.407,55.543 101.632,55.395C116.25,55.395 116.557,65.117 116.557,65.117C116.483,68.653 113.066,70.55 112.661,70.817C112.256,71.086 112.341,71.43 112.451,71.637C112.561,71.845 112.881,71.772 112.881,71.772C117.576,70.549 119.002,66.683 119.002,64.285C118.065,50.584 101.694,51.611 101.694,51.611ZM24.61,76.666C22.514,80.256 12.026,87.498 11.632,79.995C11.238,72.492 26.512,64.398 26.512,64.398C28.283,68.968 26.709,73.079 24.61,76.666ZM42.47,71.373C40.964,70.679 41.336,64.508 41.733,62.54C42.221,59.727 46.78,49.228 50.566,50.582C51.122,50.875 51.188,51.985 49.861,55.277C48.233,60.646 44.337,72.233 42.47,71.373ZM71.279,69.193C69.279,71.704 66.527,72.587 67.052,71.966C67.575,71.345 72.393,65.701 72.786,65.081C72.787,65.082 73.278,66.682 71.279,69.193ZM87.767,65.412C85.882,68.266 83.932,68.315 83.899,68.071C83.686,67.516 83.719,64.139 88.39,59.882C88.39,59.882 89.651,62.557 87.767,65.412Z" style="fill:rgb(204,102,153);fill-rule:nonzero;"/>
    </g>
</svg>
