<?xml version="1.0" standalone="no"?>
<!DOCTYPE svg PUBLIC "-//W3C//DTD SVG 1.1//EN" "http://www.w3.org/Graphics/SVG/1.1/DTD/svg11.dtd" >
<svg>
<metadata>
Created by FontForge 20120731 at Wed Jun 18 22:37:01 2014
 By segun
Copyright (c) 2014 by Segundo Fdez. All rights reserved.
</metadata>
<defs>
<font id="siconfont" horiz-adv-x="1000" >
  <font-face 
    font-family="siconfont"
    font-weight="400"
    font-stretch="normal"
    units-per-em="1000"
    panose-1="2 0 0 0 0 0 0 0 0 0"
    ascent="750"
    descent="-250"
    bbox="-1 -251 1002 793"
    underline-thickness="0"
    underline-position="10"
    unicode-range="U+000D-F2EE"
  />
<missing-glyph horiz-adv-x="500" 
 />
    <glyph glyph-name=".notdef" horiz-adv-x="500" 
 />
    <glyph glyph-name="NULL" horiz-adv-x="0" 
 />
    <glyph glyph-name="NULL" horiz-adv-x="0" 
 />
    <glyph glyph-name="nonmarkingreturn" unicode="&#xd;" horiz-adv-x="500" 
 />
    <glyph glyph-name="space" unicode=" " horiz-adv-x="500" 
 />
    <glyph glyph-name="sicon-circle-plus" unicode="&#xe004;" 
d="M500 750q103 0 194.5 -39.5t159 -107t107 -159t39.5 -194.5q0 -69 -18 -133t-50.5 -119.5t-78 -101t-101 -78t-119.5 -50.5t-133 -18t-133 18t-119.5 50.5t-101 78t-78 101t-50.5 119.5t-18 133t18 133t50.5 119.5t78 101t101 78t119.5 50.5t133 18zM781 313h-218v218
h-125v-218h-219v-125h219v-219h125v219h218v125z" />
    <glyph glyph-name="sicon-circle-multi" unicode="&#xe005;" 
d="M147 -104q-73 73 -109.5 165t-36.5 188t36.5 188.5t109.5 165.5t165 109.5t188 36.5t188.5 -36.5t165.5 -109.5t109.5 -165.5t36.5 -188.5t-36.5 -188t-109.5 -165t-165.5 -109.5t-188.5 -36.5t-188 36.5t-165 109.5zM257 403l154 -154l-154 -154l89 -88l154 154
l155 -155l88 88l-155 155l155 155l-88 89l-155 -155l-154 154z" />
    <glyph glyph-name="sicon-circle-minus" unicode="&#xe006;" 
d="M500 750q103 0 194.5 -39.5t159 -107t107 -159t39.5 -194.5q0 -69 -18 -133t-50.5 -119.5t-78 -101t-101 -78t-119.5 -50.5t-133 -18t-133 18t-119.5 50.5t-101 78t-78 101t-50.5 119.5t-18 133t18 133t50.5 119.5t78 101t101 78t119.5 50.5t133 18zM781 313h-562v-125
h562v125z" />
    <glyph glyph-name="sicon-circle-ok" unicode="&#xe007;" 
d="M500 750q103 0 194.5 -39.5t159 -107t107 -159t39.5 -194.5q0 -69 -18 -133t-50.5 -119.5t-78 -101t-101 -78t-119.5 -50.5t-133 -18t-133 18t-119.5 50.5t-101 78t-78 101t-50.5 119.5t-18 133t18 133t50.5 119.5t78 101t101 78t119.5 50.5t133 18zM781 405l-88 88
l-272 -272l-114 114l-88 -88l202 -203z" />
    <glyph glyph-name="sicon-plus" unicode="&#xe000;" 
d="M1000 375v-250h-375v-375h-250v375h-375v250h375v375h250v-375h375v0z" />
    <glyph glyph-name="sicon-multi" unicode="&#xe001;" 
d="M942 515l-266 -265l266 -265l-177 -177l-265 265l-265 -265l-177 177l265 265l-265 265l177 177l265 -265l265 265z" />
    <glyph glyph-name="sicon-minus" unicode="&#xe002;" 
d="M1000 125h-1000v250h1000v-250z" />
    <glyph glyph-name="sicon-ok" unicode="&#xe003;" horiz-adv-x="999" 
d="M845 700l155 -154l-641 -641l-359 359l155 155l204 -205l486 486v0z" />
    <glyph glyph-name="sicon-circle-tri-t" unicode="&#xe008;" 
d="M0 250q0 69 18 133t50.5 119.5t78 101t101 78t119.5 50.5t133 18q103 0 194.5 -39.5t159 -107t107 -159t39.5 -194.5q0 -69 -18 -133t-50.5 -119.5t-78 -101t-101 -78t-119.5 -50.5t-133 -18t-133 18t-119.5 50.5t-101 78t-78 101t-50.5 119.5t-18 133zM500 558
l-300 -450h600z" />
    <glyph glyph-name="sicon-circle-tri-r" unicode="&#xe009;" 
d="M500 750q103 0 194.5 -39.5t159 -107t107 -159t39.5 -194.5q0 -69 -18 -133t-50.5 -119.5t-78 -101t-101 -78t-119.5 -50.5t-133 -18t-133 18t-119.5 50.5t-101 78t-78 101t-50.5 119.5t-18 133t18 133t50.5 119.5t78 101t101 78t119.5 50.5t133 18zM808 250l-450 300
v-600z" />
    <glyph glyph-name="sicon-circle-tri-b" unicode="&#xe00a;" 
d="M1000 250q0 -69 -18 -133t-50.5 -119.5t-78 -101t-101 -78t-119.5 -50.5t-133 -18t-133 18t-119.5 50.5t-101 78t-78 101t-50.5 119.5t-18 133t18 133t50.5 119.5t78 101t101 78t119.5 50.5t133 18q103 0 194.5 -39.5t159 -107t107 -159t39.5 -194.5zM500 -58l300 450
h-600z" />
    <glyph glyph-name="sicon-circle-tri-l" unicode="&#xe00b;" 
d="M500 -250q-69 0 -133 18t-119.5 50.5t-101 78t-78 101t-50.5 119.5t-18 133t18 133t50.5 119.5t78 101t101 78t119.5 50.5t133 18q103 0 194.5 -39.5t159 -107t107 -159t39.5 -194.5q0 -69 -18 -133t-50.5 -119.5t-78 -101t-101 -78t-119.5 -50.5t-133 -18zM192 250
l450 -300v600z" />
    <glyph glyph-name="sicon-triangle-t" unicode="&#xe00c;" 
d="M1000 -113h-1000l500 813l500 -813v0z" />
    <glyph glyph-name="sicon-triangle-b" unicode="&#xe00e;" horiz-adv-x="1001" 
d="M0 698h1000l-500 -813z" />
    <glyph glyph-name="sicon-triangle-r" unicode="&#xe00d;" horiz-adv-x="1001" 
d="M108 -207l-1 1000l813 -500z" />
    <glyph glyph-name="sicon-triangle-l" unicode="&#xe00f;" horiz-adv-x="1001" 
d="M894 793l1 -1000l-813 500z" />
    <glyph glyph-name="sicon-triangle-lt" unicode="&#xe010;" 
d="M1000 -250h-1000l500 1000l500 -1000v0z" />
    <glyph glyph-name="sicon-triangle-lb" unicode="&#xe012;" horiz-adv-x="1001" 
d="M0 750h1000l-500 -1000z" />
    <glyph glyph-name="sicon-triangle-lr" unicode="&#xe011;" horiz-adv-x="1001" 
d="M0 -250v1000l1000 -500z" />
    <glyph glyph-name="sicon-triangle-ll" unicode="&#xe013;" horiz-adv-x="1001" 
d="M1000 750v-1000l-1000 500z" />
    <glyph glyph-name="sicon-arrow-t" unicode="&#xe014;" 
d="M1000 108l-178 -178l-322 322l-322 -322l-178 178l500 500l500 -500v0z" />
    <glyph glyph-name="sicon-arrow-r" unicode="&#xe015;" 
d="M339 -250l-178 178l322 322l-322 322l178 178l500 -500z" />
    <glyph glyph-name="sicon-arrow-b" unicode="&#xe016;" horiz-adv-x="1001" 
d="M0 393l178 178l322 -322l322 322l178 -178l-500 -500z" />
    <glyph glyph-name="sicon-arrow-l" unicode="&#xe017;" horiz-adv-x="1001" 
d="M661 750l178 -178l-322 -322l322 -322l-178 -178l-500 500z" />
    <glyph glyph-name="sicon-arrow-lt" unicode="&#xe018;" 
d="M500 251l-250 -375h-250l500 750l500 -750h-250l-250 375v0z" />
    <glyph glyph-name="sicon-arrow-lb" unicode="&#xe01a;" horiz-adv-x="1001" 
d="M750 624h250l-500 -750l-500 750h250l250 -375z" />
    <glyph glyph-name="sicon-arrow-lr" unicode="&#xe019;" horiz-adv-x="1001" 
d="M125 500v250l750 -500l-750 -500v250l375 250z" />
    <glyph glyph-name="sicon-arrow-ll" unicode="&#xe01b;" horiz-adv-x="1001" 
d="M875 0v-250l-750 500l750 500v-250l-375 -250z" />
    <glyph glyph-name="sicon-triangle-nt" unicode="&#xe01c;" 
d="M0 750h1000v-1000l-500 750l-500 -750v1000v0z" />
    <glyph glyph-name="sicon-triangle-nb" unicode="&#xe01e;" 
d="M0 -250v1000l500 -750l500 750v-1000h-1000z" />
    <glyph glyph-name="sicon-triangle-nr" unicode="&#xe01d;" 
d="M1000 -250h-1000l750 500l-750 500h1000v-1000z" />
    <glyph glyph-name="sicon-triangle-nl" unicode="&#xe01f;" 
d="M0 750h1000l-750 -500l750 -500h-1000v1000z" />
    <glyph glyph-name="sicon-triangle-nlt" unicode="&#xe020;" 
d="M0 -250v1000h500zM500 750h500v-1000z" />
    <glyph glyph-name="sicon-triangle-nlb" unicode="&#xe022;" 
d="M1000 -250h-500l500 1000v-1000zM0 -250v1000l500 -1000h-500z" />
    <glyph glyph-name="sicon-triangle-nlr" unicode="&#xe021;" 
d="M1000 750v-500l-1000 500h1000zM1000 -250h-1000l1000 500v-500z" />
    <glyph glyph-name="sicon-triangle-nll" unicode="&#xe023;" 
d="M0 -250v500l1000 -500h-1000zM0 750h1000l-1000 -500v500z" />
    <glyph glyph-name="sicon-page-new" unicode="&#xf21c;" 
d="M906 469v-1v-718h-812v1000h531l281 -281v0v0v0zM156 -188h688v594h-282v281h-406v-875z" />
    <glyph glyph-name="sicon-page-plus" unicode="&#xf21d;" 
d="M906 469v-1v-718h-812v1000h531zM156 -188h688v594h-282v281h-406v-875zM719 172v-94h-172v-172h-94v172h-172v94h172v172h94v-172h172z" />
    <glyph glyph-name="sicon-page-list" unicode="&#xf21e;" 
d="M906 469v-1v-718h-812v1000h531zM156 -188h688v594h-282v281h-406v-875zM250 312h500v-62h-500v62zM250 94v62h500v-62h-500zM250 -63v63h500v-63h-500z" />
    <glyph glyph-name="sicon-page-ok" unicode="&#xf21f;" 
d="M431 578l156 -156l265 265l87 -87l-354 -353l-86 86v0l-157 156zM811 -188v482l62 63v-607h-812v1000h531l74 -74l-44 -44l-56 55h-443v-875h688z" />
    <glyph glyph-name="sicon-page-edit" unicode="&#xf220;" 
d="M884 707l68 -67l-16 -83l-79 -79l16 84l-67 67l-84 -16l79 78zM245 1l37 171l393 393l84 17l67 -67l-17 -84l-393 -393zM316 158l-10 -53l43 -43l54 10l10 54l-43 43zM798 -188v482l63 63v-607h-813v1000h531l74 -74l-44 -44l-55 55h-443v-875h687z" />
    <glyph glyph-name="sicon-page-del" unicode="&#xf221;" 
d="M780 -188v366l63 -60v-368h-813v1000h477l-63 -63h-351v-875h687zM969 600l-133 -133l133 -134l-86 -86l-134 133l-133 -133l-87 86l133 134l-133 133l87 87l133 -133l134 133z" />
    <glyph glyph-name="sicon-page-minus" unicode="&#xf21b;" 
d="M906 468v-718h-812v1000h531l281 -281v-1zM844 -188v594h-282v281h-406v-875h688zM719 78h-438v94h438v-94z" />
    <glyph glyph-name="sicon-page-mnew" unicode="&#xf222;" 
d="M1000 750v-1000h-1000v1000h1000zM937 -188v875h-875v-875h875z" />
    <glyph glyph-name="sicon-page-mlist" unicode="&#xf224;" 
d="M1000 750v-1000h-1000v1000h1000zM937 -188v875h-875v-875h875zM750 437v-62h-500v62h500zM750 281v-62h-500v62h500zM750 62h-500v63h500v-63z" />
    <glyph glyph-name="sicon-page-mplus" unicode="&#xf223;" 
d="M1000 750v-1000h-1000v1000h1000zM937 -188v875h-875v-875h875zM281 203v94h172v172h94v-172h172v-94h-172v-172h-94v172h-172z" />
    <glyph glyph-name="sicon-page-mok" unicode="&#xf225;" 
d="M202 273l88 88l156 -156l265 265l87 -87l-353 -353zM1000 750v-1000h-1000v1000h1000zM937 -188v875h-875v-875h875z" />
    <glyph glyph-name="sicon-page-medit" unicode="&#xf226;" 
d="M725 408l-67 67l-84 -16l79 78l83 16l67 -67l-16 -83l-78 -79zM368 -16l-172 -38l38 171l293 294l84 17l67 -68l-17 -83zM268 104l-10 -53l43 -43l53 10l11 53l-43 44zM1000 750v-1000h-1000v1000h1000zM937 -188v875h-875v-875h875z" />
    <glyph glyph-name="sicon-page-mdel" unicode="&#xf227;" 
d="M280 117l133 133l-133 133l87 87l133 -133l133 133l87 -87l-133 -133l133 -133l-87 -87l-133 133l-133 -133zM1000 750v-1000h-1000v1000h1000zM937 -188v875h-875v-875h875z" />
    <glyph glyph-name="sicon-page-mminus" unicode="&#xf228;" 
d="M1000 750v-1000h-1000v1000h1000zM937 687h-875v-875h875v875zM281 297h438v-94h-438v94z" />
    <glyph glyph-name="sicon-center" unicode="&#xf264;" 
d="M0 -250v1000h125v-1000h-125zM250 -250v1000h500v-1000h-500zM875 750h125v-1000h-125v1000z" />
    <glyph glyph-name="sicon-aside" unicode="&#xf265;" 
d="M625 -250h-625v1000h625v-1000v0zM1000 -250h-250v1000h250v-1000v0z" />
    <glyph glyph-name="sicon-grid" unicode="&#xf266;" 
d="M0 500v250h250v-250h-250zM375 500v250h250v-250h-250zM750 750h250v-250h-250v250zM0 125v250h250v-250h-250zM375 125v250h250v-250h-250zM750 125v250h250v-250h-250zM0 -250v250h250v-250h-250zM375 -250v250h250v-250h-250zM750 -250v250h250v-250h-250z" />
    <glyph glyph-name="sicon-file" unicode="&#xf267;" 
d="M0 500v250h1000v-250h-1000v0zM0 125v250h1000v-250h-1000v0zM0 -250v250h1000v-250h-1000v0z" />
    <glyph glyph-name="sicon-column" unicode="&#xf268;" 
d="M750 750h250v-1000h-250v1000v0zM375 750h250v-1000h-250v1000v0zM0 750h250v-1000h-250v1000v0z" />
    <glyph glyph-name="sicon-two-column-h" unicode="&#xf269;" 
d="M437 -250h-437v1000h437v-1000v0zM1000 -250h-438v1000h438v-1000v0z" />
    <glyph glyph-name="sicon-two-column-v" unicode="&#xf26a;" 
d="M0 750h1000v-438h-1000v438zM0 -250v437h1000v-437h-1000z" />
    <glyph glyph-name="sicon-grid-four" unicode="&#xf26b;" 
d="M0 312v438h437v-438h-437zM562 750h438v-438h-438v438zM0 -250v437h437v-437h-437zM562 -250v437h438v-437h-438z" />
    <glyph glyph-name="sicon-top" unicode="&#xf26c;" 
d="M0 -250v625h1000v-625h-1000zM0 750h1000v-250h-1000v250z" />
    <glyph glyph-name="sicon-bottom" unicode="&#xf26d;" 
d="M1000 125h-1000v625h1000v-625zM0 -250v250h1000v-250h-1000z" />
    <glyph glyph-name="sicon-aside-l" unicode="&#xf26e;" 
d="M375 750h625v-1000h-625v1000zM0 750h250v-1000h-250v1000z" />
    <glyph glyph-name="sicon-social-linkedin" unicode="&#xf2df;" 
d="M1000 750v-1000h-1000v1000h1000zM310 391h-146v-466h146v466zM236 448q37 0 57.5 21t20.5 52q0 30 -20.5 51t-56.5 21q-35 0 -55.5 -21t-20.5 -51q0 -31 20.5 -52t54.5 -21zM867 200q0 51 -12.5 89t-35 63t-52.5 37t-66 12q-30 0 -53.5 -7.5t-41.5 -19t-30 -24.5
t-19 -25h-3l-7 66h-125q1 -32 2.5 -68.5t1.5 -79.5v-318h144v268q0 16 4.5 32.5t14 29.5t24.5 21t36 8q39 0 56 -27.5t17 -72.5v-259h145v275z" />
    <glyph glyph-name="sicon-social-yt" unicode="&#xf2e0;" 
d="M262 493l-76 257h66l39 -172h5l40 172h66l-77 -249v-174h-63v166zM400 567q0 39 21 60t61 21q37 0 59 -23t22 -61v-161q0 -37 -22.5 -60.5t-60.5 -23.5t-59 25t-21 61v162zM458 401q0 -12 4 -20t18 -8t20.5 5.5t6.5 22.5v169q0 25 -25 25q-12 0 -18 -7.5t-6 -17.5v-169z
M649 325q-22 0 -31 15.5t-9 37.5v264h57v-245q0 -8 5 -13.5t13 -5.5q9 0 18 9l14 14v241h56v-315h-56v35q-28 -37 -67 -37zM748 63q14 0 16 -7.5t2 -20.5v-25h-38v25q0 9 4 18.5t16 9.5zM579 63q11 0 15 -7.5t4 -17.5v-133q0 -8 -2.5 -15t-13.5 -7q-14 0 -19 11v161q2 2 7 5
t9 3zM878 159q3 -70 3 -145t-3 -146q0 -24 -9 -44t-25 -35t-36.5 -23.5t-43.5 -8.5q-130 -6 -264 -6t-264 6q-23 0 -44 8.5t-36.5 23.5t-25 35t-9.5 44q-2 71 -2 146t2 145q0 22 9.5 42t25 35t36.5 24t44 9q130 5 264 5t264 -5q23 0 43.5 -9t36.5 -24t25 -35t9 -42zM286 141
h52v49h-161v-49h56v-295h53v295zM468 99h-44v-194q-13 -15 -29 -15q-7 0 -8.5 4t-1.5 11v194h-47v-209q0 -22 6.5 -34.5t26.5 -12.5q15 0 29 10.5t24 21.5v-29h44v253zM645 40q0 15 -2 27t-9 20q-12 17 -34 17q-11 0 -21 -7.5t-16 -16.5v110h-48v-344h48v19q5 -10 16 -16
t23 -6q23 0 33 15.5t10 38.5v143zM816 32q0 30 -16 52t-50 22q-32 0 -51.5 -20.5t-19.5 -53.5v-112q0 -15 4 -29t12.5 -25.5t21.5 -18.5t31 -7q34 0 51 23t17 57v20h-50v-20q0 -11 -2.5 -24t-15.5 -13t-16.5 12t-3.5 25v49h88v63z" />
    <glyph glyph-name="sicon-social-yt-fa" unicode="&#xf2e1;" 
d="M789 602q43 0 81.5 -27.5t67.5 -75.5t45.5 -112t16.5 -137t-16.5 -137t-45.5 -112t-67.5 -75.5t-81.5 -27.5h-580q-44 0 -82 27.5t-66 75.5t-44.5 112t-16.5 137t16.5 137t44.5 112t66 75.5t82 27.5h580zM737 250l-350 233v-466z" />
    <glyph glyph-name="sicon-social-github" unicode="&#xf2e2;" 
d="M994 263q-32 7 -83 11.5t-135 2.5l-3 -17q14 0 38 -1t54 -4.5t63.5 -9t65.5 -14.5q2 -1 1.5 -6t-4.5 -5q-32 11 -66 17.5t-64 9.5t-54 4.5t-36 3.5q-14 -28 -35.5 -46t-47 -29.5t-54.5 -17t-58 -7.5q12 -8 20.5 -18t13.5 -23.5t7 -32t2 -45.5v-93q0 -9 6 -16.5
t13.5 -12.5t13.5 -9.5t6 -7.5q-2 -3 -7.5 -5t-13 -2.5t-15.5 0t-13 2.5q-14 5 -20.5 14t-9.5 17q-4 10 -3 20v106q-2 9 -6 17q-3 6 -7.5 11.5t-10.5 5.5v-148q0 -12 4.5 -21t9.5 -15.5t9.5 -10.5t4.5 -7q0 -9 -6 -9.5t-14 2.5t-16 8.5t-12 9.5q-10 9 -14 23t-5 37t0 56.5
t1 82.5h-31q2 -43 3 -80q0 -32 -1.5 -61t-6.5 -40q-6 -14 -15.5 -23.5t-18.5 -14t-15.5 -3.5t-6.5 8q0 4 3 6t7 4.5t8.5 7.5t7.5 15q2 8 1.5 36.5t-0.5 59.5q-1 36 -1 80q-7 -3 -12 -8t-8.5 -11.5t-3.5 -17.5v-114q0 -11 -6 -19.5t-15 -14.5t-19 -9.5t-18 -3.5q-6 0 -14 2.5
t-8 6.5q0 5 6 9t13.5 9.5t13.5 12t6 15.5v89l-14 -2q-6 -1 -14.5 -1.5t-17.5 -0.5q-25 0 -42.5 7t-29 17t-18 21.5t-9.5 21.5q-11 22 -23 35t-26 20q-9 5 -9 11.5t9 8.5q22 3 37 -7t27.5 -24.5t23.5 -28.5t25 -19q23 -6 46 -4.5t39 8.5q0 18 10.5 33.5t24.5 26.5
q-28 0 -56 6t-53.5 18t-47.5 31t-37 45q-78 -4 -127.5 -11.5t-83.5 -18.5q-5 -1 -9 -2.5t-4 1.5t3 4t10 3q32 8 82.5 18.5t126.5 10.5q-5 3 -6.5 8t-1.5 9q-17 1 -45.5 0.5t-59.5 -3t-60 -5.5t-45 -6q-5 0 -4 2t4 3q16 4 44.5 7t59.5 5t59 2.5t43 0.5q-15 60 -9.5 117
t42.5 108q-8 28 -7 51t5 40q4 19 12 35q14 1 32 -3q16 -4 39 -15t55 -33q18 7 46.5 11t60 4.5t61.5 -2t51 -9.5q14 8 32 17.5t35.5 17t33.5 11.5t26 1q6 -10 12 -37.5t-4 -81.5q14 -14 25.5 -41t18.5 -59.5t7 -67t-10 -64.5q84 0 134 -4t82 -11q3 0 4 -2.5t-4 -2.5zM186 107
q-6 0 -7 4.5t0.5 10.5t4 12.5t2.5 11.5q0 -5 2 -11.5t3.5 -12.5t1 -10.5t-6.5 -4.5z" />
    <glyph glyph-name="sicon-social-bitbucket" unicode="&#xf2e3;" 
d="M500 750q87 0 166 -9.5t138 -26t94 -39.5t35 -50q-21 -170 -42 -283t-41 -186q-6 -24 -35 -45t-75.5 -37t-108 -25t-131.5 -9q-75 0 -138 9t-110 25t-76.5 37t-36.5 45q2 -13 0 0.5t-6.5 44t-11.5 73.5t-14.5 90.5t-15.5 94t-14.5 83.5t-11.5 60t-6 23q0 27 34.5 50
t94.5 39.5t140 26t172 9.5zM500 128q30 0 56.5 11t46 30.5t31 46t11.5 56.5t-11.5 56.5t-31 46t-46 31t-56.5 11.5t-56.5 -11.5t-46 -31t-30.5 -46t-11 -56.5t11 -56.5t30.5 -46t46 -30.5t56.5 -11zM500 561q57 0 108 5t89.5 13.5t60.5 20t22 25.5q0 16 -22 29.5t-60.5 23
t-89.5 14.5t-108 5q-62 0 -114.5 -5t-91 -14.5t-60.5 -23t-22 -29.5q0 -14 22 -25.5t60.5 -20t91 -13.5t114.5 -5zM500 336q27 0 44.5 -18.5t17.5 -45.5q0 -26 -17.5 -44.5t-44.5 -18.5t-45 18.5t-18 44.5q0 27 18 45.5t45 18.5zM500 -44q61 0 114.5 7t96.5 19t74 28.5
t48 36.5q-6 -60 -17.5 -107.5t-18.5 -81.5q-6 -24 -30.5 -43.5t-63.5 -33.5t-90.5 -22t-112.5 -8q-65 0 -118 9t-91.5 24t-61.5 34.5t-26 39.5q-14 34 -23 81.5t-22 107.5q41 -39 129.5 -65t212.5 -26z" />
    <glyph glyph-name="sicon-social-flickr" unicode="&#xf2e4;" 
d="M477 251q0 -50 -19.5 -93.5t-52 -75.5t-76 -50t-91.5 -18q-51 0 -94.5 18t-75.5 50t-50 75.5t-18 93.5q0 48 18 91t50 76t75.5 52.5t94.5 19.5q48 0 91.5 -19.5t76 -52.5t52 -76t19.5 -91zM1002 251q0 -50 -19.5 -93.5t-52 -75.5t-75.5 -50t-91 -18q-51 0 -95 18t-76 50
t-50.5 75.5t-18.5 93.5q0 48 18.5 91t50.5 76t76 52.5t95 19.5q48 0 91 -19.5t75.5 -52.5t52 -76t19.5 -91z" />
    <glyph glyph-name="sicon-social-pinterest" unicode="&#xf2e5;" 
d="M498 750q105 0 196.5 -39t159.5 -107t107 -159t39 -196q0 -104 -39 -195t-107 -159t-159.5 -107t-196.5 -39q-69 0 -142 18q17 22 30.5 51t21.5 59q3 8 9 30.5t12 45.5q7 27 16 58q14 -24 47.5 -42.5t73.5 -18.5q60 0 109.5 25.5t85 71.5t54.5 109t19 137q0 56 -22 108.5
t-63 93t-99 64.5t-130 24q-89 0 -156.5 -29.5t-113 -75.5t-68.5 -102t-23 -109q0 -31 6 -60.5t19 -54.5t33.5 -44.5t48.5 -30.5q8 -5 13.5 0t8.5 12q3 8 6.5 17t5.5 18.5t0.5 18.5t-8.5 16q-15 17 -23.5 41t-8.5 56q0 47 17 90t48.5 76t77 52.5t102.5 19.5q52 0 91 -14
t65 -39.5t39.5 -60.5t13.5 -76q0 -54 -11.5 -102.5t-32.5 -85t-50.5 -58t-65.5 -21.5q-20 0 -36 8t-27 21t-15 30t1 36q6 25 13 49.5t14 47.5t11.5 43.5t4.5 38.5q0 30 -16.5 53.5t-50.5 23.5q-20 0 -37.5 -10.5t-30.5 -28.5t-21 -42t-8 -51q0 -17 2.5 -31t5.5 -25
q4 -12 8 -22q-16 -66 -28 -121q-6 -24 -11.5 -47.5t-10 -44t-7.5 -36.5t-4 -23q-8 -30 -9.5 -59.5t-1.5 -58.5q-66 29 -121.5 76t-95.5 107t-62 130.5t-22 147.5q0 105 39 196t107 159t158.5 107t194.5 39z" />
    <glyph glyph-name="sicon-social-face" unicode="&#xf2e6;" 
d="M1000 750v-1000h-1000v1000h1000zM725 406v98q0 26 18 36t44 10q13 0 25.5 -2t22.5 -4q11 -3 21 -5l20 128q-15 3 -36 7q-19 2 -47 4.5t-68 2.5q-51 0 -81 -17t-51 -46q-11 -13 -16.5 -29.5t-8 -33.5t-3 -33.5t-0.5 -30.5v-85h-87v-122h87v-427h160v427h124l9 122h-133z
" />
    <glyph glyph-name="sicon-social-gplus" unicode="&#xf2e7;" 
d="M76 402q-6 29 -4 62.5t15 62t37.5 47.5t63.5 19q60 0 104.5 -55t67.5 -148q7 -29 4 -59t-16.5 -55t-38 -41t-58.5 -16q-72 0 -116 49t-59 134zM0 203q35 -35 81.5 -48.5t106.5 -13.5v-64q0 -23 2 -37t14 -25h-16q-116 0 -188 -46v234zM313 -78q20 -11 44.5 -28.5
t45.5 -35.5t35.5 -35t14.5 -26v-31v-16h-329q-35 0 -66 21t-42 56q23 48 79 79t140 31q24 0 39 -2t39 -13zM860 406h140v-532q0 -23 -11 -45t-28.5 -39.5t-40 -28.5t-45.5 -11h-282v31q0 41 -6.5 72t-22.5 58.5t-43 55.5t-68 63q-14 11 -30 22.5t-30 23.5t-23.5 24.5
t-9.5 24.5q0 6 2.5 12t9.5 14t19 20.5t32 31.5q46 47 77 95.5t31 107.5q0 48 -19.5 92t-42.5 79h47l108 110h-373q-72 0 -137.5 -23t-113.5 -71v32q0 23 11 45.5t28.5 40t39.5 28.5t45 11h751q23 0 45.5 -11t40 -28.5t28.5 -40t11 -45.5v-110h-140v158h-109v-158h-158v-109
h158v-156h109v156z" />
    <glyph glyph-name="sicon-social-vimeo" unicode="&#xf2e8;" 
d="M909 675q26 -9 43 -26t27 -38.5t14.5 -46t4.5 -48.5q1 -56 -15 -122q-14 -39 -44.5 -97t-72 -122t-91 -128.5t-101 -116.5t-102.5 -85t-95 -35q-36 -1 -63 9.5t-47 30t-34.5 48t-27.5 64.5q-9 24 -20 63.5t-23 85t-24.5 93t-24 88.5t-22 71t-17.5 41q-21 31 -35 33
t-27.5 -7.5t-28.5 -22.5t-37 -13l-18 8q-8 4 -15 10t-10 15q-8 14 6 38.5t41.5 52t64 55.5t73 50.5t68 37t49.5 14.5q37 0 61.5 -17.5t39.5 -45.5t23.5 -63.5t14.5 -70.5q8 -48 14.5 -83.5t11.5 -62.5t9.5 -48t9.5 -41q10 -54 26.5 -86.5t36.5 -32.5q16 0 40.5 29.5
t58.5 78.5q5 9 16.5 27.5t23 43.5t19 56.5t4.5 67.5t-20.5 42.5t-40 -1.5t-45.5 -22t-35 -19q-12 0 -12.5 15t8 38.5t25.5 52.5t40 56.5t52 50.5t61 35q39 14 81.5 13.5t80.5 -13.5z" />
    <glyph glyph-name="sicon-social-twitter" unicode="&#xf2e9;" 
d="M1000 561q-23 -32 -49 -57.5t-57 -48.5q6 -71 -8 -143.5t-46 -140t-82 -127t-116.5 -104t-148 -70t-177.5 -25.5q-88 0 -168 22t-148 67h49q73 0 138 22.5t119 64.5q-69 0 -120.5 40t-74.5 104q24 -6 46.5 -5.5t46.5 5.5q-35 8 -65 27t-52 46t-34.5 61.5t-12.5 72.5
q22 -11 45.5 -19t51.5 -8q-35 20 -58 53.5t-33 72t-5 78t28 72.5q75 -96 184 -151.5t237 -62.5q-12 49 0 94t40.5 79.5t70 55t89.5 20.5q46 0 85 -18t64 -48q38 8 69.5 22t60.5 29q-11 -34 -33 -63.5t-57 -49.5q35 5 64.5 13.5t56.5 19.5z" />
    <glyph glyph-name="sicon-social-insta" unicode="&#xf2ea;" 
d="M844 750q33 0 61.5 -12.5t49.5 -34t33 -50.5t12 -62v-153h-323q-35 32 -80 50.5t-97 18.5q-51 0 -96 -18.5t-80 -50.5h-324v153q0 33 12.5 62t34 50.5t50 34t60.5 12.5h687zM907 631q0 23 -15.5 39t-38.5 16h-80q-22 0 -37.5 -16t-15.5 -39v-74q0 -23 15.5 -39.5
t37.5 -16.5h80q23 0 38.5 16.5t15.5 39.5v74zM759 249q0 49 -18 96h259v-436q0 -33 -12 -62t-33 -50.5t-49.5 -34t-61.5 -12.5h-687q-32 0 -60.5 12.5t-50 34t-34 50.5t-12.5 62v436h260q-19 -49 -19 -96q0 -54 20.5 -101t55.5 -82t82 -55.5t101 -20.5t101 20.5t82.5 55.5
t55.5 82t20 101zM640 249q0 -29 -11 -54.5t-30 -44.5t-44.5 -29.5t-54.5 -10.5t-54 10.5t-44 29.5t-30 44.5t-11 54.5t11 54t30 44t44 29.5t54 10.5t54.5 -10.5t44.5 -29.5t30 -44t11 -54z" />
    <glyph glyph-name="sicon-social-codepen" unicode="&#xf2eb;" 
d="M1000 85l-501 -332v0v0l-499 332v333l499 333v0v0l501 -332v-334zM648 250l-149 100l-147 -100l147 -98zM451 609l-320 -212l136 -91l184 123v180zM731 306l135 91l-322 215v-182zM91 314v-126l94 62zM135 106l319 -212v177l-187 123zM864 106l-133 88l-184 -121v-178z
M905 313l-91 -63l91 -61v124z" />
    <glyph glyph-name="sicon-square-tt" unicode="&#xf20a;" 
d="M126 374l374 376l374 -376v-624h-748v624v0z" />
    <glyph glyph-name="sicon-square-tb" unicode="&#xf20c;" 
d="M874 126l-374 -376l-374 376v624h748v-624z" />
    <glyph glyph-name="sicon-square-tr" unicode="&#xf20b;" 
d="M624 624l376 -374l-376 -374h-624v748h624z" />
    <glyph glyph-name="sicon-square-tl" unicode="&#xf20d;" 
d="M376 -124l-376 374l376 374h624v-748h-624z" />
    <glyph glyph-name="sicon-direction-t" unicode="&#xf20e;" 
d="M72 319l428 431l428 -431v-356l-285 287v-500h-286v500l-285 -287v356v0z" />
    <glyph glyph-name="sicon-direction-b" unicode="&#xf210;" 
d="M500 -250l-428 431v356l285 -287v500h286v-500l285 287v-356z" />
    <glyph glyph-name="sicon-direction-r" unicode="&#xf20f;" 
d="M1000 250l-431 -428h-356l287 285h-500v286h500l-287 285h356z" />
    <glyph glyph-name="sicon-direction-l" unicode="&#xf211;" 
d="M0 250l431 428h356l-287 -285h500v-286h-500l287 -285h-356z" />
    <glyph glyph-name="sicon-gmark" unicode="&#xf28c;" 
d="M719 659q45 -45 68 -102.5t23 -117t-23 -116.5t-68 -103q-62 -66 -110 -142q-21 -33 -40.5 -70.5t-34.5 -79.5t-24.5 -87t-9.5 -91q0 46 -9.5 91t-25 87t-35 79.5t-40.5 70.5q-48 76 -109 142q-45 46 -68 103t-23 116.5t23 117t68 102.5q46 45 103 68t116 23t116 -23
t103 -68zM500 315q26 0 48.5 10t39.5 26.5t26.5 39t9.5 48.5q0 25 -9.5 48t-26.5 39.5t-39.5 26.5t-48.5 10t-48.5 -10t-39 -26.5t-26.5 -39.5t-10 -48q0 -26 10 -48.5t26.5 -39t39 -26.5t48.5 -10z" />
    <glyph glyph-name="sicon-tag" unicode="&#xf28d;" 
d="M971 720q11 -11 16.5 -21.5t8.5 -19.5q4 -11 4 -20q-1 -77 -2 -142q0 -28 -0.5 -56t-0.5 -52v-42.5v-27.5q0 -30 -8.5 -53t-18.5 -39q-11 -18 -26 -32q-107 -106 -198 -196q-39 -38 -77.5 -76.5t-71.5 -71t-57.5 -57.5t-35.5 -36q-23 -23 -46 -26t-41 2q-22 5 -41 20
l-353 352q-15 20 -20 41q-5 18 -2 40.5t26 45.5q11 11 36 35.5t58 57.5t71 71.5t77 77.5q90 91 198 198q14 15 32 27q16 10 38.5 18.5t51.5 8.5h28h43t52 0.5t56 0.5q65 0 141 1q9 0 20 -3q9 -2 20 -8t22 -18zM844 417q18 18 27 41t9 47t-9 47t-27 41t-41 27t-47 9t-47 -9
t-41 -27t-27 -40.5t-9 -46.5t9 -46.5t27 -40.5q18 -19 41 -28.5t47 -9.5t47 9t41 27z" />
    <glyph glyph-name="sicon-search" unicode="&#xf28e;" 
d="M111 98q-56 55 -83.5 125t-27.5 143.5t27.5 144.5t83.5 128q56 55 126.5 82.5t144 27.5t144 -27.5t127.5 -82.5q46 -47 71.5 -104.5t32.5 -119t-5 -122.5t-40 -113l269 -277q21 -27 19 -63t-28 -62q-26 -25 -61.5 -27.5t-64.5 17.5l-269 270q-53 -29 -115 -41
t-124.5 -5.5t-121 33t-105.5 73.5zM581 168q42 42 62.5 93.5t20.5 105.5t-20.5 106t-62.5 94q-41 41 -93 61.5t-106 20.5t-106 -20.5t-93 -61.5q-41 -42 -61.5 -94t-20.5 -106t20.5 -105.5t61.5 -93.5q41 -41 93 -62t106 -21t106 21t93 62z" />
    <glyph glyph-name="sicon-love" unicode="&#xf28f;" 
d="M934 675q17 -19 33.5 -50.5t25.5 -72t6 -87.5t-25 -98q-17 -38 -135 -192.5t-338 -424.5q-222 270 -340 424.5t-135 192.5q-22 51 -25 98t5.5 87.5t25.5 72t35 50.5q69 75 178 75q18 0 39 -8t42.5 -21t42.5 -30t41 -34q46 -40 91 -92q34 41 64 75t60 58.5t62 38t70 13.5
q106 0 177 -75z" />
    <glyph glyph-name="sicon-rss" unicode="&#xf290;" 
d="M260 -123q0 -26 -10.5 -49.5t-28.5 -40.5t-42 -27t-51 -10q-26 0 -49 10t-40.5 27t-28 40.5t-10.5 49.5q0 31 10.5 56.5t28 44.5t40.5 29.5t49 10.5q27 0 51 -10.5t42 -29.5t28.5 -44.5t10.5 -56.5zM0 414q91 0 175.5 -24t158 -68t133.5 -105t103 -135t66.5 -158
t23.5 -174h-188q0 96 -36 180t-108 144q-70 70 -155 105.5t-173 35.5v199zM0 750q138 0 265.5 -36.5t239 -102t202.5 -157.5t156.5 -203t101 -238t35.5 -263h-188q0 110 -29 212.5t-82 191.5t-127.5 162.5t-164.5 126t-193.5 81.5t-215.5 29v197z" />
    <glyph glyph-name="sicon-off" unicode="&#xf291;" 
d="M721 634q55 -30 101 -73t78.5 -97t50.5 -116t18 -129q0 -97 -37 -182.5t-100.5 -149t-149.5 -100.5t-183 -37t-182.5 37t-149 100.5t-100 149t-36.5 182.5q0 67 18 129t50.5 116t77.5 97t100 73l4 -221q-34 -38 -54 -88t-20 -106q0 -60 23 -113t62.5 -92.5t92.5 -62.5
t114 -23t114 23t93 62.5t63 92.5t23 113q0 55 -19.5 104t-52.5 88zM500 103q-23 0 -42.5 7t-34.5 19t-23.5 28.5t-8.5 34.5v470q0 18 8.5 34t23.5 28t34.5 19t42.5 7t43 -7t35 -19t23.5 -28t8.5 -34v-470q0 -18 -8.5 -34.5t-23.5 -28.5t-35 -19t-43 -7z" />
    <glyph glyph-name="sicon-start" unicode="&#xf292;" 
d="M381 370l119 380l117 -380h383l-309 -236l118 -384l-309 236l-311 -236l120 384l-309 236h381v0z" />
    <glyph glyph-name="sicon-square-cate" unicode="&#xf293;" 
d="M1 62l499 -124l501 124v-124l-501 -126l-499 126v124zM1 311l499 -124l501 124v-124l-501 -125l-499 125v124zM1 562l499 124l501 -124v-126l-501 -125l-499 125v126z" />
    <glyph glyph-name="sicon-circle-cate" unicode="&#xf294;" 
d="M1000 333v-128q-6 -32 -46.5 -57.5t-107 -43.5t-155.5 -28t-191 -10q-99 0 -187.5 10t-156 28t-109 43.5t-47.5 57.5v128v8q9 -31 50.5 -56.5t108.5 -43.5t154.5 -28t186.5 -10t187.5 10t156 28t109 43.5t47.5 56.5v-8zM1000 75v-128q-6 -32 -46.5 -57.5t-107 -43.5
t-155.5 -27.5t-191 -9.5q-99 0 -187.5 9.5t-156 27.5t-109 43.5t-47.5 57.5v128v8q9 -32 50.5 -57.5t108.5 -43.5t154.5 -27.5t186.5 -9.5t187.5 9.5t156 27.5t109 43.5t47.5 57.5v-8zM1000 445v6q-6 -29 -46.5 -52.5t-107 -41t-155.5 -27t-191 -9.5q-99 0 -187.5 8.5
t-156 25t-109 39t-47.5 51.5v6v122q6 31 47.5 55t109.5 39.5t157 23.5t189 8q102 0 191.5 -8t156.5 -23.5t106.5 -39.5t42.5 -55v-128z" />
    <glyph glyph-name="sicon-comment-r" unicode="&#xf295;" 
d="M1000 718v-625l-468 -1l-315 -312v313h-217v625h1000v0z" />
    <glyph glyph-name="sicon-comment-l" unicode="&#xf296;" 
d="M0 718h1000v-625h-217v-313l-315 312l-468 1v625z" />
    <glyph glyph-name="sicon-folder-open" unicode="&#xf297;" 
d="M436 471l127 -156h437v-531h-1000v687h436zM657 563h343v-124h-375l-126 157h-374l62 124h343z" />
    <glyph glyph-name="sicon-folder" unicode="&#xf298;" 
d="M563 456h437v-531h-1000v687h436z" />
    <glyph glyph-name="sicon-attach" unicode="&#xf29a;" 
d="M290 -244q-51 9 -98 33t-86 63q-51 51 -76.5 115t-25.5 131t25.5 131t76.5 115q18 19 46 46t60 59t66.5 65.5t66 64.5t57.5 57l42 42q37 36 83.5 54.5t94.5 18.5t94.5 -18.5t83.5 -54.5q37 -37 55 -83.5t18 -95t-18.5 -94.5t-54.5 -83l-12 -11.5t-31.5 -31l-44 -44
l-49.5 -49.5l-135 -135q-23 -23 -52 -34t-59 -11t-59 11.5t-52 34.5t-34.5 52.5t-11.5 59.5t11.5 59t34.5 52l163 164l89 -89l-162 -164q-11 -9 -11 -22t11 -22q9 -9 21 -10t21 8l270 268q18 19 27.5 42.5t9.5 47.5t-9.5 47.5t-27.5 41.5q-19 19 -42.5 28t-47.5 9t-47.5 -9
t-41.5 -28l-24.5 -24.5t-61.5 -61t-80 -79t-80 -79.5l-62 -62l-26 -26q-32 -33 -48.5 -73.5t-16.5 -83t16.5 -83.5t48.5 -73q32 -33 73 -49t83.5 -16t83 16t73.5 49l400 400l88 -90l-399 -399q-63 -63 -144.5 -87t-162.5 -10z" />
    <glyph glyph-name="sicon-trash" unicode="&#xf29b;" 
d="M625 657h312v-219h-94v-688h-687v688h-93v219h312v93h250v-93zM749 -157v595h-500v-595h500zM405 359v-437h-62v437h62zM531 359v-437h-63v437h63zM656 359v-437h-63v437h63z" />
    <glyph glyph-name="sicon-folder-alt" unicode="&#xf299;" 
d="M3 426h994l-26 -533h-940zM940 489h-879v62h64l34 96h344l61 -96h376v-62z" />
    <glyph glyph-name="sicon-home" unicode="&#xf29c;" 
d="M156 188l344 344l345 -344v-437h-222v312h-248v-312h-219v437zM499 751l501 -532h-95l-406 407l-406 -406h-93l188 199v271h127v-135z" />
    <glyph glyph-name="sicon-info" unicode="&#xf29d;" 
d="M500 750q103 0 194.5 -39.5t159 -107t107 -159t39.5 -194.5q0 -69 -18 -133t-50.5 -119.5t-78 -101t-101 -78t-119.5 -50.5t-133 -18t-133 18t-119.5 50.5t-101 78t-78 101t-50.5 119.5t-18 133t18 133t50.5 119.5t78 101t101 78t119.5 50.5t133 18zM484 594
q-32 0 -55 -23t-23 -55t23 -55t55 -23t55 23t23 55t-23 55t-55 23zM656 31h-94v344h-187v-63h62v-281h-93v-93h312v93z" />
    <glyph glyph-name="sicon-alert" unicode="&#xf29e;" 
d="M499 750l501 -1000h-1000zM437 439v-135l30 -241h66l30 241v135h-126zM438 -124h125v124h-125v-124z" />
    <glyph glyph-name="sicon-preferences" unicode="&#xf2a1;" 
d="M888 250q0 -24 8.5 -46t23.5 -39t35.5 -28t44.5 -14q-9 -37 -23.5 -71t-33.5 -66q-19 15 -41 21.5t-44.5 5t-44 -10.5t-38.5 -27q-18 -17 -27.5 -38.5t-11 -44t5.5 -44.5t22 -41q-32 -19 -66 -33.5t-71 -23.5q-3 24 -14 44.5t-28 35.5t-39 23.5t-46 8.5t-46 -8.5
t-39 -23.5t-28 -35.5t-14 -44.5q-37 9 -71 23.5t-66 33.5q15 19 21.5 41t5 44.5t-10.5 44t-27 38.5q-17 18 -38.5 27t-44 10.5t-44.5 -5t-41 -21.5q-19 32 -33.5 66t-23.5 71q24 3 44.5 14t35.5 28t23.5 39t8.5 46t-8.5 46t-23.5 39t-35.5 28t-44.5 14q9 37 23.5 71t33.5 66
q19 -15 41 -22t44.5 -5.5t44 11t38.5 27.5q18 17 27 38.5t10.5 44t-5 44.5t-21.5 41q32 19 66 33.5t71 23.5q3 -24 14 -44.5t28 -35.5t39 -23.5t46 -8.5t46 8.5t39 23.5t28 35.5t14 44.5q37 -9 71 -23.5t66 -33.5q-15 -19 -22 -41t-5.5 -44.5t11 -44t27.5 -38.5
q17 -18 38.5 -27.5t44 -11t44.5 5.5t41 22q19 -32 33.5 -66t23.5 -71q-24 -3 -44.5 -14t-35.5 -28t-23.5 -39t-8.5 -46zM500 58q39 0 74 15t61 41.5t41 61.5t15 74t-15 74t-41 61t-61 41t-74 15t-74 -15t-61.5 -41t-41.5 -61t-15 -74t15 -74t41.5 -61.5t61.5 -41.5t74 -15z
" />
    <glyph glyph-name="sicon-contact" unicode="&#xf2a2;" 
d="M1000 600v-688h-1000v688h1000zM159 505l310 -218h62l310 218h-682zM907 441l-340 -248h-134l-340 248v-436h814v436z" />
    <glyph glyph-name="sicon-move" unicode="&#xf2a3;" 
d="M1000 250l-188 -188v143h-265v-267h142l-189 -188l-187 188h140v267h-265v-143l-188 188l188 188v-141h265v265h-140l187 188l189 -188h-142v-265h265v141l188 -188v0z" />
    <glyph glyph-name="sicon-update" unicode="&#xf2a4;" 
d="M391 -237q-84 19 -155.5 64t-124 109.5t-82 144.5t-29.5 170q0 95 33.5 180t92 151t138 109.5t171.5 55.5l-122 -122l106 -105q-44 -13 -80.5 -39t-63 -61.5t-41.5 -78.5t-15 -90q0 -43 12 -82.5t34 -73t52.5 -60t67.5 -42.5l118 -117zM604 740q85 -18 157.5 -63
t125.5 -109.5t83 -145.5t30 -171q0 -97 -34 -182.5t-93.5 -152t-140.5 -109.5t-175 -54l122 123l-104 104q44 12 82 37.5t65.5 61t43 79.5t15.5 93q0 44 -13 85t-37 75t-56.5 60t-71.5 41l-114 113z" />
    <glyph glyph-name="sicon-eye" unicode="&#xf2a8;" 
d="M500 559q93 0 174.5 -31t146.5 -77.5t111 -100.5t68 -101q-16 -31 -41.5 -66t-60.5 -70t-78 -66.5t-93.5 -56t-107.5 -39t-119 -14.5q-93 0 -174 31t-145.5 77.5t-110.5 101.5t-70 102q24 47 70 101t110.5 100.5t145.5 77.5t174 31zM500 13q49 0 92 18.5t75 50.5t50.5 75
t18.5 92t-18.5 92t-50.5 75t-75 50.5t-92 18.5t-92 -18.5t-75 -50.5t-50.5 -75t-18.5 -92t18.5 -92t50.5 -75t75 -50.5t92 -18.5zM500 365q24 0 45 -9t37 -25t25 -37t9 -45q0 -25 -9 -46.5t-25 -37.5t-37 -25t-45 -9t-45 9t-37 25t-25 37.5t-9 46.5q0 24 9 45t25 37t37 25
t45 9z" />
    <glyph glyph-name="sicon-question" unicode="&#xf2a5;" 
d="M500 750q104 0 195 -39.5t159 -107t107 -159t39 -194.5q0 -104 -39 -195t-107 -158.5t-159 -107t-195 -39.5q-69 0 -133 18t-119.5 50.5t-101 78t-78 101t-50.5 119.5t-18 133t18 133t50.5 119.5t78 101t101 78t119.5 50.5t133 18zM564 32h-128v-126h128v126zM703 294
q29 41 29 100q0 96 -68 147q-67 49 -172 49q-77 0 -132 -35q-85 -54 -91 -185h132q0 19 5.5 37.5t16.5 35.5q21 36 76 36q26 0 44.5 -7t28.5 -22q20 -29 20 -63q0 -31 -17 -56q-3 -4 -12.5 -12t-20.5 -17q-12 -11 -27 -23q-50 -38 -62 -68q-6 -15 -9 -41.5t-5 -64.5h124
q0 35 5 53q10 28 36 48q25 20 45 38q17 15 33 29.5t21 20.5z" />
    <glyph glyph-name="sicon-lock" unicode="&#xf2a6;" 
d="M875 375v-625h-750v625h63v64q0 64 24.5 121t66.5 99t98.5 66.5t121.5 24.5q64 0 120.5 -24.5t98.5 -66.5t66.5 -99t24.5 -121v-64h66zM295 375h408v64q0 43 -16 80t-43.5 64.5t-65 43.5t-79.5 16q-43 0 -80 -16t-64.5 -43.5t-43.5 -64.5t-16 -80v-64zM563 189h-126v-251
h126v251z" />
    <glyph glyph-name="sicon-unlock" unicode="&#xf2a7;" 
d="M875 375v-625h-750v625h63v64q0 64 24.5 121t66.5 99t98.5 66.5t121.5 24.5q53 0 101 -17t87 -47l-76 -76q-50 33 -112 33q-43 0 -80 -16t-64.5 -43.5t-43.5 -64.5t-16 -80v-64h580zM563 189h-126v-251h126v251z" />
    <glyph glyph-name="sicon-user" unicode="&#xf29f;" 
d="M712 469q0 -58 -16.5 -109t-45.5 -89t-67.5 -60t-82.5 -22t-82.5 22t-67.5 60t-45.5 89t-16.5 109t16.5 109.5t45.5 89.5t67.5 60t82.5 22t82.5 -22t67.5 -60t45.5 -89.5t16.5 -109.5zM1000 -250q-3 47 -10.5 97.5t-21.5 99t-35 92t-49 76.5t-64.5 52t-82.5 19
q-43 -72 -104 -114.5t-133 -42.5t-133.5 42.5t-103.5 114.5q-40 0 -74.5 -19t-62.5 -52t-50.5 -76.5t-38 -92t-25 -99t-12.5 -97.5h1000z" />
    <glyph glyph-name="sicon-multiuser" unicode="&#xf2a0;" 
d="M255 325q-26 0 -48.5 13t-39 35t-26.5 52t-10 64t10 64.5t26.5 52.5t39 35t48.5 13q25 0 47.5 -13t39 -35t26 -52.5t9.5 -64.5t-9.5 -64t-26 -52t-39 -35t-47.5 -13zM708 325q-26 0 -48 13t-39 35t-26.5 52t-9.5 64t9.5 64.5t26.5 52.5t39 35t48 13t48.5 -13t39.5 -35
t26.5 -52.5t9.5 -64.5t-9.5 -64t-26.5 -52t-39.5 -35t-48.5 -13zM847 324q40 0 68 -24.5t46 -62t27 -83t12 -86.5v-196h-584l1 196q2 41 13 86.5t30.5 83t47.5 62t63 24.5q25 -44 60 -68t77 -24t77.5 24t61.5 68zM376 321q11 -6 21 -13.5t19 -14.5q-40 -35 -66 -85.5
t-29 -110.5l-1 -225h-320v225q2 36 10 75.5t24 72.5t41 54.5t60 21.5q22 -37 53 -59t68 -22q36 0 67.5 22t52.5 59z" />
    <glyph glyph-name="sicon-firefox" unicode="&#xf270;" 
d="M56 497q-7 30 -5 61q2 26 13 57.5t40 60.5q20 -51 36 -70t23 -20l32 4t27 2q5 0 15.5 -1.5t20.5 -3.5q11 -3 25 -5q15 18 33 32q16 12 39 21.5t53 8.5q-26 -32 -38 -54t-17 -36q-6 -16 -5 -26q1 -6 6 -10q4 -4 12.5 -7t22.5 -4t27.5 -1t23.5 -1l22 -2q11 -4 18 -10
q6 -5 7.5 -14t-7.5 -22q-10 -12 -27.5 -24t-34.5 -23t-29.5 -20t-11.5 -14v-14t1 -18q0 -11 1 -22q-19 6 -33 6q-13 0 -23 -6.5t-10 -25.5t10 -36t25 -29.5t32.5 -20t32.5 -7.5t29 5t28 11t29.5 11t33.5 5t33 -6t25 -15t14 -19t-2 -18t-16.5 -11t-22.5 -5t-23.5 -4.5
t-20.5 -9.5t-15.5 -14t-20.5 -12t-39 -8.5t-71 -3.5q17 -22 43 -40q23 -15 57 -27t84 -12q49 0 73.5 7.5t35.5 17.5q12 11 12 26l9 -18q18 18 33 39q13 18 25.5 42.5t17.5 53.5q0 10 4 19q3 8 8 14t14 8q1 22 1.5 46t0.5 45t-0.5 37t-2.5 23q14 0 22.5 -5t12.5 -11
q4 -7 5 -17q8 33 2 71q-5 32 -24 73t-64 86q11 -2 22.5 -6.5t22.5 -9.5q12 -6 25 -13q-18 31 -37 59q-17 24 -39 49.5t-47 41.5q36 -16 70 -34t64.5 -39.5t55 -47.5t40.5 -59q-29 42 -49.5 68.5t-33.5 42.5q-15 18 -24 28q32 -15 62 -41q25 -22 51 -56.5t42 -85.5t18 -90.5
t-2 -68.5q-4 -33 -16 -59q8 10 15 28q5 15 10 40.5t6 65.5q3 -65 0 -110t-8.5 -76.5t-12 -51.5t-12.5 -34q-1 -15 -1.5 -37t-13 -50t-42.5 -61.5t-89 -71.5q-27 -28 -57.5 -50.5t-68.5 -38t-85 -23.5t-106 -8q-43 0 -97 11.5t-109.5 36t-109 63t-95 92.5t-67 124t-25.5 158
q0 65 8.5 108t19.5 69q12 30 28 47z" />
    <glyph glyph-name="sicon-ie" unicode="&#xf271;" 
d="M1000 232q0 -14 -1 -27t-3 -26h-636q2 -45 17 -81.5t40.5 -63t60 -40.5t75.5 -14q57 0 103.5 27.5t76.5 73.5h239h1q-23 -63 -64.5 -116.5t-96.5 -92t-121 -60t-138 -21.5q-103 0 -191 41q-53 -29 -101.5 -46t-90.5 -22t-76 3.5t-57 31.5q-26 26 -33.5 70t1.5 100.5
t35 123t67 137.5q66 114 171 228l59 57q-33 -18 -70 -44q-32 -23 -71 -57.5t-78 -82.5q17 73 57 136t97.5 109t129 72t151.5 26q3 0 6 -1t6 -1q61 30 118.5 47t107 20.5t89 -7t65.5 -34.5q41 -38 37.5 -102.5t-41.5 -145.5q29 -50 44 -104t15 -114zM107 -172q29 -32 87 -25
t134 48q-69 40 -120 101t-77 136q-43 -88 -50 -156t26 -104zM746 295q-4 40 -19 74t-40 58.5t-59 38t-75 13.5q-35 0 -68.5 -14t-60 -39t-44 -58.5t-20.5 -72.5h386zM708 646q68 -26 124 -70t95 -104q30 60 33.5 106t-25.5 74q-30 29 -89.5 26.5t-137.5 -32.5z" />
    <glyph glyph-name="sicon-chrome" unicode="&#xf272;" 
d="M500 476q-43 0 -81.5 -15t-68.5 -41.5t-49.5 -62.5t-24.5 -78l-180 265q34 46 78 84t96 65t110 42t120 15q73 0 140.5 -20t125 -56.5t104 -87.5t77.5 -112h-422q-6 2 -12 2h-13zM500 24q35 0 68 11l-166 -274q-86 16 -159.5 60.5t-127 109.5t-84 146.5t-30.5 173.5
q0 66 16 126.5t45 114.5l247 -362q30 -48 80.5 -77t110.5 -29zM325 251q0 36 13.5 68t37 55.5t55.5 37.5t69 14q36 0 68 -14t55.5 -37.5t37.5 -55.5t14 -68q0 -37 -14 -69t-37.5 -56t-55.5 -38t-68 -14q-37 0 -69 14t-55.5 38t-37 56t-13.5 69zM971 418q28 -77 28 -167
q0 -104 -39 -195t-107 -159t-159 -107.5t-194 -39.5q-9 0 -18 0.5t-18 0.5l225 376q37 54 37 124q0 49 -20 92t-55 75h320z" />
    <glyph glyph-name="sicon-safari" unicode="&#xf273;" 
d="M500 637q91 0 171.5 -35t141 -95t95.5 -141t35 -173t-35 -172.5t-95.5 -140.5t-141 -95t-171.5 -35q-92 0 -172.5 35t-140.5 95t-95 140.5t-35 172.5q0 77 25 146.5t69 126.5t104.5 97.5t131.5 58.5l-3 19q-17 5 -28.5 19.5t-11.5 33.5q0 23 17 39.5t42 16.5
q23 0 39 -16.5t16 -39.5q0 -25 -17 -40l4 -22q14 2 27.5 3.5t27.5 1.5zM359 694q0 -15 8.5 -25.5t20.5 -15.5l9 3l27 6q4 0 6 -1q15 13 15 33q0 18 -12.5 30.5t-29.5 12.5q-19 0 -31.5 -12.5t-12.5 -30.5zM559 -93q-2 0 -4.5 -0.5t-4.5 0.5q-7 0 -11 1l-2 -5l-4 -1l-6 25
l5 1q2 -5 5 -7q1 -2 3 -3l4 -2q2 -5 6 -5q4 -2 9 0q4 0 6 2l4 4q1 3 1 8q-1 4 -4 5q-3 3 -10 3q-3 1 -9 1q-3 0 -5 1q-4 0 -6.5 2t-4.5 4q-6 4 -6 11q-2 3 0 8q0 2 2 6q2 3 3.5 4t3.5 3q2 1 5 2t5 1l-44 104q-29 0 -55 13l-173 -144l132 183q-2 4 -4 7.5t-3 7.5l-123 -2
l112 48q0 29 13 52l-37 37l48 -19q8 11 19.5 19.5t22.5 14.5l-1 117l48 -107h1q15 0 28.5 -4t26.5 -10l173 143l-132 -182q4 -6 6 -14l120 2l-7 35h3v-1l2 -1q0 -2 1 -2v-3q0 -1 1 -1h5l46 11q1 0 2 2q0 1 1 1q2 0 2 1v3v3l3 3l8 -36l38 26q-15 54 -46.5 100t-74 79
t-95.5 52t-111 19q-14 0 -26 -1t-26 -3l-10 -52l-29 43q-54 -15 -99.5 -46t-78.5 -74t-52 -96t-19 -111q0 -14 1 -27t4 -27l49 -7l-1 7l46 29l-22 2h-13q-2 2 -6 2q-3 0 -4 -2l-1 -1v-1l-2 -1v-3q2 -1 2 -4l-4 -1l-6 27l2 1q3 -1 3 -2l2 -4q2 -2 3 -2q2 0 3 -1q5 0 11 -1
t15 -2l35 -5l1 -9l-45 -27l53 -6l1 -10l-32 -19l-19 -11l-3 -3q0 -1 -0.5 -2t-0.5 -2t-1 -1t-1 -1v-5h-3l-7 36l3 1q0 -3 0.5 -4t0.5 -2l2 -1q0 -1 1 -1h2q0 1 1 1l13 8q6 2 10.5 5.5t12.5 7.5l-51 6l-43 -28q15 -54 46.5 -99.5t74 -78.5t95.5 -52t112 -19q13 0 25.5 1
t26.5 3zM468 221l64 53q-7 2 -15.5 4t-16.5 2q-37 0 -62 -25t-25 -62q0 -10 2 -19t5 -18l48 64v1zM523 193q0 10 -7 17t-16 7t-16 -7t-7 -17t7 -16.5t16 -6.5t16 6.5t7 16.5zM468 112l16 -4t16 -2q18 0 33.5 7t27.5 18.5t19 27.5t7 34q0 20 -9 37l-46 -64v-2h-1zM589 -134
q54 15 99.5 46t79 74t52 95.5t18.5 111.5q0 28 -3 51l-45 8l3 -20l-15 -2l-3 2q3 1 4.5 3t3.5 4q2 3 2 7v5v3h-2l2 1h-1l-1 9l-25 -6l1 -6q0 -1 0.5 -1.5t0.5 -2.5l2 -4q2 0 3 -0.5t3 -0.5h4l1 -4l-27 -6v3q1 1 1.5 1t1.5 2q2 1 2.5 2t1.5 1q0 1 0.5 1.5t0.5 1.5v6l-1 6
l-20 -3q-3 0 -4 -2q-2 0 -2 -2v-4v-4q0 -2 0.5 -2.5t0.5 -2.5t1 -4q0 -2 1 -3q0 -1 1 -1.5t1 -2.5q2 0 8 -2q2 -1 4.5 -2t3.5 -1l1 -2l-21 -5l-6 28l-109 -49q0 -26 -13 -54l35 -34l-46 19q-8 -11 -18.5 -19.5t-24.5 -13.5l1 -114h9q7 0 8 -1l2 4h4l6 -23h-5q-2 4 -5 7l-5 6
q-4 2 -6 2q-3 2 -8 0v-5l-1 5q-4 -2 -7 -5q-1 -2 -1 -7t5 -6q4 -2 9 -2q3 -1 7 -1q6 0 7 -2q9 0 12 -4q6 -6 7 -11q0 -6 -1 -9q0 -2 -4 -8q-2 -2 -3 -3.5t-3 -3.5l-11 -3zM401 461l-2 5l26 5l45 -37l-4 25q-2 3 -2.5 5t-1.5 3l-2 4q-2 0 -2.5 0.5t-2.5 0.5h-5l-1 5l30 5v-4
h-1q-1 0 -2 -1q-5 0 -5 -4q-2 -2 -2 -3q0 -2 0.5 -4t0.5 -6l10 -47l-9 -2l-52 43l7 -31q0 -3 1 -5l2 -4q0 -1 2 -5h6q1 -1 4 -1l1 -2l-29 -8v5h1q1 0 1 0.5t2 0.5q2 4 2 3q1 1 2.5 2t1.5 4q0 1 -1.5 2.5t-1.5 6.5l-6 30q0 2 -0.5 2.5t-0.5 2.5q-1 1 -1 1.5t-2 1.5
q-1 0 -2 0.5t-3 0.5h-4z" />
    <glyph glyph-name="sicon-opera" unicode="&#xf274;" 
d="M499 750q96 0 180.5 -34.5t147.5 -99t99.5 -157t36.5 -209.5q0 -104 -36.5 -195t-99.5 -158.5t-147.5 -107t-180.5 -39.5q-95 0 -179 39.5t-147 107t-99.5 158.5t-36.5 195q0 117 36.5 209.5t99.5 157t147 99t179 34.5zM669 497q0 25 -13 51t-35.5 47.5t-53 35.5
t-64.5 14h-6q-35 0 -65 -14t-52.5 -35.5t-35.5 -47.5t-13 -51v-500q0 -25 13 -50t35.5 -45.5t52.5 -33.5t65 -13h6q34 0 64.5 13t53 33.5t35.5 45.5t13 50v500z" />
    <glyph glyph-name="sicon-control-l" unicode="&#xf254;" 
d="M0 250l563 500v-389l437 389v-1000l-437 391v-391l-563 500v0z" />
    <glyph glyph-name="sicon-control-r" unicode="&#xf258;" 
d="M437 -250v389l-437 -389v1000l437 -391v391l563 -500z" />
    <glyph glyph-name="sicon-control-rec" unicode="&#xf255;" 
d="M500 750q103 0 194.5 -39.5t159 -107t107 -159t39.5 -194.5q0 -69 -18 -133t-50.5 -119.5t-78 -101t-101 -78t-119.5 -50.5t-133 -18t-133 18t-119.5 50.5t-101 78t-78 101t-50.5 119.5t-18 133t18 133t50.5 119.5t78 101t101 78t119.5 50.5t133 18z" />
    <glyph glyph-name="sicon-control-pause" unicode="&#xf256;" 
d="M312 -250h-312v1000h312v-1000v0zM1000 -250h-313v1000h313v-1000v0z" />
    <glyph glyph-name="sicon-control-stop" unicode="&#xf257;" 
d="M0 750l1000 -1v-996h-1000v997z" />
    <glyph glyph-name="sicon-video" unicode="&#xf259;" 
d="M688 329l-344 -205v408zM985 750q15 0 15 -16v-969q0 -6 -3.5 -10.5t-11.5 -4.5h-970q-6 0 -10.5 4.5t-4.5 10.5v969q0 7 4.5 11.5t10.5 4.5h970zM906 654h-811v-654h811v654z" />
    <glyph glyph-name="sicon-photo" unicode="&#xf25a;" 
d="M964 486q18 -18 27 -33t9 -42v-544h-1000v543q0 27 9 41.5t27 32.5q9 9 19 16t18.5 12t13.5 7.5l5 2.5l33 62h95l31 -62q41 42 64.5 69t36.5 43t18 23t10 10q16 12 36 12h172q19 0 36 -12l124 -145h127q53 0 89 -36zM376 523h251l-63 93h-127zM501 -56q52 0 97 19.5
t78 53.5t52 79.5t19 97.5q0 51 -19 95.5t-52 78t-78 52.5t-97 19t-97.5 -19t-79 -52.5t-53 -78t-19.5 -95.5q0 -52 19.5 -97.5t53 -79.5t79 -53.5t97.5 -19.5zM501 307q24 0 45 -9t36.5 -24.5t24.5 -36t9 -43.5q0 -25 -9 -46.5t-24.5 -37.5t-36.5 -25.5t-45 -9.5t-45.5 9.5
t-37.5 25.5t-25.5 37.5t-9.5 46.5q0 23 9.5 43.5t25.5 36t37.5 24.5t45.5 9z" />
    <glyph glyph-name="sicon-monitor" unicode="&#xf25b;" 
d="M985 625q6 0 10.5 -4t4.5 -10v-564q0 -6 -4.5 -10.5t-10.5 -4.5h-361q9 -42 27.5 -71.5t37 -48.5t31.5 -28t9 -9h-458q-4 0 9 9t31.5 28t37 48.5t27.5 71.5h-361q-6 0 -10.5 4.5t-4.5 10.5v564q0 6 4.5 10t10.5 4h970zM907 531h-814v-406h814v406z" />
    <glyph glyph-name="sicon-mobile" unicode="&#xf25c;" 
d="M797 750q6 0 10.5 -4.5t4.5 -10.5v-970q0 -6 -4.5 -10.5t-10.5 -4.5h-594q-6 0 -10.5 4.5t-4.5 10.5v970q0 6 4.5 10.5t10.5 4.5h594zM501 -211q36 0 61 25t25 61t-25 61.5t-61 25.5q-38 0 -63 -25.5t-25 -61.5t25 -61t63 -25zM718 657h-435v-657h435v657z" />
    <glyph glyph-name="sicon-tablet" unicode="&#xf25d;" 
d="M890 749q6 0 10 -4.5t4 -10.5v-970q0 -6 -4 -10.5t-10 -4.5h-782q-6 0 -10 4.5t-4 10.5v970q0 6 4 10.5t10 4.5h782zM501 -212q36 0 61.5 25t25.5 61t-25.5 61.5t-61.5 25.5q-37 0 -62.5 -25.5t-25.5 -61.5t25.5 -61t62.5 -25zM812 656h-625v-656h625v656z" />
    <glyph glyph-name="sicon-sound" unicode="&#xf25e;" 
d="M192 371l245 190v-622l-242 184h-195v248h192zM575 350q23 -17 36.5 -43.5t13.5 -57.5q0 -32 -13.5 -58t-36.5 -44l-76 103zM688 499q57 -43 90.5 -108t33.5 -142q0 -78 -34 -143t-91 -108l-55 75q40 30 63.5 76t23.5 100t-24 100t-64 76zM801 647q45 -34 81.5 -77.5
t63 -94.5t40.5 -108t14 -118q0 -62 -14 -119.5t-40.5 -108.5t-63.5 -94.5t-82 -77.5l-52 68q75 57 120 143.5t45 188.5q0 101 -44.5 187t-119.5 143z" />
    <glyph glyph-name="sicon-sound-off" unicode="&#xf25f;" 
d="M439 372l245 190v-622l-242 184h-195v248h192z" />
    <glyph glyph-name="sicon-flag-r" unicode="&#xf200;" 
d="M217 685l783 -311l-783 -309v-315h-217v1000h217v-65v0z" />
    <glyph glyph-name="sicon-flag-l" unicode="&#xf201;" 
d="M783 685v65h217v-1000h-217v315l-783 309z" />
    <glyph glyph-name="sicon-flag-rr" unicode="&#xf204;" 
d="M1000 339l-688 -279v556zM0 -250v905q0 19 7.5 36.5t20.5 30.5t30 20.5t36 7.5t36 -7.5t30 -20.5t20 -30.5t7 -36.5v-905h-187z" />
    <glyph glyph-name="sicon-flag-rl" unicode="&#xf205;" 
d="M688 616v-556l-688 279zM813 -250v905q0 19 7 36.5t20 30.5t29.5 20.5t36.5 7.5q19 0 36 -7.5t30 -20.5t20.5 -30.5t7.5 -36.5v-905h-187z" />
    <glyph glyph-name="sicon-flag-wr" unicode="&#xf202;" 
d="M783 564q63 0 104 14.5t67 31.5q29 20 46 46v-131v-338q-17 -26 -46 -46q-26 -17 -67 -31.5t-104 -14.5q-62 0 -113.5 19t-99.5 42.5t-95 42.5t-100 19q-43 0 -75.5 -6t-55 -14.5t-36.5 -17.5t-21 -15v-415h-187v999h187v-114q7 6 21 14.5t37 17t55.5 14.5t74.5 6
q53 0 100 -19t95 -42.5t99.5 -42.5t113.5 -19z" />
    <glyph glyph-name="sicon-flag-wl" unicode="&#xf203;" 
d="M217 564q62 0 113.5 19t99.5 42.5t95 42.5t100 19q42 0 74.5 -6t55.5 -14.5t37 -17t21 -14.5v114h187v-999h-187v415q-7 6 -21 15t-36.5 17.5t-55 14.5t-75.5 6q-53 0 -100 -19t-95 -42.5t-99.5 -42.5t-113.5 -19q-63 0 -104.5 14.5t-66.5 31.5q-30 20 -46 46v338v131
q16 -26 46 -46q25 -17 66.5 -31.5t104.5 -14.5z" />
    <glyph glyph-name="sicon-flag-rwr" unicode="&#xf206;" 
d="M187 -250h-187v999h187v-999zM783 564q63 0 104 14.5t67 31.5q29 20 46 46v-131v-338q-17 -26 -46 -46q-26 -17 -67 -31.5t-104 -14.5q-62 0 -113.5 19t-99.5 42.5t-95 42.5t-100 19q-28 0 -51 -2.5t-42 -7.5v470q19 4 42 6.5t51 2.5q53 0 100 -19t95 -42.5t99.5 -42.5
t113.5 -19z" />
    <glyph glyph-name="sicon-flag-rwl" unicode="&#xf207;" 
d="M813 749h187v-999h-187v999zM217 564q62 0 113.5 19t99.5 42.5t95 42.5t100 19q28 0 51 -2.5t42 -6.5v-470q-19 5 -42 7.5t-51 2.5q-53 0 -100 -19t-95 -42.5t-99.5 -42.5t-113.5 -19q-63 0 -104.5 14.5t-66.5 31.5q-30 20 -46 46v338v131q16 -26 46 -46
q25 -17 66.5 -31.5t104.5 -14.5z" />
    <glyph glyph-name="sicon-flag-lrr" unicode="&#xf208;" 
d="M1000 252l-813 -279v556zM93 750q19 0 36 -7.5t29.5 -20t20 -29.5t7.5 -36q0 -30 -17.5 -53.5t-43.5 -33.5v-819h-63v818q-27 10 -44.5 33.5t-17.5 54.5q0 19 7.5 36t20 29.5t29.5 20t36 7.5z" />
    <glyph glyph-name="sicon-flag-lrl" unicode="&#xf209;" 
d="M813 529v-556l-813 279zM907 750q19 0 36 -7.5t29.5 -20t20 -29.5t7.5 -36q0 -31 -17.5 -54.5t-44.5 -33.5v-818h-63v819q-26 10 -43.5 33.5t-17.5 53.5q0 19 7.5 36t20 29.5t29.5 20t36 7.5z" />
    <glyph glyph-name="sicon-refresh" unicode="&#xf2a9;" 
d="M656 384l122 123q-50 50 -121 78.5t-147 28.5q-75 0 -143 -29t-119 -78.5t-81 -116t-30 -141.5t30 -141.5t81 -116t119 -78.5t143 -29q91 0 166 40.5t125 107.5l98 -98q-69 -85 -170 -135t-219 -50q-104 0 -196 39.5t-162 107t-110.5 158.5t-40.5 195q0 103 40.5 194.5
t110.5 159t162 107t196 39.5t199.5 -39t164.5 -107l126 125v-344h-344z" />
    <glyph glyph-name="sicon-down" unicode="&#xf2aa;" 
d="M936 337l-436 -431l-436 431v257l293 -287v443h286v-443l293 287v-257zM937 -250h-875v248h124v-123h627v123h124v-248z" />
    <glyph glyph-name="sicon-social-face-s" unicode="&#xf2ec;" 
d="M720 416l-11 -148h-151v-518h-194v518h-106v148h106v103q0 17 0.5 37t3.5 41t10 40.5t20 35.5q26 36 62.5 56.5t97.5 20.5q48 0 82.5 -3t57.5 -6q26 -4 43 -8l-24 -155q-12 3 -26 6l-27 4.5t-31 2.5q-31 0 -53 -12t-22 -44v-119h162z" />
    <glyph glyph-name="sicon-social-gplus-s" unicode="&#xf2ed;" 
d="M1000 340v-77h-132v-133h-78v133h-132v77h132v133h78v-133h132zM532 685h-77q23 -18 41 -43q16 -21 29 -51.5t13 -68.5t-10 -67.5t-24.5 -52t-30.5 -38.5t-29 -28t-19.5 -22t-9.5 -17.5t-3 -12v-5.5q0 -2 -0.5 -8t6 -18t23 -30.5t51.5 -44.5t53.5 -53.5t26.5 -51t9 -40
t1 -19.5q-3 -64 -36 -115q-14 -22 -36 -43.5t-54.5 -39t-77 -29.5t-102.5 -15q-57 -3 -100 6t-74 25t-51.5 37t-32 42t-15.5 40.5t-2 32.5q2 53 37 97q15 19 39 37.5t59 33.5t83.5 26t113.5 14q-15 18 -24 40q-8 19 -10 43.5t12 51.5q-29 -7 -71.5 0t-82 30.5t-67 64
t-24.5 100.5q2 64 26.5 106t60 68.5t76 39.5t76.5 18t61.5 5h30.5h208zM503 -35q0 33 -18 59t-41 46t-44.5 34t-28.5 23q-4 0 -25 1t-50.5 -2t-63 -11t-62 -25t-47 -45t-18.5 -71q0 -49 26.5 -78.5t62.5 -45t72.5 -20.5t57.5 -5q14 0 43.5 3.5t59.5 17.5t53 42t23 77z
M356 332q21 4 40.5 18.5t30.5 42.5t9.5 70.5t-22.5 101.5q-21 58 -48.5 85t-52.5 35q-29 10 -58 2q-8 -2 -27 -11.5t-35.5 -31.5t-24 -59.5t9.5 -95.5q16 -58 38.5 -91t46.5 -49t48 -18t45 1z" />
    <glyph glyph-name="sicon-sound-silence" unicode="&#xf260;" 
d="M0 373h192l245 190v-622l-242 184h-195v248zM1000 363l-113 -113l113 -113l-76 -76l-113 113l-113 -113l-76 76l114 113l-114 113l76 76l113 -114l113 114z" />
    <glyph glyph-name="sicon-social-soundcloud" unicode="&#xf2ee;" 
d="M367 165l-6 -107q-2 -11 -12 -11q-11 0 -11 11l-6 107l6 229q0 12 11 12q10 0 12 -12zM273 393l8 -228l-8 -109q0 -9 -9 -9q-10 0 -10 9l-7 109l7 228q0 9 10 9q9 0 9 -9zM96 49q-6 0 -6 6l-9 110l9 113q0 6 6 6t6 -6l11 -113l-11 -110q0 -6 -6 -6zM450 70l-1 -11
q0 -6 -4 -9q-4 -4 -9 -4t-10 5q-3 3 -3 8l-5 106l5 261v2q0 7 6 11q4 2 7 2q2 0 8 -2q5 -3 5 -11l6 -263zM179 344q8 0 8 -8l9 -171l-9 -111q0 -7 -8 -7q-6 0 -8 7l-8 111l8 171q2 8 8 8zM144 54v1v-1zM14 70q-4 0 -4 4l-10 91l10 93q0 4 4 4t5 -4l11 -93l-11 -91
q-2 -4 -5 -4zM873 301q26 0 49 -10t40.5 -27.5t27.5 -40.5t10 -50q0 -26 -10 -49t-27.5 -40t-40.5 -27t-49 -10h-353q-14 0 -14 14v404q0 6 2 9.5t10 5.5q40 16 82 16q44 0 83 -16t69 -43.5t48.5 -65t22.5 -80.5q25 10 50 10z" />
    <glyph glyph-name="sicon-calendar" unicode="&#xf2ab;" 
d="M812 625h188v-875h-1000v875h187v125h63v-125h219v125h62v-125h219v125h62v-125zM937 -188v625h-875v-625h875zM187 -63v125h125v-125h-125zM437 -63v125h125v-125h-125zM687 -63v125h125v-125h-125zM187 187v125h125v-125h-125zM437 187v125h125v-125h-125zM687 187v125
h125v-125h-125z" />
  </font>
</defs>
</svg>
