<?xml version="1.0" standalone="no"?><!DOCTYPE svg PUBLIC "-//W3C//DTD SVG 1.1//EN" "http://www.w3.org/Graphics/SVG/1.1/DTD/svg11.dtd"><svg width="100%" height="100%" viewBox="0 0 160 280" version="1.1" xmlns="http://www.w3.org/2000/svg" xmlns:xlink="http://www.w3.org/1999/xlink" xml:space="preserve" style="fill-rule:evenodd;clip-rule:evenodd;stroke-linecap:round;stroke-linejoin:round;stroke-miterlimit:1.41421;"><g><g><path d="M145.676,266.087l-131.349,0l0,6.23c0,3.147 2.555,5.702 5.702,5.702l119.944,0c3.148,0 5.703,-2.555 5.703,-5.702l0,-6.23Z" style="fill:#4d4d4d;"/><path d="M145.676,266.087l-131.349,0c0,-36.432 29.428,-66.011 65.674,-66.011c36.247,0 65.675,29.579 65.675,66.011Z" style="fill:#d2cbd0;"/></g><g><path d="M21.823,235.451c10.989,-21.023 32.93,-35.375 58.178,-35.375c25.249,0 47.189,14.352 58.179,35.375c-14.368,15.855 -35.119,25.821 -58.179,25.821c-23.06,0 -43.811,-9.966 -58.178,-25.821Z" style="fill:#333;fill-opacity:0.101961;"/><circle cx="80.001" cy="176.709" r="78" style="fill:url(#_Radial1);"/><circle cx="80.001" cy="176.709" r="78" style="fill:url(#_Linear2);"/></g><g><rect id="tube" x="59.794" y="64.162" width="40.415" height="80.83" style="fill:url(#_Linear3);"/><path d="M59.794,90.123l0,-18.888l40.415,0l0,18.888c-6.367,2.071 -13.158,3.189 -20.208,3.189c-7.049,0 -13.84,-1.118 -20.207,-3.189Z" style="fill:url(#_Linear4);"/><rect id="tube1" x="59.794" y="64.162" width="40.415" height="80.83" style="fill:none;stroke-width:2px;stroke:#8d8f9d;"/></g><g><path d="M21.804,167.778c0,-0.954 116.396,-0.779 116.396,0c0,43.709 -26.078,79.195 -58.198,79.195c-32.12,0 -58.198,-35.486 -58.198,-79.195Z" style="fill:url(#_Linear5);"/><circle cx="80.002" cy="167.128" r="58.198" style="fill:url(#_Linear6);"/><circle cx="79.998" cy="167.124" r="52.72" style="fill:url(#_Linear7);"/><circle cx="80" cy="167.125" r="50.009" style="fill:url(#_Linear8);"/></g><path d="M120.59,169.508c0,-1.325 -1.076,-2.401 -2.401,-2.401l-76.376,0c-1.325,0 -2.401,1.076 -2.401,2.401l0,4.8c0,1.326 1.076,2.401 2.401,2.401l76.376,0c1.325,0 2.401,-1.075 2.401,-2.401l0,-4.8Z" style="fill:url(#_Linear9);stroke-width:2px;stroke:#9c9daa;"/><g id="gold"><path d="M72.743,154.789c-0.568,-0.544 -1.104,-1.121 -1.606,-1.727c0.072,-0.051 0.143,-0.103 0.214,-0.154c0.205,-0.145 0.409,-0.29 0.612,-0.438c0.177,-0.128 0.353,-0.259 0.529,-0.389c0.096,-0.071 0.194,-0.142 0.29,-0.212c0.136,-0.101 0.272,-0.202 0.407,-0.303c0.068,-0.051 0.135,-0.101 0.202,-0.152c0.068,-0.051 0.134,-0.103 0.202,-0.153c0.136,-0.099 0.272,-0.198 0.407,-0.298c0.142,-0.106 0.285,-0.212 0.426,-0.319c0.114,-0.08 0.227,-0.159 0.341,-0.239l0.048,-0.031c0.071,-0.044 0.141,-0.089 0.211,-0.133l-0.223,0.111l-0.052,0.025l-0.178,0.075c-0.077,0.032 -0.153,0.067 -0.231,0.096c-0.236,0.086 -0.472,0.171 -0.708,0.255c-0.096,0.033 -0.191,0.069 -0.287,0.1c-0.414,0.133 -0.83,0.258 -1.248,0.379l-0.14,0.039c-0.241,0.064 -0.482,0.129 -0.724,0.191c-0.16,0.041 -0.321,0.083 -0.482,0.12c-0.2,0.047 -0.4,0.092 -0.601,0.137c-0.446,-0.636 -0.856,-1.299 -1.228,-1.985c0.057,-0.026 0.114,-0.052 0.171,-0.079c0.09,-0.041 0.179,-0.084 0.269,-0.125c0.289,-0.132 0.578,-0.265 0.865,-0.401c0.25,-0.119 0.498,-0.24 0.748,-0.359c0.166,-0.079 0.332,-0.159 0.497,-0.239c0.19,-0.093 0.38,-0.188 0.57,-0.283c0.182,-0.085 0.363,-0.172 0.544,-0.259c0.174,-0.084 0.348,-0.169 0.522,-0.255c0.137,-0.061 0.274,-0.122 0.411,-0.185c0.061,-0.023 0.123,-0.046 0.184,-0.07c0.042,-0.016 0.084,-0.032 0.126,-0.049c-0.107,0.028 -0.214,0.056 -0.322,0.083l-0.073,0.014c-0.123,0.023 -0.246,0.046 -0.369,0.068l-0.032,0.005c-0.27,0.036 -0.541,0.071 -0.812,0.103c-0.108,0.013 -0.216,0.028 -0.324,0.038c-0.208,0.02 -0.417,0.034 -0.626,0.049c0,0 0.002,0 0.001,0c-0.262,0.019 -0.523,0.037 -0.786,0.051c-0.099,0.006 -0.2,0.009 -0.299,0.013c-0.001,0 0.002,-0.001 0.001,-0.001c-0.361,0.013 -0.722,0.022 -1.083,0.029l0.002,-0.001c-0.135,0.003 -0.27,0.002 -0.405,0.001c-0.222,-0.001 -0.444,-0.003 -0.666,-0.007c-0.312,-0.749 -0.579,-1.521 -0.8,-2.312c0.142,-0.021 0.284,-0.042 0.426,-0.065c0.109,-0.017 0.217,-0.035 0.326,-0.052c0.34,-0.053 0.68,-0.108 1.019,-0.168c0.21,-0.037 0.419,-0.077 0.629,-0.115c0.334,-0.061 0.668,-0.123 1.001,-0.189c0.178,-0.036 0.356,-0.072 0.534,-0.11c0.117,-0.022 0.233,-0.044 0.349,-0.067c0.147,-0.028 0.294,-0.057 0.441,-0.087c0.158,-0.033 0.317,-0.066 0.475,-0.1c0.162,-0.028 0.323,-0.057 0.484,-0.087l0.066,-0.008c0.098,-0.013 0.196,-0.026 0.294,-0.039c-0.099,0.003 -0.197,0.006 -0.296,0.008c-0.022,0 -0.045,0.002 -0.067,0.001c-0.027,0 -0.054,-0.002 -0.082,-0.003c-0.136,-0.005 -0.272,-0.011 -0.408,-0.017l-0.037,-0.003l-0.148,-0.013c-0.364,-0.034 -0.727,-0.07 -1.089,-0.112l-0.092,-0.013c-0.477,-0.07 -0.953,-0.144 -1.428,-0.23c-0.107,-0.019 -0.214,-0.041 -0.321,-0.063c-0.145,-0.029 -0.289,-0.058 -0.433,-0.088c-0.279,-0.059 -0.557,-0.12 -0.834,-0.184c-0.103,-0.024 -0.206,-0.05 -0.308,-0.076c-0.189,-0.047 -0.377,-0.096 -0.565,-0.146c-0.137,-0.036 -0.273,-0.073 -0.409,-0.11c-0.154,-0.934 -0.244,-1.888 -0.265,-2.86c0.167,0.031 0.335,0.061 0.503,0.09c0.172,0.03 0.345,0.057 0.517,0.085c0.377,0.063 0.754,0.121 1.133,0.172c0.23,0.031 0.461,0.058 0.692,0.087c0.208,0.026 0.417,0.052 0.626,0.075c0.219,0.024 0.439,0.046 0.658,0.067c0.143,0.013 0.286,0.025 0.428,0.037c0.186,0.019 0.371,0.037 0.557,0.053c0.164,0.014 0.327,0.028 0.491,0.04c0.123,0.009 0.245,0.018 0.367,0.026c0.18,0.018 0.359,0.035 0.539,0.05l0.073,0.01c0.108,0.015 0.215,0.029 0.323,0.043c-0.13,-0.03 -0.26,-0.059 -0.389,-0.09l-0.086,-0.025c-0.144,-0.043 -0.288,-0.086 -0.431,-0.13l-0.037,-0.013c-0.43,-0.152 -0.858,-0.31 -1.282,-0.477l-0.09,-0.038c-0.487,-0.208 -0.97,-0.424 -1.447,-0.653c-0.106,-0.051 -0.211,-0.105 -0.317,-0.159c-0.143,-0.072 -0.285,-0.146 -0.428,-0.221c-0.277,-0.145 -0.553,-0.295 -0.827,-0.448c-0.098,-0.055 -0.196,-0.113 -0.293,-0.171c-0.137,-0.08 -0.274,-0.162 -0.411,-0.245c-0.265,-0.16 -0.528,-0.325 -0.788,-0.493c0.103,-1.124 0.299,-2.222 0.579,-3.287c0.21,0.133 0.422,0.262 0.635,0.389c0.164,0.098 0.33,0.192 0.495,0.288c0.318,0.182 0.637,0.361 0.96,0.533c0.164,0.087 0.328,0.172 0.493,0.255c0.117,0.06 0.236,0.118 0.354,0.177c0.211,0.105 0.423,0.209 0.636,0.31c0.276,0.131 0.554,0.256 0.834,0.378c0.088,0.038 0.176,0.076 0.265,0.114c0.411,0.184 0.827,0.357 1.245,0.523c0.07,0.027 0.139,0.054 0.208,0.08c0.099,0.042 0.198,0.083 0.297,0.123c0.086,0.035 0.172,0.07 0.258,0.104l0.076,0.035c0.11,0.048 0.22,0.097 0.33,0.145c-0.159,-0.086 -0.159,-0.086 -0.317,-0.173c-0.024,-0.013 -0.048,-0.026 -0.071,-0.04c-0.08,-0.048 -0.158,-0.099 -0.236,-0.149c-0.129,-0.081 -0.15,-0.095 -0.269,-0.173l-0.033,-0.023c-0.413,-0.292 -0.819,-0.592 -1.216,-0.904l-0.08,-0.065c-0.45,-0.375 -0.89,-0.761 -1.317,-1.162c-0.136,-0.128 -0.267,-0.26 -0.399,-0.391c-0.328,-0.33 -0.648,-0.668 -0.961,-1.013c-0.121,-0.133 -0.237,-0.271 -0.353,-0.408c-0.189,-0.221 -0.374,-0.446 -0.555,-0.674c-0.169,-0.212 -0.334,-0.427 -0.497,-0.644c0.525,-1.309 1.183,-2.551 1.957,-3.709l0.063,0.094c2.673,3.951 6.704,6.91 11.421,8.205c-0.869,1.136 -1.386,2.556 -1.386,4.095c0,3.726 3.026,6.751 6.752,6.751l0.022,0.001c0.552,0.003 1.074,0.14 1.534,0.379c0.066,0.027 0.131,0.057 0.194,0.089c0.096,0.048 0.19,0.1 0.279,0.16c0.277,0.186 0.51,0.431 0.694,0.708c0.08,0.12 0.151,0.245 0.214,0.375c0.279,0.491 0.438,1.059 0.438,1.664c0,0.025 0,0.05 0,0.075c0,0.011 0,0.022 0,0.033l0.002,-0.011c0.045,-0.265 0.059,-0.536 0.055,-0.804c-0.005,-0.3 -0.037,-0.602 -0.102,-0.896c-0.027,-0.12 -0.061,-0.239 -0.1,-0.355c-0.123,-0.366 -0.305,-0.713 -0.548,-1.013c-0.157,-0.195 -0.339,-0.367 -0.539,-0.518c-0.118,-0.089 -0.246,-0.166 -0.376,-0.235c-0.253,-0.135 -0.523,-0.237 -0.801,-0.311c-0.196,-0.052 -0.397,-0.084 -0.598,-0.109c-0.061,-0.007 -0.121,-0.013 -0.182,-0.019c-0.089,-0.007 -0.178,-0.012 -0.267,-0.019c-0.16,-0.012 -0.32,-0.027 -0.478,-0.048c-0.156,-0.021 -0.311,-0.047 -0.465,-0.08c-0.078,-0.016 -0.156,-0.035 -0.234,-0.054c-0.097,-0.023 -0.194,-0.047 -0.291,-0.075c-0.217,-0.061 -0.43,-0.132 -0.641,-0.213c-0.073,-0.028 -0.146,-0.055 -0.219,-0.084c-0.081,-0.033 -0.161,-0.069 -0.241,-0.105c-0.075,-0.034 -0.151,-0.067 -0.226,-0.104c0.343,-0.577 0.576,-1.118 0.679,-1.579c0.64,0.391 1.392,0.617 2.197,0.617c0.806,0 1.561,-0.227 2.202,-0.621c0.238,1.071 1.177,2.571 2.572,3.967l-0.003,0.004c1.223,1.222 1.98,2.91 1.98,4.774c0,3.727 -3.025,6.752 -6.751,6.752l-0.066,0c-4.964,-0.016 -9.51,-1.822 -13.026,-4.805c0.021,-0.021 0.042,-0.042 0.063,-0.063c0.276,-0.274 0.549,-0.55 0.82,-0.829c0.109,-0.113 0.22,-0.225 0.33,-0.338c0.11,-0.113 0.219,-0.227 0.328,-0.34c0.108,-0.114 0.215,-0.23 0.325,-0.342c0.11,-0.113 0.219,-0.225 0.329,-0.338c0.115,-0.12 0.23,-0.239 0.344,-0.36c0.092,-0.091 0.183,-0.183 0.275,-0.274l0.039,-0.036c0.058,-0.053 0.115,-0.105 0.173,-0.158l-0.186,0.142l-0.042,0.032c-0.114,0.078 -0.206,0.142 -0.321,0.219c-0.072,0.049 -0.148,0.093 -0.222,0.139c-0.132,0.082 -0.267,0.165 -0.4,0.246c-0.079,0.049 -0.158,0.098 -0.239,0.145c-0.19,0.109 -0.381,0.216 -0.572,0.323c-0.163,0.09 -0.326,0.181 -0.49,0.269c-0.089,0.047 -0.257,0.135 -0.332,0.173c-0.27,0.14 -0.542,0.277 -0.814,0.412c-0.075,0.037 -0.15,0.073 -0.225,0.109c-0.032,0.015 -0.064,0.03 -0.097,0.045l0,0Z" style="fill:#7e8191;"/><path d="M84.161,137.99c0.503,-1.481 1.474,-2.485 2.588,-2.485c1.114,0 2.084,1.004 2.588,2.485c-0.715,-0.556 -1.613,-0.887 -2.588,-0.887c-0.975,0 -1.873,0.331 -2.588,0.887l0,0Z" style="fill:#7e8191;"/><path d="M88.437,139.405c1.956,0.461 3.361,1.702 3.375,3.161l0,0.022c-1.296,0 -2.479,0.326 -3.375,0.861l0,-4.044Z" style="fill:#7e8191;"/><path d="M86.749,137.947c1.863,0 3.375,1.512 3.375,3.375c0,1.863 -1.512,3.376 -3.375,3.376c-1.863,0 -3.376,-1.513 -3.376,-3.376c0,-1.863 1.513,-3.375 3.376,-3.375l0,0ZM85.918,141.176c0.236,0.092 0.523,0.146 0.831,0.146c0.308,0 0.594,-0.054 0.831,-0.146c0.008,0.047 0.013,0.096 0.013,0.146c0,0.466 -0.378,0.844 -0.844,0.844c-0.466,0 -0.844,-0.378 -0.844,-0.844c0,-0.05 0.004,-0.099 0.013,-0.146Z" style="fill:#7e8191;"/></g><g id="gold1"><path d="M72.743,153.789c-0.568,-0.544 -1.104,-1.121 -1.606,-1.727c0.072,-0.051 0.143,-0.103 0.214,-0.154c0.205,-0.145 0.409,-0.29 0.612,-0.438c0.177,-0.128 0.353,-0.259 0.529,-0.389c0.096,-0.071 0.194,-0.142 0.29,-0.212c0.136,-0.101 0.272,-0.202 0.407,-0.303c0.068,-0.051 0.135,-0.101 0.202,-0.152c0.068,-0.051 0.134,-0.103 0.202,-0.153c0.136,-0.099 0.272,-0.198 0.407,-0.298c0.142,-0.106 0.285,-0.212 0.426,-0.319c0.114,-0.08 0.227,-0.159 0.341,-0.239l0.048,-0.031c0.071,-0.044 0.141,-0.089 0.211,-0.133l-0.223,0.111l-0.052,0.025l-0.178,0.075c-0.077,0.032 -0.153,0.067 -0.231,0.096c-0.236,0.086 -0.472,0.171 -0.708,0.255c-0.096,0.033 -0.191,0.069 -0.287,0.1c-0.414,0.133 -0.83,0.258 -1.248,0.379l-0.14,0.039c-0.241,0.064 -0.482,0.129 -0.724,0.191c-0.16,0.041 -0.321,0.083 -0.482,0.12c-0.2,0.047 -0.4,0.092 -0.601,0.137c-0.446,-0.636 -0.856,-1.299 -1.228,-1.985c0.057,-0.026 0.114,-0.052 0.171,-0.079c0.09,-0.041 0.179,-0.084 0.269,-0.125c0.289,-0.132 0.578,-0.265 0.865,-0.401c0.25,-0.119 0.498,-0.24 0.748,-0.359c0.166,-0.079 0.332,-0.159 0.497,-0.239c0.19,-0.093 0.38,-0.188 0.57,-0.283c0.182,-0.085 0.363,-0.172 0.544,-0.259c0.174,-0.084 0.348,-0.169 0.522,-0.255c0.137,-0.061 0.274,-0.122 0.411,-0.185c0.061,-0.023 0.123,-0.046 0.184,-0.07c0.042,-0.016 0.084,-0.032 0.126,-0.049c-0.107,0.028 -0.214,0.056 -0.322,0.083l-0.073,0.014c-0.123,0.023 -0.246,0.046 -0.369,0.068l-0.032,0.005c-0.27,0.036 -0.541,0.071 -0.812,0.103c-0.108,0.013 -0.216,0.028 -0.324,0.038c-0.208,0.02 -0.417,0.034 -0.626,0.049c0,0 0.002,0 0.001,0c-0.262,0.019 -0.523,0.037 -0.786,0.051c-0.099,0.006 -0.2,0.009 -0.299,0.013c-0.001,0 0.002,-0.001 0.001,-0.001c-0.361,0.013 -0.722,0.022 -1.083,0.029l0.002,-0.001c-0.135,0.003 -0.27,0.002 -0.405,0.001c-0.222,-0.001 -0.444,-0.003 -0.666,-0.007c-0.312,-0.749 -0.579,-1.521 -0.8,-2.312c0.142,-0.021 0.284,-0.042 0.426,-0.065c0.109,-0.017 0.217,-0.035 0.326,-0.052c0.34,-0.053 0.68,-0.108 1.019,-0.168c0.21,-0.037 0.419,-0.077 0.629,-0.115c0.334,-0.061 0.668,-0.123 1.001,-0.189c0.178,-0.036 0.356,-0.072 0.534,-0.11c0.117,-0.022 0.233,-0.044 0.349,-0.067c0.147,-0.028 0.294,-0.057 0.441,-0.087c0.158,-0.033 0.317,-0.066 0.475,-0.1c0.162,-0.028 0.323,-0.057 0.484,-0.087l0.066,-0.008c0.098,-0.013 0.196,-0.026 0.294,-0.039c-0.099,0.003 -0.197,0.006 -0.296,0.008c-0.022,0 -0.045,0.002 -0.067,0.001c-0.027,0 -0.054,-0.002 -0.082,-0.003c-0.136,-0.005 -0.272,-0.011 -0.408,-0.017l-0.037,-0.003l-0.148,-0.013c-0.364,-0.034 -0.727,-0.07 -1.089,-0.112l-0.092,-0.013c-0.477,-0.07 -0.953,-0.144 -1.428,-0.23c-0.107,-0.019 -0.214,-0.041 -0.321,-0.063c-0.145,-0.029 -0.289,-0.058 -0.433,-0.088c-0.279,-0.059 -0.557,-0.12 -0.834,-0.184c-0.103,-0.024 -0.206,-0.05 -0.308,-0.076c-0.189,-0.047 -0.377,-0.096 -0.565,-0.146c-0.137,-0.036 -0.273,-0.073 -0.409,-0.11c-0.154,-0.934 -0.244,-1.888 -0.265,-2.86c0.167,0.031 0.335,0.061 0.503,0.09c0.172,0.03 0.345,0.057 0.517,0.085c0.377,0.063 0.754,0.121 1.133,0.172c0.23,0.031 0.461,0.058 0.692,0.087c0.208,0.026 0.417,0.052 0.626,0.075c0.219,0.024 0.439,0.046 0.658,0.067c0.143,0.013 0.286,0.025 0.428,0.037c0.186,0.019 0.371,0.037 0.557,0.053c0.164,0.014 0.327,0.028 0.491,0.04c0.123,0.009 0.245,0.018 0.367,0.026c0.18,0.018 0.359,0.035 0.539,0.05l0.073,0.01c0.108,0.015 0.215,0.029 0.323,0.043c-0.13,-0.03 -0.26,-0.059 -0.389,-0.09l-0.086,-0.025c-0.144,-0.043 -0.288,-0.086 -0.431,-0.13l-0.037,-0.013c-0.43,-0.152 -0.858,-0.31 -1.282,-0.477l-0.09,-0.038c-0.487,-0.208 -0.97,-0.424 -1.447,-0.653c-0.106,-0.051 -0.211,-0.105 -0.317,-0.159c-0.143,-0.072 -0.285,-0.146 -0.428,-0.221c-0.277,-0.145 -0.553,-0.295 -0.827,-0.448c-0.098,-0.055 -0.196,-0.113 -0.293,-0.171c-0.137,-0.08 -0.274,-0.162 -0.411,-0.245c-0.265,-0.16 -0.528,-0.325 -0.788,-0.493c0.103,-1.124 0.299,-2.222 0.579,-3.287c0.21,0.133 0.422,0.262 0.635,0.389c0.164,0.098 0.33,0.192 0.495,0.288c0.318,0.182 0.637,0.361 0.96,0.533c0.164,0.087 0.328,0.172 0.493,0.255c0.117,0.06 0.236,0.118 0.354,0.177c0.211,0.105 0.423,0.209 0.636,0.31c0.276,0.131 0.554,0.256 0.834,0.378c0.088,0.038 0.176,0.076 0.265,0.114c0.411,0.184 0.827,0.357 1.245,0.523c0.07,0.027 0.139,0.054 0.208,0.08c0.099,0.042 0.198,0.083 0.297,0.123c0.086,0.035 0.172,0.07 0.258,0.104l0.076,0.035c0.11,0.048 0.22,0.097 0.33,0.145c-0.159,-0.086 -0.159,-0.086 -0.317,-0.173c-0.024,-0.013 -0.048,-0.026 -0.071,-0.04c-0.08,-0.048 -0.158,-0.099 -0.236,-0.149c-0.129,-0.081 -0.15,-0.095 -0.269,-0.173l-0.033,-0.023c-0.413,-0.292 -0.819,-0.592 -1.216,-0.904l-0.08,-0.065c-0.45,-0.375 -0.89,-0.761 -1.317,-1.162c-0.136,-0.128 -0.267,-0.26 -0.399,-0.391c-0.328,-0.33 -0.648,-0.668 -0.961,-1.013c-0.121,-0.133 -0.237,-0.271 -0.353,-0.408c-0.189,-0.221 -0.374,-0.446 -0.555,-0.674c-0.169,-0.212 -0.334,-0.427 -0.497,-0.644c0.525,-1.309 1.183,-2.551 1.957,-3.709l0.063,0.094c2.673,3.951 6.704,6.91 11.421,8.205c-0.869,1.136 -1.386,2.556 -1.386,4.095c0,3.726 3.026,6.751 6.752,6.751l0.022,0.001c0.552,0.003 1.074,0.14 1.534,0.379c0.066,0.027 0.131,0.057 0.194,0.089c0.096,0.048 0.19,0.1 0.279,0.16c0.277,0.186 0.51,0.431 0.694,0.708c0.08,0.12 0.151,0.245 0.214,0.375c0.279,0.491 0.438,1.059 0.438,1.664c0,0.025 0,0.05 0,0.075c0,0.011 0,0.022 0,0.033l0.002,-0.011c0.045,-0.265 0.059,-0.536 0.055,-0.804c-0.005,-0.3 -0.037,-0.602 -0.102,-0.896c-0.027,-0.12 -0.061,-0.239 -0.1,-0.355c-0.123,-0.366 -0.305,-0.713 -0.548,-1.013c-0.157,-0.195 -0.339,-0.367 -0.539,-0.518c-0.118,-0.089 -0.246,-0.166 -0.376,-0.235c-0.253,-0.135 -0.523,-0.237 -0.801,-0.311c-0.196,-0.052 -0.397,-0.084 -0.598,-0.109c-0.061,-0.007 -0.121,-0.013 -0.182,-0.019c-0.089,-0.007 -0.178,-0.012 -0.267,-0.019c-0.16,-0.012 -0.32,-0.027 -0.478,-0.048c-0.156,-0.021 -0.311,-0.047 -0.465,-0.08c-0.078,-0.016 -0.156,-0.035 -0.234,-0.054c-0.097,-0.023 -0.194,-0.047 -0.291,-0.075c-0.217,-0.061 -0.43,-0.132 -0.641,-0.213c-0.073,-0.028 -0.146,-0.055 -0.219,-0.084c-0.081,-0.033 -0.161,-0.069 -0.241,-0.105c-0.075,-0.034 -0.151,-0.067 -0.226,-0.104c0.343,-0.577 0.576,-1.118 0.679,-1.579c0.64,0.391 1.392,0.617 2.197,0.617c0.806,0 1.561,-0.227 2.202,-0.621c0.238,1.071 1.177,2.571 2.572,3.967l-0.003,0.004c1.223,1.222 1.98,2.91 1.98,4.774c0,3.727 -3.025,6.752 -6.751,6.752l-0.066,0c-4.964,-0.016 -9.51,-1.822 -13.026,-4.805c0.021,-0.021 0.042,-0.042 0.063,-0.063c0.276,-0.274 0.549,-0.55 0.82,-0.829c0.109,-0.113 0.22,-0.225 0.33,-0.338c0.11,-0.113 0.219,-0.227 0.328,-0.34c0.108,-0.114 0.215,-0.23 0.325,-0.342c0.11,-0.113 0.219,-0.225 0.329,-0.338c0.115,-0.12 0.23,-0.239 0.344,-0.36c0.092,-0.091 0.183,-0.183 0.275,-0.274l0.039,-0.036c0.058,-0.053 0.115,-0.105 0.173,-0.158l-0.186,0.142l-0.042,0.032c-0.114,0.078 -0.206,0.142 -0.321,0.219c-0.072,0.049 -0.148,0.093 -0.222,0.139c-0.132,0.082 -0.267,0.165 -0.4,0.246c-0.079,0.049 -0.158,0.098 -0.239,0.145c-0.19,0.109 -0.381,0.216 -0.572,0.323c-0.163,0.09 -0.326,0.181 -0.49,0.269c-0.089,0.047 -0.257,0.135 -0.332,0.173c-0.27,0.14 -0.542,0.277 -0.814,0.412c-0.075,0.037 -0.15,0.073 -0.225,0.109c-0.032,0.015 -0.064,0.03 -0.097,0.045l0,0Z" style="fill:url(#_Linear10);"/><path d="M84.161,136.99c0.503,-1.481 1.474,-2.485 2.588,-2.485c1.114,0 2.084,1.004 2.588,2.485c-0.715,-0.556 -1.613,-0.887 -2.588,-0.887c-0.975,0 -1.873,0.331 -2.588,0.887l0,0Z" style="fill:url(#_Linear11);"/><path d="M88.437,138.405c1.956,0.461 3.361,1.702 3.375,3.161l0,0.022c-1.296,0 -2.479,0.326 -3.375,0.861l0,-4.044Z" style="fill:url(#_Linear12);"/><path d="M86.749,136.947c1.863,0 3.375,1.512 3.375,3.375c0,1.863 -1.512,3.376 -3.375,3.376c-1.863,0 -3.376,-1.513 -3.376,-3.376c0,-1.863 1.513,-3.375 3.376,-3.375l0,0ZM85.918,140.176c0.236,0.092 0.523,0.146 0.831,0.146c0.308,0 0.594,-0.054 0.831,-0.146c0.008,0.047 0.013,0.096 0.013,0.146c0,0.466 -0.378,0.844 -0.844,0.844c-0.466,0 -0.844,-0.378 -0.844,-0.844c0,-0.05 0.004,-0.099 0.013,-0.146Z" style="fill:url(#_Linear13);"/></g><g><path d="M62.004,191.9l-2.918,0l-0.554,1.664l-1.77,0l3.006,-8.075l1.542,0l3.023,8.075l-1.769,0l-0.56,-1.664ZM59.536,190.552l2.018,0l-1.015,-3.022l-1.003,3.022Z" style="fill:#7b7e8e;fill-rule:nonzero;"/><rect x="64.976" y="189.46" width="3.122" height="1.292" style="fill:#7b7e8e;"/><path d="M71.155,190.719l0,2.845l-1.664,0l0,-8.075l3.15,0c0.607,0 1.14,0.111 1.601,0.332c0.46,0.222 0.814,0.537 1.062,0.946c0.247,0.409 0.371,0.874 0.371,1.395c0,0.791 -0.271,1.415 -0.812,1.872c-0.542,0.456 -1.292,0.685 -2.249,0.685l-1.459,0ZM71.155,189.371l1.486,0c0.44,0 0.776,-0.104 1.007,-0.311c0.231,-0.207 0.347,-0.502 0.347,-0.887c0,-0.396 -0.117,-0.716 -0.35,-0.96c-0.233,-0.244 -0.554,-0.369 -0.965,-0.377l-1.525,0l0,2.535Z" style="fill:#7b7e8e;fill-rule:nonzero;"/><path d="M83.451,189.709c0,0.795 -0.14,1.492 -0.422,2.091c-0.28,0.599 -0.683,1.061 -1.206,1.387c-0.523,0.325 -1.123,0.488 -1.8,0.488c-0.669,0 -1.266,-0.161 -1.791,-0.483c-0.525,-0.321 -0.932,-0.781 -1.22,-1.378c-0.289,-0.597 -0.435,-1.284 -0.438,-2.06l0,-0.4c0,-0.795 0.143,-1.494 0.429,-2.099c0.287,-0.605 0.692,-1.069 1.215,-1.392c0.523,-0.324 1.121,-0.485 1.794,-0.485c0.673,0 1.271,0.161 1.794,0.485c0.524,0.323 0.929,0.787 1.215,1.392c0.287,0.605 0.43,1.303 0.43,2.094l0,0.36ZM81.765,189.343c0,-0.847 -0.152,-1.49 -0.455,-1.93c-0.303,-0.44 -0.736,-0.66 -1.298,-0.66c-0.558,0 -0.989,0.217 -1.292,0.652c-0.303,0.434 -0.457,1.071 -0.46,1.91l0,0.394c0,0.825 0.151,1.465 0.455,1.919c0.303,0.455 0.739,0.682 1.308,0.682c0.559,0 0.988,-0.219 1.287,-0.657c0.3,-0.438 0.451,-1.077 0.455,-1.916l0,-0.394Z" style="fill:#7b7e8e;fill-rule:nonzero;"/><path d="M86.324,192.227l3.533,0l0,1.337l-5.197,0l0,-8.075l1.664,0l0,6.738Z" style="fill:#7b7e8e;fill-rule:nonzero;"/><path d="M92.475,192.227l3.533,0l0,1.337l-5.197,0l0,-8.075l1.664,0l0,6.738Z" style="fill:#7b7e8e;fill-rule:nonzero;"/><path d="M103.24,189.709c0,0.795 -0.141,1.492 -0.422,2.091c-0.281,0.599 -0.683,1.061 -1.206,1.387c-0.523,0.325 -1.123,0.488 -1.8,0.488c-0.669,0 -1.266,-0.161 -1.791,-0.483c-0.525,-0.321 -0.932,-0.781 -1.22,-1.378c-0.289,-0.597 -0.435,-1.284 -0.438,-2.06l0,-0.4c0,-0.795 0.143,-1.494 0.429,-2.099c0.287,-0.605 0.692,-1.069 1.215,-1.392c0.523,-0.324 1.121,-0.485 1.794,-0.485c0.673,0 1.271,0.161 1.794,0.485c0.524,0.323 0.929,0.787 1.215,1.392c0.287,0.605 0.43,1.303 0.43,2.094l0,0.36ZM101.554,189.343c0,-0.847 -0.152,-1.49 -0.455,-1.93c-0.303,-0.44 -0.736,-0.66 -1.298,-0.66c-0.558,0 -0.989,0.217 -1.292,0.652c-0.303,0.434 -0.457,1.071 -0.46,1.91l0,0.394c0,0.825 0.151,1.465 0.454,1.919c0.304,0.455 0.74,0.682 1.309,0.682c0.559,0 0.988,-0.219 1.287,-0.657c0.3,-0.438 0.451,-1.077 0.455,-1.916l0,-0.394Z" style="fill:#7b7e8e;fill-rule:nonzero;"/></g><g><path d="M62.004,190.89l-2.918,0l-0.554,1.663l-1.77,0l3.006,-8.075l1.542,0l3.023,8.075l-1.769,0l-0.56,-1.663ZM59.536,189.542l2.018,0l-1.015,-3.023l-1.003,3.023Z" style="fill:url(#_Linear14);fill-rule:nonzero;"/><rect x="64.976" y="188.449" width="3.122" height="1.292" style="fill:url(#_Linear15);"/><path d="M71.155,189.708l0,2.845l-1.664,0l0,-8.075l3.15,0c0.607,0 1.14,0.111 1.601,0.333c0.46,0.222 0.814,0.537 1.062,0.945c0.247,0.409 0.371,0.874 0.371,1.395c0,0.792 -0.271,1.416 -0.812,1.872c-0.542,0.457 -1.292,0.685 -2.249,0.685l-1.459,0ZM71.155,188.36l1.486,0c0.44,0 0.776,-0.103 1.007,-0.31c0.231,-0.207 0.347,-0.503 0.347,-0.887c0,-0.396 -0.117,-0.716 -0.35,-0.96c-0.233,-0.244 -0.554,-0.37 -0.965,-0.377l-1.525,0l0,2.534Z" style="fill:url(#_Linear16);fill-rule:nonzero;"/><path d="M83.451,188.699c0,0.795 -0.14,1.492 -0.422,2.091c-0.28,0.599 -0.683,1.061 -1.206,1.386c-0.523,0.326 -1.123,0.488 -1.8,0.488c-0.669,0 -1.266,-0.16 -1.791,-0.482c-0.525,-0.322 -0.932,-0.781 -1.22,-1.378c-0.289,-0.598 -0.435,-1.284 -0.438,-2.061l0,-0.399c0,-0.795 0.143,-1.495 0.429,-2.099c0.287,-0.605 0.692,-1.069 1.215,-1.392c0.523,-0.324 1.121,-0.486 1.794,-0.486c0.673,0 1.271,0.162 1.794,0.486c0.524,0.323 0.929,0.787 1.215,1.392c0.287,0.604 0.43,1.302 0.43,2.093l0,0.361ZM81.765,188.333c0,-0.847 -0.152,-1.49 -0.455,-1.93c-0.303,-0.44 -0.736,-0.66 -1.298,-0.66c-0.558,0 -0.989,0.217 -1.292,0.651c-0.303,0.435 -0.457,1.072 -0.46,1.911l0,0.394c0,0.824 0.151,1.464 0.455,1.919c0.303,0.455 0.739,0.682 1.308,0.682c0.559,0 0.988,-0.219 1.287,-0.657c0.3,-0.438 0.451,-1.077 0.455,-1.916l0,-0.394Z" style="fill:url(#_Linear17);fill-rule:nonzero;"/><path d="M86.324,191.217l3.533,0l0,1.336l-5.197,0l0,-8.075l1.664,0l0,6.739Z" style="fill:url(#_Linear18);fill-rule:nonzero;"/><path d="M92.475,191.217l3.533,0l0,1.336l-5.197,0l0,-8.075l1.664,0l0,6.739Z" style="fill:url(#_Linear19);fill-rule:nonzero;"/><path d="M103.24,188.699c0,0.795 -0.141,1.492 -0.422,2.091c-0.281,0.599 -0.683,1.061 -1.206,1.386c-0.523,0.326 -1.123,0.488 -1.8,0.488c-0.669,0 -1.266,-0.16 -1.791,-0.482c-0.525,-0.322 -0.932,-0.781 -1.22,-1.378c-0.289,-0.598 -0.435,-1.284 -0.438,-2.061l0,-0.399c0,-0.795 0.143,-1.495 0.429,-2.099c0.287,-0.605 0.692,-1.069 1.215,-1.392c0.523,-0.324 1.121,-0.486 1.794,-0.486c0.673,0 1.271,0.162 1.794,0.486c0.524,0.323 0.929,0.787 1.215,1.392c0.287,0.604 0.43,1.302 0.43,2.093l0,0.361ZM101.554,188.333c0,-0.847 -0.152,-1.49 -0.455,-1.93c-0.303,-0.44 -0.736,-0.66 -1.298,-0.66c-0.558,0 -0.989,0.217 -1.292,0.651c-0.303,0.435 -0.457,1.072 -0.46,1.911l0,0.394c0,0.824 0.151,1.464 0.454,1.919c0.304,0.455 0.74,0.682 1.309,0.682c0.559,0 0.988,-0.219 1.287,-0.657c0.3,-0.438 0.451,-1.077 0.455,-1.916l0,-0.394Z" style="fill:url(#_Linear20);fill-rule:nonzero;"/></g><g id="head"><path d="M14.326,14.125l131.35,0c0,36.432 -29.428,66.011 -65.675,66.011c-36.246,0 -65.675,-29.579 -65.675,-66.011Z" style="fill:url(#_Radial21);"/><path d="M14.326,14.125l131.35,0c0,36.432 -29.428,66.011 -65.675,66.011c-36.246,0 -65.675,-29.579 -65.675,-66.011Z" style="fill:url(#_Linear22);"/><path d="M25.718,14.125l108.566,0c0,30.113 -24.323,54.561 -54.283,54.561c-29.959,0 -54.283,-24.448 -54.283,-54.561Z" style="fill:url(#_Linear23);"/><g><path d="M150.728,8.062c0,-3.345 -2.717,-6.062 -6.063,-6.062l-129.329,0c-3.345,0 -6.061,2.717 -6.061,6.062l0,12.125c0,3.346 2.716,6.063 6.061,6.063l129.329,0c3.346,0 6.063,-2.717 6.063,-6.063l0,-12.125Z" style="fill:url(#_Linear24);"/><path d="M144.744,2.001l0.078,0.001l0.155,0.006l0.155,0.01l0.076,0.006l0.153,0.016l0.077,0.009l0.075,0.01l0.075,0.011l0.076,0.012l0.074,0.013l0.075,0.014l0.074,0.015l0.073,0.015l0.147,0.034l0.145,0.038l0.072,0.02l0.143,0.042l0.071,0.023l0.141,0.048l0.07,0.025l0.069,0.026l0.069,0.026l0.069,0.027l0.136,0.058l0.068,0.03l0.133,0.062l0.066,0.033l0.065,0.033l0.066,0.034l0.064,0.034l0.064,0.036l0.064,0.036l0.063,0.037l0.063,0.038l0.063,0.038l0.061,0.039l0.061,0.04l0.121,0.082l0.06,0.042l0.059,0.043l0.059,0.043l0.057,0.043l0.059,0.045l0.056,0.045l0.057,0.046l0.111,0.094l0.055,0.048l0.053,0.049l0.055,0.049l0.052,0.05l0.104,0.102l0.052,0.052l0.05,0.052l0.05,0.053l0.05,0.054l0.048,0.053l0.048,0.055l0.047,0.055l0.047,0.056l0.046,0.057l0.045,0.057l0.044,0.057l0.045,0.058l0.086,0.118l0.082,0.12l0.042,0.061l0.039,0.062l0.039,0.06l0.077,0.126l0.036,0.063l0.036,0.064l0.035,0.064l0.035,0.065l0.035,0.065l0.033,0.066l0.032,0.066l0.031,0.066l0.031,0.067l0.029,0.067l0.031,0.067l0.028,0.069l0.027,0.068l0.027,0.07l0.026,0.069l0.024,0.07l0.025,0.07l0.024,0.071l0.044,0.142l0.021,0.072l0.02,0.071l0.019,0.073l0.018,0.073l0.017,0.073l0.017,0.074l0.031,0.148l0.013,0.074l0.013,0.075l0.012,0.075l0.011,0.076l0.01,0.075l0.009,0.076l0.008,0.076l0.008,0.077l0.006,0.076l0.005,0.078l0.005,0.077l0.006,0.156l0.002,0.155l0,12.125l-0.001,0.078l-0.001,0.078l-0.003,0.078l-0.003,0.078l-0.005,0.077l-0.005,0.078l-0.006,0.076l-0.008,0.077l-0.008,0.076l-0.009,0.075l-0.01,0.076l-0.011,0.076l-0.012,0.075l-0.013,0.075l-0.013,0.074l-0.016,0.074l-0.015,0.074l-0.017,0.074l-0.017,0.073l-0.018,0.072l-0.019,0.073l-0.02,0.072l-0.021,0.072l-0.022,0.071l-0.022,0.071l-0.024,0.071l-0.025,0.07l-0.024,0.07l-0.026,0.069l-0.027,0.07l-0.027,0.068l-0.028,0.068l-0.031,0.067l-0.029,0.068l-0.031,0.067l-0.031,0.066l-0.032,0.066l-0.033,0.066l-0.035,0.065l-0.035,0.065l-0.035,0.064l-0.036,0.064l-0.036,0.063l-0.039,0.062l-0.038,0.063l-0.039,0.061l-0.039,0.062l-0.042,0.061l-0.041,0.06l-0.041,0.06l-0.043,0.059l-0.043,0.059l-0.045,0.058l-0.044,0.057l-0.045,0.057l-0.046,0.057l-0.047,0.056l-0.047,0.054l-0.048,0.055l-0.048,0.054l-0.05,0.054l-0.05,0.053l-0.05,0.052l-0.052,0.052l-0.052,0.051l-0.052,0.051l-0.052,0.05l-0.055,0.049l-0.053,0.049l-0.055,0.048l-0.056,0.047l-0.055,0.047l-0.057,0.045l-0.056,0.045l-0.059,0.045l-0.057,0.044l-0.059,0.044l-0.059,0.042l-0.06,0.042l-0.06,0.041l-0.061,0.041l-0.061,0.04l-0.061,0.039l-0.063,0.038l-0.063,0.038l-0.063,0.037l-0.064,0.036l-0.064,0.036l-0.064,0.034l-0.066,0.034l-0.065,0.033l-0.066,0.033l-0.067,0.031l-0.066,0.03l-0.068,0.03l-0.068,0.029l-0.068,0.029l-0.069,0.027l-0.069,0.027l-0.069,0.026l-0.07,0.025l-0.07,0.025l-0.071,0.023l-0.071,0.023l-0.071,0.021l-0.072,0.021l-0.072,0.02l-0.072,0.019l-0.073,0.019l-0.073,0.017l-0.074,0.017l-0.073,0.015l-0.074,0.015l-0.075,0.014l-0.074,0.013l-0.076,0.012l-0.075,0.011l-0.075,0.01l-0.077,0.009l-0.076,0.008l-0.077,0.008l-0.076,0.006l-0.078,0.005l-0.077,0.005l-0.077,0.003l-0.078,0.003l-0.078,0.001l-0.079,0.001l-129.329,0l-0.078,-0.001l-0.077,-0.001l-0.079,-0.003l-0.077,-0.003l-0.078,-0.005l-0.076,-0.005l-0.077,-0.006l-0.077,-0.008l-0.076,-0.008l-0.076,-0.009l-0.075,-0.01l-0.076,-0.011l-0.075,-0.012l-0.074,-0.013l-0.075,-0.014l-0.074,-0.015l-0.075,-0.015l-0.073,-0.017l-0.072,-0.017l-0.074,-0.019l-0.072,-0.019l-0.072,-0.02l-0.072,-0.021l-0.071,-0.021l-0.071,-0.023l-0.071,-0.023l-0.069,-0.025l-0.071,-0.025l-0.069,-0.026l-0.07,-0.027l-0.068,-0.027l-0.068,-0.029l-0.068,-0.029l-0.067,-0.03l-0.067,-0.03l-0.067,-0.031l-0.065,-0.033l-0.066,-0.033l-0.065,-0.034l-0.065,-0.034l-0.064,-0.036l-0.064,-0.036l-0.063,-0.037l-0.063,-0.038l-0.062,-0.038l-0.062,-0.039l-0.061,-0.04l-0.061,-0.041l-0.06,-0.041l-0.059,-0.042l-0.06,-0.042l-0.058,-0.044l-0.058,-0.044l-0.058,-0.045l-0.057,-0.045l-0.056,-0.045l-0.057,-0.047l-0.055,-0.047l-0.054,-0.048l-0.055,-0.049l-0.053,-0.049l-0.053,-0.05l-0.052,-0.051l-0.052,-0.051l-0.051,-0.052l-0.05,-0.052l-0.051,-0.053l-0.049,-0.054l-0.048,-0.054l-0.048,-0.055l-0.048,-0.054l-0.047,-0.056l-0.045,-0.057l-0.045,-0.057l-0.046,-0.057l-0.044,-0.058l-0.043,-0.059l-0.042,-0.059l-0.042,-0.06l-0.042,-0.06l-0.04,-0.061l-0.04,-0.062l-0.039,-0.061l-0.039,-0.063l-0.037,-0.062l-0.037,-0.063l-0.036,-0.064l-0.035,-0.064l-0.035,-0.065l-0.034,-0.065l-0.033,-0.066l-0.032,-0.066l-0.032,-0.066l-0.03,-0.067l-0.031,-0.068l-0.029,-0.067l-0.028,-0.068l-0.028,-0.068l-0.026,-0.07l-0.026,-0.069l-0.025,-0.07l-0.025,-0.07l-0.023,-0.071l-0.023,-0.071l-0.022,-0.071l-0.02,-0.072l-0.02,-0.072l-0.019,-0.073l-0.018,-0.072l-0.018,-0.073l-0.017,-0.074l-0.016,-0.074l-0.014,-0.074l-0.014,-0.074l-0.013,-0.075l-0.012,-0.075l-0.011,-0.076l-0.01,-0.076l-0.009,-0.075l-0.008,-0.076l-0.007,-0.077l-0.007,-0.076l-0.005,-0.078l-0.004,-0.077l-0.004,-0.078l-0.002,-0.078l-0.002,-0.078l0,-0.078l0,-12.125l0,-0.077l0.002,-0.078l0.002,-0.078l0.004,-0.078l0.004,-0.077l0.005,-0.078l0.007,-0.076l0.007,-0.077l0.008,-0.076l0.009,-0.076l0.01,-0.075l0.011,-0.076l0.012,-0.075l0.013,-0.075l0.014,-0.074l0.014,-0.074l0.016,-0.074l0.017,-0.074l0.018,-0.073l0.018,-0.073l0.019,-0.073l0.02,-0.071l0.02,-0.072l0.022,-0.071l0.023,-0.071l0.023,-0.071l0.025,-0.07l0.025,-0.07l0.026,-0.069l0.026,-0.07l0.028,-0.068l0.028,-0.069l0.029,-0.067l0.031,-0.067l0.03,-0.067l0.032,-0.066l0.032,-0.066l0.033,-0.066l0.034,-0.065l0.035,-0.065l0.035,-0.064l0.036,-0.064l0.037,-0.063l0.037,-0.063l0.039,-0.063l0.039,-0.06l0.04,-0.062l0.04,-0.061l0.042,-0.06l0.042,-0.06l0.042,-0.059l0.043,-0.059l0.044,-0.058l0.046,-0.057l0.045,-0.057l0.045,-0.057l0.047,-0.056l0.048,-0.055l0.048,-0.055l0.048,-0.053l0.049,-0.054l0.051,-0.053l0.05,-0.052l0.051,-0.052l0.052,-0.051l0.052,-0.051l0.053,-0.05l0.053,-0.049l0.055,-0.049l0.054,-0.048l0.055,-0.047l0.057,-0.047l0.056,-0.046l0.057,-0.045l0.058,-0.045l0.058,-0.043l0.058,-0.043l0.06,-0.043l0.059,-0.042l0.06,-0.041l0.061,-0.041l0.061,-0.04l0.062,-0.039l0.062,-0.038l0.063,-0.038l0.063,-0.037l0.064,-0.036l0.064,-0.036l0.065,-0.034l0.065,-0.034l0.066,-0.033l0.065,-0.033l0.067,-0.031l0.067,-0.031l0.067,-0.03l0.068,-0.029l0.068,-0.029l0.068,-0.027l0.07,-0.026l0.069,-0.026l0.071,-0.025l0.069,-0.024l0.071,-0.024l0.071,-0.023l0.071,-0.021l0.072,-0.021l0.072,-0.02l0.072,-0.019l0.074,-0.019l0.072,-0.017l0.073,-0.017l0.075,-0.015l0.074,-0.015l0.075,-0.014l0.074,-0.013l0.075,-0.012l0.076,-0.011l0.075,-0.01l0.076,-0.009l0.076,-0.008l0.077,-0.008l0.077,-0.006l0.076,-0.005l0.078,-0.005l0.077,-0.003l0.079,-0.003l0.077,-0.001l0.078,-0.001l129.329,0l0.079,0.001ZM15.344,4.001l-0.06,0l-0.053,0.001l-0.052,0.002l-0.053,0.002l-0.052,0.003l-0.051,0.004l-0.052,0.004l-0.052,0.005l-0.05,0.005l-0.051,0.006l-0.051,0.006l-0.051,0.008l-0.049,0.008l-0.05,0.009l-0.051,0.009l-0.049,0.01l-0.049,0.01l-0.049,0.011l-0.049,0.012l-0.049,0.012l-0.048,0.013l-0.049,0.013l-0.047,0.014l-0.048,0.014l-0.047,0.016l-0.048,0.015l-0.046,0.016l-0.046,0.017l-0.047,0.018l-0.046,0.017l-0.046,0.019l-0.045,0.019l-0.045,0.019l-0.046,0.02l-0.045,0.021l-0.044,0.021l-0.044,0.022l-0.044,0.022l-0.044,0.023l-0.043,0.023l-0.042,0.024l-0.043,0.024l-0.043,0.025l-0.042,0.025l-0.041,0.026l-0.042,0.026l-0.041,0.027l-0.041,0.027l-0.04,0.027l-0.04,0.029l-0.04,0.028l-0.04,0.029l-0.038,0.029l-0.039,0.03l-0.038,0.031l-0.038,0.031l-0.038,0.031l-0.037,0.032l-0.037,0.032l-0.036,0.033l-0.036,0.033l-0.036,0.034l-0.035,0.034l-0.035,0.034l-0.034,0.035l-0.034,0.035l-0.034,0.036l-0.033,0.036l-0.033,0.036l-0.032,0.037l-0.031,0.037l-0.031,0.038l-0.032,0.038l-0.031,0.038l-0.029,0.039l-0.03,0.038l-0.029,0.039l-0.028,0.04l-0.029,0.04l-0.028,0.041l-0.027,0.041l-0.026,0.041l-0.026,0.041l-0.026,0.042l-0.025,0.042l-0.026,0.042l-0.024,0.043l-0.023,0.043l-0.023,0.044l-0.023,0.043l-0.022,0.044l-0.021,0.044l-0.021,0.045l-0.022,0.045l-0.02,0.044l-0.019,0.045l-0.019,0.046l-0.018,0.046l-0.018,0.046l-0.017,0.046l-0.017,0.047l-0.016,0.047l-0.016,0.047l-0.015,0.047l-0.015,0.048l-0.014,0.048l-0.013,0.048l-0.013,0.048l-0.012,0.049l-0.011,0.049l-0.011,0.049l-0.011,0.048l-0.01,0.05l-0.009,0.05l-0.008,0.05l-0.008,0.05l-0.008,0.051l-0.006,0.05l-0.006,0.051l-0.006,0.052l-0.005,0.051l-0.004,0.052l-0.004,0.051l-0.003,0.053l-0.002,0.052l-0.002,0.052l-0.001,0.053l0,12.23l0.001,0.053l0.004,0.104l0.003,0.053l0.004,0.051l0.004,0.052l0.005,0.052l0.012,0.102l0.006,0.05l0.008,0.051l0.016,0.099l0.009,0.05l0.01,0.05l0.033,0.147l0.012,0.049l0.026,0.096l0.029,0.096l0.015,0.047l0.032,0.094l0.017,0.047l0.017,0.046l0.036,0.091l0.019,0.046l0.019,0.045l0.02,0.045l0.043,0.09l0.021,0.044l0.022,0.044l0.023,0.043l0.023,0.044l0.023,0.043l0.024,0.043l0.051,0.084l0.026,0.042l0.052,0.082l0.027,0.041l0.028,0.041l0.057,0.079l0.029,0.039l0.03,0.039l0.029,0.039l0.094,0.114l0.031,0.037l0.032,0.037l0.1,0.108l0.068,0.07l0.106,0.102l0.072,0.066l0.112,0.095l0.038,0.03l0.038,0.031l0.039,0.03l0.038,0.03l0.04,0.029l0.04,0.028l0.04,0.029l0.04,0.027l0.041,0.028l0.041,0.026l0.042,0.026l0.041,0.026l0.085,0.05l0.043,0.024l0.042,0.024l0.043,0.023l0.044,0.023l0.044,0.022l0.044,0.022l0.044,0.021l0.045,0.021l0.046,0.02l0.09,0.038l0.046,0.019l0.046,0.018l0.047,0.017l0.046,0.017l0.046,0.016l0.048,0.015l0.047,0.016l0.048,0.014l0.047,0.014l0.097,0.025l0.049,0.012l0.049,0.012l0.049,0.011l0.098,0.02l0.051,0.01l0.05,0.008l0.049,0.008l0.051,0.008l0.051,0.006l0.051,0.007l0.05,0.005l0.052,0.005l0.103,0.008l0.052,0.003l0.105,0.004l0.053,0.001l129.435,0l0.052,-0.001l0.052,-0.002l0.052,-0.002l0.053,-0.003l0.052,-0.004l0.051,-0.004l0.052,-0.005l0.051,-0.005l0.05,-0.007l0.051,-0.006l0.051,-0.008l0.05,-0.008l0.05,-0.008l0.049,-0.01l0.05,-0.01l0.049,-0.01l0.049,-0.011l0.05,-0.012l0.048,-0.012l0.048,-0.013l0.048,-0.012l0.049,-0.014l0.047,-0.014l0.047,-0.016l0.047,-0.015l0.048,-0.016l0.046,-0.017l0.046,-0.017l0.046,-0.018l0.047,-0.019l0.045,-0.019l0.045,-0.019l0.045,-0.02l0.045,-0.021l0.044,-0.021l0.044,-0.022l0.044,-0.022l0.044,-0.023l0.043,-0.023l0.043,-0.024l0.042,-0.024l0.043,-0.025l0.042,-0.025l0.042,-0.026l0.041,-0.026l0.041,-0.026l0.041,-0.028l0.041,-0.027l0.039,-0.029l0.04,-0.028l0.039,-0.029l0.04,-0.03l0.038,-0.03l0.039,-0.031l0.037,-0.03l0.038,-0.031l0.038,-0.032l0.036,-0.032l0.036,-0.033l0.036,-0.033l0.036,-0.033l0.036,-0.035l0.034,-0.034l0.034,-0.035l0.034,-0.035l0.034,-0.036l0.033,-0.036l0.033,-0.036l0.032,-0.037l0.032,-0.037l0.031,-0.038l0.031,-0.038l0.031,-0.038l0.03,-0.039l0.029,-0.039l0.029,-0.039l0.029,-0.04l0.028,-0.039l0.028,-0.041l0.027,-0.041l0.027,-0.041l0.026,-0.041l0.025,-0.042l0.025,-0.042l0.025,-0.043l0.025,-0.042l0.024,-0.043l0.023,-0.043l0.022,-0.044l0.022,-0.044l0.022,-0.044l0.021,-0.045l0.02,-0.045l0.02,-0.045l0.021,-0.045l0.018,-0.046l0.019,-0.045l0.018,-0.046l0.017,-0.046l0.016,-0.047l0.017,-0.047l0.015,-0.047l0.015,-0.047l0.014,-0.048l0.014,-0.048l0.015,-0.048l0.012,-0.048l0.012,-0.049l0.012,-0.049l0.011,-0.049l0.01,-0.049l0.01,-0.05l0.009,-0.05l0.009,-0.049l0.008,-0.05l0.007,-0.051l0.007,-0.05l0.006,-0.051l0.005,-0.052l0.005,-0.051l0.005,-0.051l0.003,-0.052l0.003,-0.053l0.002,-0.052l0.002,-0.052l0.001,-0.053l0,-0.06l0,-12.111l0,-0.059l-0.001,-0.053l-0.002,-0.052l-0.002,-0.052l-0.003,-0.053l-0.003,-0.051l-0.005,-0.052l-0.005,-0.051l-0.005,-0.052l-0.006,-0.051l-0.007,-0.05l-0.007,-0.051l-0.008,-0.05l-0.009,-0.05l-0.009,-0.05l-0.01,-0.05l-0.01,-0.048l-0.011,-0.049l-0.012,-0.049l-0.012,-0.048l-0.012,-0.049l-0.015,-0.048l-0.014,-0.048l-0.014,-0.048l-0.015,-0.047l-0.015,-0.047l-0.017,-0.047l-0.016,-0.047l-0.017,-0.046l-0.018,-0.046l-0.019,-0.046l-0.018,-0.046l-0.021,-0.045l-0.02,-0.044l-0.02,-0.045l-0.021,-0.045l-0.022,-0.044l-0.022,-0.044l-0.022,-0.043l-0.023,-0.044l-0.024,-0.043l-0.025,-0.042l-0.025,-0.043l-0.025,-0.042l-0.025,-0.042l-0.026,-0.041l-0.027,-0.041l-0.027,-0.041l-0.028,-0.041l-0.028,-0.04l-0.029,-0.04l-0.029,-0.039l-0.029,-0.038l-0.03,-0.039l-0.031,-0.038l-0.031,-0.038l-0.031,-0.038l-0.032,-0.037l-0.032,-0.037l-0.033,-0.036l-0.033,-0.036l-0.034,-0.036l-0.034,-0.035l-0.034,-0.035l-0.034,-0.034l-0.036,-0.034l-0.036,-0.034l-0.036,-0.033l-0.036,-0.033l-0.036,-0.032l-0.038,-0.032l-0.038,-0.031l-0.037,-0.031l-0.039,-0.031l-0.038,-0.03l-0.04,-0.029l-0.039,-0.029l-0.04,-0.028l-0.039,-0.029l-0.041,-0.027l-0.041,-0.027l-0.041,-0.027l-0.041,-0.026l-0.042,-0.026l-0.042,-0.025l-0.043,-0.025l-0.042,-0.024l-0.043,-0.024l-0.043,-0.023l-0.044,-0.023l-0.044,-0.022l-0.044,-0.022l-0.044,-0.021l-0.045,-0.021l-0.045,-0.02l-0.045,-0.019l-0.046,-0.019l-0.046,-0.019l-0.046,-0.017l-0.046,-0.018l-0.046,-0.017l-0.048,-0.016l-0.047,-0.015l-0.047,-0.016l-0.047,-0.014l-0.049,-0.014l-0.048,-0.013l-0.048,-0.013l-0.048,-0.012l-0.05,-0.012l-0.049,-0.011l-0.049,-0.01l-0.05,-0.01l-0.049,-0.009l-0.05,-0.009l-0.05,-0.008l-0.051,-0.008l-0.051,-0.006l-0.05,-0.006l-0.051,-0.005l-0.052,-0.005l-0.051,-0.004l-0.052,-0.004l-0.053,-0.003l-0.052,-0.002l-0.052,-0.002l-0.052,-0.001l-0.06,0l-129.315,0Z" style="fill:#d2cbd0;"/></g></g></g><defs><radialGradient id="_Radial1" cx="0" cy="0" r="1" gradientUnits="userSpaceOnUse" gradientTransform="matrix(78.0003,-3.82107e-30,-3.83594e-30,78.0003,80.0012,176.709)"><stop offset="0%" style="stop-color:#e8e2e1;stop-opacity:1"/><stop offset="50%" style="stop-color:#e3dddd;stop-opacity:1"/><stop offset="100%" style="stop-color:#baafb7;stop-opacity:1"/></radialGradient><linearGradient id="_Linear2" x1="0" y1="0" x2="1" y2="0" gradientUnits="userSpaceOnUse" gradientTransform="matrix(6.01235e-14,51.3238,-51.3238,6.01235e-14,80.0012,203.386)"><stop offset="0%" style="stop-color:#696d7c;stop-opacity:0"/><stop offset="100%" style="stop-color:#696e7b;stop-opacity:0.219608"/></linearGradient><linearGradient id="_Linear3" x1="0" y1="0" x2="1" y2="0" gradientUnits="userSpaceOnUse" gradientTransform="matrix(40.4152,-4.33368e-16,-4.33368e-16,42.1846,59.7937,104.577)"><stop offset="0%" style="stop-color:#999ba8;stop-opacity:1"/><stop offset="23%" style="stop-color:#d4d5da;stop-opacity:1"/><stop offset="71%" style="stop-color:#80828f;stop-opacity:1"/><stop offset="100%" style="stop-color:#9092a0;stop-opacity:1"/></linearGradient><linearGradient id="_Linear4" x1="0" y1="0" x2="1" y2="0" gradientUnits="userSpaceOnUse" gradientTransform="matrix(2.90577e-13,-22.0772,22.0772,2.90577e-13,80.0013,93.3122)"><stop offset="0%" style="stop-color:#696d7c;stop-opacity:0.101961"/><stop offset="100%" style="stop-color:#696e7b;stop-opacity:1"/></linearGradient><linearGradient id="_Linear5" x1="0" y1="0" x2="1" y2="0" gradientUnits="userSpaceOnUse" gradientTransform="matrix(4.24058e-15,-158.389,116.396,1.16729e-14,80.0021,246.973)"><stop offset="0%" style="stop-color:#696d7c;stop-opacity:0.101961"/><stop offset="100%" style="stop-color:#696e7b;stop-opacity:1"/></linearGradient><linearGradient id="_Linear6" x1="0" y1="0" x2="1" y2="0" gradientUnits="userSpaceOnUse" gradientTransform="matrix(7.12719e-15,-116.396,116.396,7.12719e-15,80.0021,225.326)"><stop offset="0%" style="stop-color:#7b7e8e;stop-opacity:1"/><stop offset="100%" style="stop-color:#9c9daa;stop-opacity:1"/></linearGradient><linearGradient id="_Linear7" x1="0" y1="0" x2="1" y2="0" gradientUnits="userSpaceOnUse" gradientTransform="matrix(2.74559e-14,105.441,-105.441,2.74559e-14,79.9978,114.403)"><stop offset="0%" style="stop-color:#7b7e8e;stop-opacity:1"/><stop offset="55%" style="stop-color:#828494;stop-opacity:1"/><stop offset="100%" style="stop-color:#9c9daa;stop-opacity:1"/></linearGradient><linearGradient id="_Linear8" x1="0" y1="0" x2="1" y2="0" gradientUnits="userSpaceOnUse" gradientTransform="matrix(6.12433e-15,-100.018,100.018,6.12433e-15,80.0001,217.134)"><stop offset="0%" style="stop-color:#7b7e8e;stop-opacity:1"/><stop offset="51%" style="stop-color:#9395a3;stop-opacity:1"/><stop offset="100%" style="stop-color:#9c9daa;stop-opacity:1"/></linearGradient><linearGradient id="_Linear9" x1="0" y1="0" x2="1" y2="0" gradientUnits="userSpaceOnUse" gradientTransform="matrix(5.87935e-16,9.60171,-9.60171,5.87935e-16,80.0011,167.107)"><stop offset="0%" style="stop-color:#000;stop-opacity:1"/><stop offset="100%" style="stop-color:#7b7e8e;stop-opacity:0"/></linearGradient><linearGradient id="_Linear10" x1="0" y1="0" x2="1" y2="0" gradientUnits="userSpaceOnUse" gradientTransform="matrix(1.95641e-15,-31.9506,31.9506,1.95641e-15,66.5,159.879)"><stop offset="0%" style="stop-color:#8e919e;stop-opacity:1"/><stop offset="51%" style="stop-color:#a6a7b3;stop-opacity:1"/><stop offset="100%" style="stop-color:#aeafba;stop-opacity:1"/></linearGradient><linearGradient id="_Linear11" x1="0" y1="0" x2="1" y2="0" gradientUnits="userSpaceOnUse" gradientTransform="matrix(1.95641e-15,-31.9506,31.9506,1.95641e-15,66.5,159.879)"><stop offset="0%" style="stop-color:#8e919e;stop-opacity:1"/><stop offset="51%" style="stop-color:#a6a7b3;stop-opacity:1"/><stop offset="100%" style="stop-color:#aeafba;stop-opacity:1"/></linearGradient><linearGradient id="_Linear12" x1="0" y1="0" x2="1" y2="0" gradientUnits="userSpaceOnUse" gradientTransform="matrix(1.95641e-15,-31.9506,31.9506,1.95641e-15,66.5,159.879)"><stop offset="0%" style="stop-color:#8e919e;stop-opacity:1"/><stop offset="51%" style="stop-color:#a6a7b3;stop-opacity:1"/><stop offset="100%" style="stop-color:#aeafba;stop-opacity:1"/></linearGradient><linearGradient id="_Linear13" x1="0" y1="0" x2="1" y2="0" gradientUnits="userSpaceOnUse" gradientTransform="matrix(1.95641e-15,-31.9506,31.9506,1.95641e-15,66.5,159.879)"><stop offset="0%" style="stop-color:#8e919e;stop-opacity:1"/><stop offset="51%" style="stop-color:#a6a7b3;stop-opacity:1"/><stop offset="100%" style="stop-color:#aeafba;stop-opacity:1"/></linearGradient><linearGradient id="_Linear14" x1="0" y1="0" x2="1" y2="0" gradientUnits="userSpaceOnUse" gradientTransform="matrix(5.08054e-16,-8.29718,8.29716,5.08056e-16,78.242,192.664)"><stop offset="0%" style="stop-color:#8e919e;stop-opacity:1"/><stop offset="51%" style="stop-color:#a6a7b3;stop-opacity:1"/><stop offset="100%" style="stop-color:#aeafba;stop-opacity:1"/></linearGradient><linearGradient id="_Linear15" x1="0" y1="0" x2="1" y2="0" gradientUnits="userSpaceOnUse" gradientTransform="matrix(5.08054e-16,-8.29718,8.29716,5.08056e-16,78.242,192.664)"><stop offset="0%" style="stop-color:#8e919e;stop-opacity:1"/><stop offset="51%" style="stop-color:#a6a7b3;stop-opacity:1"/><stop offset="100%" style="stop-color:#aeafba;stop-opacity:1"/></linearGradient><linearGradient id="_Linear16" x1="0" y1="0" x2="1" y2="0" gradientUnits="userSpaceOnUse" gradientTransform="matrix(5.08054e-16,-8.29718,8.29716,5.08056e-16,78.242,192.664)"><stop offset="0%" style="stop-color:#8e919e;stop-opacity:1"/><stop offset="51%" style="stop-color:#a6a7b3;stop-opacity:1"/><stop offset="100%" style="stop-color:#aeafba;stop-opacity:1"/></linearGradient><linearGradient id="_Linear17" x1="0" y1="0" x2="1" y2="0" gradientUnits="userSpaceOnUse" gradientTransform="matrix(5.08054e-16,-8.29718,8.29716,5.08056e-16,78.242,192.664)"><stop offset="0%" style="stop-color:#8e919e;stop-opacity:1"/><stop offset="51%" style="stop-color:#a6a7b3;stop-opacity:1"/><stop offset="100%" style="stop-color:#aeafba;stop-opacity:1"/></linearGradient><linearGradient id="_Linear18" x1="0" y1="0" x2="1" y2="0" gradientUnits="userSpaceOnUse" gradientTransform="matrix(5.08054e-16,-8.29718,8.29716,5.08056e-16,78.242,192.664)"><stop offset="0%" style="stop-color:#8e919e;stop-opacity:1"/><stop offset="51%" style="stop-color:#a6a7b3;stop-opacity:1"/><stop offset="100%" style="stop-color:#aeafba;stop-opacity:1"/></linearGradient><linearGradient id="_Linear19" x1="0" y1="0" x2="1" y2="0" gradientUnits="userSpaceOnUse" gradientTransform="matrix(5.08054e-16,-8.29718,8.29716,5.08056e-16,78.242,192.664)"><stop offset="0%" style="stop-color:#8e919e;stop-opacity:1"/><stop offset="51%" style="stop-color:#a6a7b3;stop-opacity:1"/><stop offset="100%" style="stop-color:#aeafba;stop-opacity:1"/></linearGradient><linearGradient id="_Linear20" x1="0" y1="0" x2="1" y2="0" gradientUnits="userSpaceOnUse" gradientTransform="matrix(5.08054e-16,-8.29718,8.29716,5.08056e-16,78.242,192.664)"><stop offset="0%" style="stop-color:#8e919e;stop-opacity:1"/><stop offset="51%" style="stop-color:#a6a7b3;stop-opacity:1"/><stop offset="100%" style="stop-color:#aeafba;stop-opacity:1"/></linearGradient><radialGradient id="_Radial21" cx="0" cy="0" r="1" gradientUnits="userSpaceOnUse" gradientTransform="matrix(-0.273653,132.021,-132.022,-0.273652,80.0015,-51.8863)"><stop offset="0%" style="stop-color:#e8e2e1;stop-opacity:1"/><stop offset="74%" style="stop-color:#e3dddd;stop-opacity:1"/><stop offset="100%" style="stop-color:#baafb7;stop-opacity:1"/></radialGradient><linearGradient id="_Linear22" x1="0" y1="0" x2="1" y2="0" gradientUnits="userSpaceOnUse" gradientTransform="matrix(3.90002e-15,66.0109,-65.6747,4.16557e-15,80.0015,14.1249)"><stop offset="0%" style="stop-color:#000;stop-opacity:0.4"/><stop offset="16%" style="stop-color:#000;stop-opacity:0.211765"/><stop offset="35%" style="stop-color:#000;stop-opacity:0.054902"/><stop offset="100%" style="stop-color:#000;stop-opacity:0"/></linearGradient><linearGradient id="_Linear23" x1="0" y1="0" x2="1" y2="0" gradientUnits="userSpaceOnUse" gradientTransform="matrix(-42.1429,66.0109,-65.6747,-42.3586,134.284,14.1249)"><stop offset="0%" style="stop-color:#fff;stop-opacity:0.431373"/><stop offset="100%" style="stop-color:#fff;stop-opacity:0"/></linearGradient><linearGradient id="_Linear24" x1="0" y1="0" x2="1" y2="0" gradientUnits="userSpaceOnUse" gradientTransform="matrix(1.47199e-15,-24.5314,24.6953,1.54228e-15,78.0031,26.5315)"><stop offset="0%" style="stop-color:#e8e2e1;stop-opacity:1"/><stop offset="100%" style="stop-color:#cec6cc;stop-opacity:1"/></linearGradient></defs></svg>