<?xml version="1.0" standalone="no"?>
<!DOCTYPE svg PUBLIC "-//W3C//DTD SVG 1.1//EN" "http://www.w3.org/Graphics/SVG/1.1/DTD/svg11.dtd">
<svg width="100%" height="100%" viewBox="0 0 210 297" version="1.1" xmlns="http://www.w3.org/2000/svg" xmlns:xlink="http://www.w3.org/1999/xlink" xml:space="preserve" style="fill-rule:evenodd;clip-rule:evenodd;stroke-linecap:round;stroke-linejoin:round;stroke-miterlimit:1.41421;">
    <g transform="matrix(4.56522,-1.40605e-16,-7.15099e-16,49.5,-2862.39,-33561)">
        <rect x="627" y="678" width="46" height="6" style="fill:rgb(243,237,229);"/>
    </g>
    <g transform="matrix(1,0,0,1,0,-1.375)">
        <g transform="matrix(1.22093,-9.56033e-17,-1.63248e-17,0.319149,-681.279,-147.774)">
            <rect x="558" y="624" width="172" height="188" style="fill:white;"/>
        </g>
        <g transform="matrix(0.820035,-4.22657e-17,-4.22657e-17,0.992598,5.48602,11.9494)">
            <rect x="17.699" y="53.32" width="40.242" height="33.246" style="fill:none;stroke-width:1.1px;stroke-dasharray:5.49,5.49,0,0;stroke:rgb(220,220,220);"/>
        </g>
        <g transform="matrix(1,6.01037e-32,6.01037e-32,1,23.6324,-183.877)">
            <g>
                <path d="M48.547,250.612L44.891,250.612L44.891,260.752L43.399,260.752L43.399,250.612L39.75,250.612L39.75,249.377L48.547,249.377L48.547,250.612Z" style="fill:rgb(119,119,119);fill-opacity:0.627451;fill-rule:nonzero;"/>
                <path d="M51.454,253.322C52.094,252.536 52.927,252.143 53.954,252.143C55.74,252.143 56.641,253.151 56.657,255.166L56.657,260.752L55.211,260.752L55.211,255.158C55.206,254.549 55.067,254.098 54.793,253.807C54.52,253.515 54.094,253.369 53.516,253.369C53.047,253.369 52.636,253.494 52.282,253.744C51.927,253.994 51.651,254.322 51.454,254.729L51.454,260.752L50.008,260.752L50.008,248.752L51.454,248.752L51.454,253.322Z" style="fill:rgb(119,119,119);fill-opacity:0.627451;fill-rule:nonzero;"/>
                <path d="M60.391,260.752L58.946,260.752L58.946,252.299L60.391,252.299L60.391,260.752ZM58.829,250.057C58.829,249.822 58.9,249.625 59.043,249.463C59.187,249.302 59.399,249.221 59.68,249.221C59.961,249.221 60.175,249.302 60.321,249.463C60.467,249.625 60.539,249.822 60.539,250.057C60.539,250.291 60.467,250.487 60.321,250.643C60.175,250.799 59.961,250.877 59.68,250.877C59.399,250.877 59.187,250.799 59.043,250.643C58.9,250.487 58.829,250.291 58.829,250.057Z" style="fill:rgb(119,119,119);fill-opacity:0.627451;fill-rule:nonzero;"/>
                <path d="M67.625,258.51C67.625,258.119 67.478,257.816 67.184,257.6C66.89,257.384 66.377,257.197 65.645,257.041C64.913,256.885 64.332,256.697 63.903,256.479C63.473,256.26 63.155,256 62.95,255.697C62.744,255.395 62.641,255.036 62.641,254.619C62.641,253.927 62.934,253.341 63.52,252.862C64.106,252.382 64.855,252.143 65.766,252.143C66.724,252.143 67.502,252.39 68.098,252.885C68.694,253.38 68.993,254.013 68.993,254.783L67.539,254.783C67.539,254.388 67.371,254.046 67.036,253.76C66.7,253.473 66.276,253.33 65.766,253.33C65.24,253.33 64.829,253.445 64.532,253.674C64.235,253.903 64.086,254.203 64.086,254.572C64.086,254.921 64.224,255.184 64.5,255.362C64.776,255.539 65.275,255.708 65.996,255.869C66.718,256.031 67.302,256.223 67.75,256.447C68.198,256.671 68.53,256.941 68.746,257.256C68.963,257.571 69.071,257.955 69.071,258.408C69.071,259.164 68.769,259.769 68.164,260.225C67.56,260.681 66.776,260.908 65.813,260.908C65.136,260.908 64.537,260.789 64.016,260.549C63.495,260.309 63.088,259.975 62.793,259.545C62.499,259.115 62.352,258.651 62.352,258.151L63.797,258.151C63.823,258.635 64.017,259.019 64.379,259.303C64.741,259.587 65.219,259.729 65.813,259.729C66.36,259.729 66.799,259.618 67.129,259.397C67.46,259.175 67.625,258.88 67.625,258.51Z" style="fill:rgb(119,119,119);fill-opacity:0.627451;fill-rule:nonzero;"/>
                <path d="M76.485,260.752L75.039,260.752L75.039,252.299L76.485,252.299L76.485,260.752ZM74.922,250.057C74.922,249.822 74.994,249.625 75.137,249.463C75.28,249.302 75.493,249.221 75.774,249.221C76.055,249.221 76.269,249.302 76.414,249.463C76.56,249.625 76.633,249.822 76.633,250.057C76.633,250.291 76.56,250.487 76.414,250.643C76.269,250.799 76.055,250.877 75.774,250.877C75.493,250.877 75.28,250.799 75.137,250.643C74.994,250.487 74.922,250.291 74.922,250.057Z" style="fill:rgb(119,119,119);fill-opacity:0.627451;fill-rule:nonzero;"/>
                <path d="M83.719,258.51C83.719,258.119 83.572,257.816 83.278,257.6C82.983,257.384 82.47,257.197 81.739,257.041C81.007,256.885 80.426,256.697 79.996,256.479C79.567,256.26 79.249,256 79.043,255.697C78.838,255.395 78.735,255.036 78.735,254.619C78.735,253.927 79.028,253.341 79.614,252.862C80.2,252.382 80.948,252.143 81.86,252.143C82.818,252.143 83.595,252.39 84.192,252.885C84.788,253.38 85.086,254.013 85.086,254.783L83.633,254.783C83.633,254.388 83.465,254.046 83.129,253.76C82.793,253.473 82.37,253.33 81.86,253.33C81.334,253.33 80.922,253.445 80.625,253.674C80.329,253.903 80.18,254.203 80.18,254.572C80.18,254.921 80.318,255.184 80.594,255.362C80.87,255.539 81.369,255.708 82.09,255.869C82.812,256.031 83.396,256.223 83.844,256.447C84.292,256.671 84.624,256.941 84.84,257.256C85.056,257.571 85.164,257.955 85.164,258.408C85.164,259.164 84.862,259.769 84.258,260.225C83.654,260.681 82.87,260.908 81.907,260.908C81.23,260.908 80.631,260.789 80.11,260.549C79.589,260.309 79.181,259.975 78.887,259.545C78.593,259.115 78.446,258.651 78.446,258.151L79.891,258.151C79.917,258.635 80.111,259.019 80.473,259.303C80.835,259.587 81.313,259.729 81.907,259.729C82.454,259.729 82.892,259.618 83.223,259.397C83.554,259.175 83.719,258.88 83.719,258.51Z" style="fill:rgb(119,119,119);fill-opacity:0.627451;fill-rule:nonzero;"/>
                <path d="M93.774,258.635L95.743,252.299L97.289,252.299L93.891,262.057C93.365,263.463 92.529,264.166 91.383,264.166L91.11,264.143L90.571,264.041L90.571,262.869L90.961,262.901C91.451,262.901 91.832,262.802 92.106,262.604C92.379,262.406 92.605,262.044 92.782,261.518L93.102,260.658L90.086,252.299L91.664,252.299L93.774,258.635Z" style="fill:rgb(119,119,119);fill-opacity:0.627451;fill-rule:nonzero;"/>
                <path d="M98.079,256.447C98.079,255.619 98.241,254.875 98.567,254.213C98.892,253.552 99.345,253.041 99.926,252.682C100.507,252.322 101.17,252.143 101.914,252.143C103.065,252.143 103.996,252.541 104.707,253.338C105.418,254.135 105.774,255.195 105.774,256.518L105.774,256.619C105.774,257.442 105.616,258.181 105.301,258.834C104.986,259.488 104.536,259.997 103.95,260.362C103.364,260.726 102.69,260.908 101.93,260.908C100.784,260.908 99.856,260.51 99.145,259.713C98.434,258.916 98.079,257.862 98.079,256.549L98.079,256.447ZM99.532,256.619C99.532,257.557 99.749,258.309 100.184,258.877C100.619,259.445 101.201,259.729 101.93,259.729C102.664,259.729 103.248,259.441 103.68,258.865C104.112,258.29 104.329,257.484 104.329,256.447C104.329,255.52 104.108,254.769 103.668,254.194C103.228,253.618 102.644,253.33 101.914,253.33C101.201,253.33 100.625,253.614 100.188,254.182C99.75,254.75 99.532,255.562 99.532,256.619Z" style="fill:rgb(119,119,119);fill-opacity:0.627451;fill-rule:nonzero;"/>
                <path d="M112.805,259.916C112.243,260.578 111.417,260.908 110.329,260.908C109.427,260.908 108.741,260.647 108.27,260.123C107.799,259.6 107.56,258.825 107.555,257.799L107.555,252.299L109,252.299L109,257.76C109,259.041 109.521,259.682 110.563,259.682C111.667,259.682 112.401,259.27 112.766,258.447L112.766,252.299L114.211,252.299L114.211,260.752L112.836,260.752L112.805,259.916Z" style="fill:rgb(119,119,119);fill-opacity:0.627451;fill-rule:nonzero;"/>
                <path d="M120.493,253.596C120.274,253.559 120.037,253.541 119.782,253.541C118.834,253.541 118.19,253.945 117.852,254.752L117.852,260.752L116.407,260.752L116.407,252.299L117.813,252.299L117.836,253.276C118.31,252.52 118.982,252.143 119.852,252.143C120.133,252.143 120.347,252.179 120.493,252.252L120.493,253.596Z" style="fill:rgb(119,119,119);fill-opacity:0.627451;fill-rule:nonzero;"/>
                <path d="M47.618,276.619C47.618,277.911 47.321,278.949 46.727,279.733C46.133,280.516 45.336,280.908 44.336,280.908C43.269,280.908 42.443,280.531 41.86,279.776L41.789,280.752L40.461,280.752L40.461,268.752L41.907,268.752L41.907,273.229C42.49,272.505 43.295,272.143 44.321,272.143C45.347,272.143 46.153,272.531 46.739,273.307C47.325,274.083 47.618,275.145 47.618,276.494L47.618,276.619ZM46.172,276.455C46.172,275.471 45.982,274.71 45.602,274.174C45.222,273.638 44.675,273.369 43.961,273.369C43.008,273.369 42.323,273.812 41.907,274.697L41.907,278.354C42.349,279.239 43.039,279.682 43.977,279.682C44.67,279.682 45.209,279.414 45.594,278.877C45.98,278.341 46.172,277.533 46.172,276.455Z" style="fill:rgb(119,119,119);fill-opacity:0.627451;fill-rule:nonzero;"/>
                <path d="M52.946,280.908C51.8,280.908 50.868,280.532 50.149,279.779C49.43,279.027 49.071,278.02 49.071,276.76L49.071,276.494C49.071,275.656 49.231,274.907 49.551,274.248C49.871,273.589 50.319,273.074 50.895,272.701C51.47,272.329 52.094,272.143 52.766,272.143C53.865,272.143 54.719,272.505 55.329,273.229C55.938,273.953 56.243,274.989 56.243,276.338L56.243,276.94L50.516,276.94C50.537,277.773 50.78,278.446 51.246,278.959C51.713,279.472 52.305,279.729 53.024,279.729C53.534,279.729 53.967,279.625 54.321,279.416C54.675,279.208 54.985,278.932 55.25,278.588L56.133,279.276C55.425,280.364 54.362,280.908 52.946,280.908ZM52.766,273.33C52.183,273.33 51.693,273.543 51.297,273.967C50.901,274.391 50.657,274.987 50.563,275.752L54.797,275.752L54.797,275.643C54.756,274.908 54.558,274.339 54.204,273.936C53.849,273.532 53.37,273.33 52.766,273.33Z" style="fill:rgb(119,119,119);fill-opacity:0.627451;fill-rule:nonzero;"/>
                <path d="M63.133,280.752C63.05,280.585 62.982,280.289 62.93,279.862C62.258,280.559 61.456,280.908 60.524,280.908C59.69,280.908 59.007,280.673 58.473,280.201C57.939,279.73 57.672,279.132 57.672,278.408C57.672,277.528 58.007,276.845 58.676,276.358C59.345,275.871 60.287,275.627 61.5,275.627L62.907,275.627L62.907,274.963C62.907,274.458 62.756,274.056 62.454,273.756C62.151,273.457 61.706,273.307 61.118,273.307C60.602,273.307 60.17,273.437 59.821,273.697C59.472,273.958 59.297,274.273 59.297,274.643L57.844,274.643C57.844,274.221 57.994,273.813 58.293,273.42C58.593,273.027 58.999,272.716 59.512,272.487C60.025,272.257 60.589,272.143 61.204,272.143C62.177,272.143 62.94,272.386 63.493,272.873C64.045,273.36 64.331,274.031 64.352,274.885L64.352,278.776C64.352,279.552 64.451,280.169 64.649,280.627L64.649,280.752L63.133,280.752ZM60.735,279.651C61.188,279.651 61.618,279.533 62.024,279.299C62.43,279.065 62.724,278.76 62.907,278.385L62.907,276.651L61.774,276.651C60.003,276.651 59.118,277.169 59.118,278.205C59.118,278.658 59.269,279.013 59.571,279.268C59.873,279.523 60.261,279.651 60.735,279.651Z" style="fill:rgb(119,119,119);fill-opacity:0.627451;fill-rule:nonzero;"/>
                <path d="M71.836,279.916C71.274,280.578 70.448,280.908 69.36,280.908C68.459,280.908 67.773,280.647 67.301,280.123C66.83,279.6 66.592,278.825 66.586,277.799L66.586,272.299L68.032,272.299L68.032,277.76C68.032,279.041 68.552,279.682 69.594,279.682C70.698,279.682 71.433,279.27 71.797,278.447L71.797,272.299L73.243,272.299L73.243,280.752L71.868,280.752L71.836,279.916Z" style="fill:rgb(119,119,119);fill-opacity:0.627451;fill-rule:nonzero;"/>
                <path d="M77.399,270.252L77.399,272.299L78.977,272.299L78.977,273.416L77.399,273.416L77.399,278.658C77.399,278.997 77.469,279.251 77.61,279.42C77.75,279.589 77.99,279.674 78.329,279.674C78.495,279.674 78.724,279.643 79.016,279.58L79.016,280.752C78.636,280.856 78.266,280.908 77.907,280.908C77.261,280.908 76.774,280.713 76.446,280.322C76.118,279.932 75.954,279.377 75.954,278.658L75.954,273.416L74.414,273.416L74.414,272.299L75.954,272.299L75.954,270.252L77.399,270.252Z" style="fill:rgb(119,119,119);fill-opacity:0.627451;fill-rule:nonzero;"/>
                <path d="M82.235,280.752L80.789,280.752L80.789,272.299L82.235,272.299L82.235,280.752ZM80.672,270.057C80.672,269.822 80.744,269.625 80.887,269.463C81.03,269.302 81.243,269.221 81.524,269.221C81.805,269.221 82.019,269.302 82.164,269.463C82.31,269.625 82.383,269.822 82.383,270.057C82.383,270.291 82.31,270.487 82.164,270.643C82.019,270.799 81.805,270.877 81.524,270.877C81.243,270.877 81.03,270.799 80.887,270.643C80.744,270.487 80.672,270.291 80.672,270.057Z" style="fill:rgb(119,119,119);fill-opacity:0.627451;fill-rule:nonzero;"/>
                <path d="M85.258,280.752L85.258,273.416L83.922,273.416L83.922,272.299L85.258,272.299L85.258,271.432C85.258,270.526 85.5,269.825 85.985,269.33C86.469,268.835 87.154,268.588 88.039,268.588C88.373,268.588 88.704,268.632 89.032,268.721L88.954,269.893C88.709,269.846 88.448,269.822 88.172,269.822C87.704,269.822 87.342,269.959 87.086,270.233C86.831,270.506 86.704,270.898 86.704,271.408L86.704,272.299L88.508,272.299L88.508,273.416L86.704,273.416L86.704,280.752L85.258,280.752Z" style="fill:rgb(119,119,119);fill-opacity:0.627451;fill-rule:nonzero;"/>
                <path d="M95.321,279.916C94.758,280.578 93.933,280.908 92.844,280.908C91.943,280.908 91.257,280.647 90.786,280.123C90.314,279.6 90.076,278.825 90.071,277.799L90.071,272.299L91.516,272.299L91.516,277.76C91.516,279.041 92.037,279.682 93.079,279.682C94.183,279.682 94.917,279.27 95.282,278.447L95.282,272.299L96.727,272.299L96.727,280.752L95.352,280.752L95.321,279.916Z" style="fill:rgb(119,119,119);fill-opacity:0.627451;fill-rule:nonzero;"/>
                <rect x="99.047" y="268.752" width="1.445" height="12" style="fill:rgb(119,119,119);fill-opacity:0.627451;fill-rule:nonzero;"/>
                <path d="M114.25,278.76L115.875,272.299L117.321,272.299L114.86,280.752L113.688,280.752L111.633,274.346L109.633,280.752L108.461,280.752L106.008,272.299L107.446,272.299L109.11,278.627L111.079,272.299L112.243,272.299L114.25,278.76Z" style="fill:rgb(119,119,119);fill-opacity:0.627451;fill-rule:nonzero;"/>
                <path d="M120.36,280.752L118.914,280.752L118.914,272.299L120.36,272.299L120.36,280.752ZM118.797,270.057C118.797,269.822 118.869,269.625 119.012,269.463C119.155,269.302 119.368,269.221 119.649,269.221C119.93,269.221 120.144,269.302 120.289,269.463C120.435,269.625 120.508,269.822 120.508,270.057C120.508,270.291 120.435,270.487 120.289,270.643C120.144,270.799 119.93,270.877 119.649,270.877C119.368,270.877 119.155,270.799 119.012,270.643C118.869,270.487 118.797,270.291 118.797,270.057Z" style="fill:rgb(119,119,119);fill-opacity:0.627451;fill-rule:nonzero;"/>
                <path d="M122.321,276.455C122.321,275.158 122.628,274.115 123.243,273.326C123.857,272.537 124.662,272.143 125.657,272.143C126.646,272.143 127.43,272.481 128.008,273.158L128.008,268.752L129.454,268.752L129.454,280.752L128.125,280.752L128.055,279.846C127.477,280.554 126.672,280.908 125.641,280.908C124.662,280.908 123.864,280.507 123.246,279.705C122.629,278.903 122.321,277.856 122.321,276.565L122.321,276.455ZM123.766,276.619C123.766,277.578 123.964,278.328 124.36,278.869C124.756,279.411 125.302,279.682 126,279.682C126.917,279.682 127.586,279.27 128.008,278.447L128.008,274.565C127.576,273.768 126.912,273.369 126.016,273.369C125.308,273.369 124.756,273.643 124.36,274.19C123.964,274.737 123.766,275.546 123.766,276.619Z" style="fill:rgb(119,119,119);fill-opacity:0.627451;fill-rule:nonzero;"/>
                <path d="M131.352,276.455C131.352,275.138 131.657,274.089 132.266,273.311C132.875,272.532 133.683,272.143 134.688,272.143C135.719,272.143 136.524,272.507 137.102,273.237L137.172,272.299L138.493,272.299L138.493,280.549C138.493,281.643 138.168,282.505 137.52,283.135C136.871,283.765 136,284.08 134.907,284.08C134.297,284.08 133.701,283.95 133.118,283.69C132.534,283.429 132.089,283.072 131.782,282.619L132.532,281.752C133.151,282.518 133.909,282.901 134.805,282.901C135.508,282.901 136.056,282.703 136.45,282.307C136.843,281.911 137.039,281.354 137.039,280.635L137.039,279.908C136.461,280.575 135.672,280.908 134.672,280.908C133.683,280.908 132.882,280.51 132.27,279.713C131.658,278.916 131.352,277.83 131.352,276.455ZM132.805,276.619C132.805,277.572 133,278.321 133.391,278.865C133.782,279.41 134.329,279.682 135.032,279.682C135.943,279.682 136.612,279.268 137.039,278.44L137.039,274.58C136.597,273.773 135.933,273.369 135.047,273.369C134.344,273.369 133.795,273.643 133.399,274.19C133.003,274.737 132.805,275.546 132.805,276.619Z" style="fill:rgb(119,119,119);fill-opacity:0.627451;fill-rule:nonzero;"/>
                <path d="M144.18,280.908C143.034,280.908 142.102,280.532 141.383,279.779C140.664,279.027 140.305,278.02 140.305,276.76L140.305,276.494C140.305,275.656 140.465,274.907 140.786,274.248C141.106,273.589 141.554,273.074 142.129,272.701C142.705,272.329 143.329,272.143 144,272.143C145.099,272.143 145.954,272.505 146.563,273.229C147.172,273.953 147.477,274.989 147.477,276.338L147.477,276.94L141.75,276.94C141.771,277.773 142.015,278.446 142.481,278.959C142.947,279.472 143.539,279.729 144.258,279.729C144.769,279.729 145.201,279.625 145.555,279.416C145.909,279.208 146.219,278.932 146.485,278.588L147.368,279.276C146.659,280.364 145.597,280.908 144.18,280.908ZM144,273.33C143.417,273.33 142.927,273.543 142.532,273.967C142.136,274.391 141.891,274.987 141.797,275.752L146.032,275.752L146.032,275.643C145.99,274.908 145.792,274.339 145.438,273.936C145.084,273.532 144.605,273.33 144,273.33Z" style="fill:rgb(119,119,119);fill-opacity:0.627451;fill-rule:nonzero;"/>
                <path d="M151.11,270.252L151.11,272.299L152.688,272.299L152.688,273.416L151.11,273.416L151.11,278.658C151.11,278.997 151.18,279.251 151.321,279.42C151.461,279.589 151.701,279.674 152.039,279.674C152.206,279.674 152.435,279.643 152.727,279.58L152.727,280.752C152.347,280.856 151.977,280.908 151.618,280.908C150.972,280.908 150.485,280.713 150.157,280.322C149.829,279.932 149.664,279.377 149.664,278.658L149.664,273.416L148.125,273.416L148.125,272.299L149.664,272.299L149.664,270.252L151.11,270.252Z" style="fill:rgb(119,119,119);fill-opacity:0.627451;fill-rule:nonzero;"/>
            </g>
        </g>
        <g transform="matrix(1.35113,8.12077e-32,8.12077e-32,1.35113,-827.835,-861.326)">
            <path d="M637.661,690.053C637.661,688.92 638.581,688 639.714,688C640.847,688 641.767,688.92 641.767,690.053C642.333,689.072 643.59,688.735 644.571,689.301C645.552,689.868 645.889,691.124 645.323,692.106C646.304,691.539 647.56,691.876 648.127,692.857C648.693,693.838 648.357,695.095 647.375,695.661C648.508,695.661 649.428,696.581 649.428,697.714C649.428,698.847 648.508,699.767 647.375,699.767C648.357,700.333 648.693,701.59 648.127,702.571C647.56,703.552 646.304,703.889 645.323,703.323C645.889,704.304 645.552,705.56 644.571,706.127C643.59,706.693 642.333,706.357 641.767,705.375C641.767,706.508 640.847,707.428 639.714,707.428C638.581,707.428 637.661,706.508 637.661,705.375C637.095,706.357 635.838,706.693 634.857,706.127C633.876,705.56 633.539,704.304 634.106,703.323C633.124,703.889 631.868,703.552 631.301,702.571C630.735,701.59 631.072,700.333 632.053,699.767C630.92,699.767 630,698.847 630,697.714C630,696.581 630.92,695.661 632.053,695.661C631.072,695.095 630.735,693.838 631.301,692.857C631.868,691.876 633.124,691.539 634.106,692.106C633.539,691.124 633.876,689.868 634.857,689.301C635.838,688.735 637.095,689.072 637.661,690.053Z" style="fill:rgb(43,79,132);"/>
        </g>
    </g>
    <g transform="matrix(1,6.01037e-32,6.01037e-32,1,-19.3676,-228.81)">
        <path d="M44.922,255.221L47.585,249.455L50.468,249.455L46.267,257.612L46.267,262.252L43.586,262.252L43.586,257.612L39.385,249.455L42.277,249.455L44.922,255.221Z" style="fill:rgb(119,119,119);fill-rule:nonzero;"/>
        <path d="M50.503,257.409C50.503,256.466 50.685,255.625 51.048,254.887C51.412,254.149 51.934,253.577 52.617,253.173C53.3,252.769 54.092,252.567 54.995,252.567C56.278,252.567 57.325,252.959 58.137,253.744C58.948,254.529 59.401,255.596 59.495,256.944L59.512,257.594C59.512,259.053 59.105,260.223 58.29,261.105C57.476,261.987 56.383,262.428 55.012,262.428C53.641,262.428 52.547,261.988 51.729,261.11C50.912,260.231 50.503,259.035 50.503,257.524L50.503,257.409ZM53.043,257.594C53.043,258.496 53.213,259.186 53.553,259.664C53.893,260.141 54.379,260.38 55.012,260.38C55.627,260.38 56.108,260.144 56.454,259.673C56.799,259.201 56.972,258.446 56.972,257.409C56.972,256.525 56.799,255.839 56.454,255.353C56.108,254.866 55.621,254.623 54.995,254.623C54.373,254.623 53.893,254.865 53.553,255.348C53.213,255.832 53.043,256.58 53.043,257.594Z" style="fill:rgb(119,119,119);fill-rule:nonzero;"/>
        <path d="M66.772,261.285C66.145,262.047 65.278,262.428 64.17,262.428C63.151,262.428 62.373,262.135 61.837,261.549C61.301,260.963 61.027,260.105 61.015,258.974L61.015,252.742L63.555,252.742L63.555,258.886C63.555,259.876 64.006,260.371 64.909,260.371C65.77,260.371 66.362,260.072 66.684,259.475L66.684,252.742L69.233,252.742L69.233,262.252L66.842,262.252L66.772,261.285Z" style="fill:rgb(119,119,119);fill-rule:nonzero;"/>
        <path d="M76.493,255.124C76.147,255.077 75.842,255.054 75.579,255.054C74.618,255.054 73.988,255.379 73.689,256.029L73.689,262.252L71.149,262.252L71.149,252.742L73.548,252.742L73.619,253.876C74.128,253.003 74.834,252.567 75.737,252.567C76.018,252.567 76.282,252.605 76.528,252.681L76.493,255.124Z" style="fill:rgb(119,119,119);fill-rule:nonzero;"/>
        <path d="M92.41,257.989C92.31,259.366 91.802,260.45 90.885,261.241C89.968,262.032 88.759,262.428 87.259,262.428C85.619,262.428 84.328,261.876 83.388,260.771C82.447,259.667 81.977,258.151 81.977,256.223L81.977,255.441C81.977,254.21 82.194,253.126 82.627,252.189C83.061,251.251 83.681,250.532 84.486,250.031C85.292,249.53 86.228,249.279 87.294,249.279C88.771,249.279 89.96,249.675 90.863,250.466C91.765,251.257 92.287,252.367 92.427,253.797L89.79,253.797C89.726,252.971 89.496,252.372 89.1,252C88.705,251.628 88.103,251.442 87.294,251.442C86.415,251.442 85.758,251.757 85.321,252.386C84.885,253.016 84.661,253.993 84.649,255.318L84.649,256.284C84.649,257.667 84.858,258.678 85.277,259.317C85.696,259.955 86.357,260.275 87.259,260.275C88.074,260.275 88.682,260.089 89.083,259.716C89.484,259.344 89.714,258.769 89.773,257.989L92.41,257.989Z" style="fill:rgb(119,119,119);fill-rule:nonzero;"/>
        <path d="M100.777,258.895C100.777,258.397 100.601,258.014 100.249,257.748C99.898,257.481 99.265,257.2 98.351,256.904C97.437,256.608 96.713,256.317 96.18,256.029C94.727,255.244 94,254.187 94,252.857C94,252.165 94.195,251.549 94.585,251.007C94.975,250.465 95.534,250.041 96.264,249.737C96.993,249.432 97.812,249.279 98.72,249.279C99.634,249.279 100.449,249.445 101.163,249.776C101.878,250.107 102.433,250.574 102.829,251.178C103.225,251.781 103.422,252.467 103.422,253.235L100.786,253.235C100.786,252.649 100.601,252.193 100.232,251.868C99.863,251.543 99.344,251.38 98.676,251.38C98.032,251.38 97.531,251.516 97.173,251.789C96.816,252.061 96.637,252.42 96.637,252.865C96.637,253.281 96.847,253.63 97.266,253.911C97.684,254.193 98.301,254.456 99.116,254.702C100.616,255.154 101.708,255.713 102.394,256.381C103.079,257.049 103.422,257.881 103.422,258.877C103.422,259.985 103.003,260.853 102.165,261.483C101.328,262.113 100.2,262.428 98.782,262.428C97.797,262.428 96.901,262.248 96.092,261.887C95.284,261.527 94.667,261.033 94.242,260.406C93.817,259.779 93.605,259.053 93.605,258.227L96.25,258.227C96.25,259.639 97.094,260.345 98.782,260.345C99.409,260.345 99.898,260.217 100.249,259.963C100.601,259.708 100.777,259.352 100.777,258.895Z" style="fill:rgb(119,119,119);fill-rule:nonzero;"/>
        <path d="M111.842,258.895C111.842,258.397 111.666,258.014 111.315,257.748C110.963,257.481 110.33,257.2 109.416,256.904C108.502,256.608 107.779,256.317 107.246,256.029C105.792,255.244 105.066,254.187 105.066,252.857C105.066,252.165 105.261,251.549 105.65,251.007C106.04,250.465 106.6,250.041 107.329,249.737C108.058,249.432 108.877,249.279 109.786,249.279C110.7,249.279 111.514,249.445 112.229,249.776C112.944,250.107 113.499,250.574 113.894,251.178C114.29,251.781 114.488,252.467 114.488,253.235L111.851,253.235C111.851,252.649 111.666,252.193 111.297,251.868C110.928,251.543 110.41,251.38 109.742,251.38C109.097,251.38 108.596,251.516 108.239,251.789C107.881,252.061 107.703,252.42 107.703,252.865C107.703,253.281 107.912,253.63 108.331,253.911C108.75,254.193 109.367,254.456 110.181,254.702C111.681,255.154 112.774,255.713 113.459,256.381C114.145,257.049 114.488,257.881 114.488,258.877C114.488,259.985 114.069,260.853 113.231,261.483C112.393,262.113 111.265,262.428 109.847,262.428C108.863,262.428 107.966,262.248 107.158,261.887C106.349,261.527 105.732,261.033 105.308,260.406C104.883,259.779 104.67,259.053 104.67,258.227L107.316,258.227C107.316,259.639 108.16,260.345 109.847,260.345C110.474,260.345 110.963,260.217 111.315,259.963C111.666,259.708 111.842,259.352 111.842,258.895Z" style="fill:rgb(119,119,119);fill-rule:nonzero;"/>
        <path d="M123.268,262.252L120.719,262.252L120.719,252.742L123.268,252.742L123.268,262.252ZM120.57,250.281C120.57,249.901 120.697,249.587 120.952,249.341C121.207,249.095 121.554,248.972 121.994,248.972C122.427,248.972 122.773,249.095 123.031,249.341C123.288,249.587 123.417,249.901 123.417,250.281C123.417,250.668 123.287,250.985 123.026,251.231C122.766,251.477 122.421,251.6 121.994,251.6C121.566,251.6 121.222,251.477 120.961,251.231C120.7,250.985 120.57,250.668 120.57,250.281Z" style="fill:rgb(119,119,119);fill-rule:nonzero;"/>
        <rect x="125.492" y="248.752" width="2.549" height="13.5" style="fill:rgb(119,119,119);fill-rule:nonzero;"/>
        <rect x="130.264" y="248.752" width="2.549" height="13.5" style="fill:rgb(119,119,119);fill-rule:nonzero;"/>
        <path d="M140.6,261.285C139.973,262.047 139.106,262.428 137.998,262.428C136.979,262.428 136.201,262.135 135.665,261.549C135.129,260.963 134.855,260.105 134.843,258.974L134.843,252.742L137.383,252.742L137.383,258.886C137.383,259.876 137.834,260.371 138.737,260.371C139.598,260.371 140.19,260.072 140.512,259.475L140.512,252.742L143.061,252.742L143.061,262.252L140.67,262.252L140.6,261.285Z" style="fill:rgb(119,119,119);fill-rule:nonzero;"/>
        <path d="M150.127,259.624C150.127,259.314 149.974,259.069 149.666,258.89C149.358,258.712 148.865,258.552 148.185,258.411C145.923,257.937 144.792,256.976 144.792,255.529C144.792,254.685 145.142,253.98 145.843,253.415C146.543,252.849 147.458,252.567 148.589,252.567C149.796,252.567 150.762,252.851 151.485,253.419C152.209,253.987 152.571,254.726 152.571,255.634L150.031,255.634C150.031,255.271 149.913,254.97 149.679,254.733C149.445,254.496 149.079,254.377 148.58,254.377C148.153,254.377 147.822,254.474 147.587,254.667C147.353,254.861 147.236,255.107 147.236,255.405C147.236,255.687 147.369,255.914 147.636,256.087C147.902,256.259 148.352,256.409 148.985,256.535C149.618,256.661 150.151,256.803 150.584,256.961C151.926,257.453 152.597,258.306 152.597,259.519C152.597,260.386 152.225,261.088 151.481,261.624C150.737,262.16 149.776,262.428 148.598,262.428C147.801,262.428 147.094,262.286 146.475,262.002C145.857,261.717 145.372,261.328 145.021,260.833C144.669,260.338 144.494,259.803 144.494,259.229L146.902,259.229C146.925,259.68 147.092,260.026 147.403,260.266C147.713,260.506 148.129,260.626 148.651,260.626C149.137,260.626 149.505,260.534 149.754,260.349C150.003,260.165 150.127,259.923 150.127,259.624Z" style="fill:rgb(119,119,119);fill-rule:nonzero;"/>
        <path d="M157.273,250.404L157.273,252.742L158.899,252.742L158.899,254.606L157.273,254.606L157.273,259.352C157.273,259.703 157.34,259.955 157.475,260.108C157.61,260.26 157.868,260.336 158.248,260.336C158.53,260.336 158.779,260.316 158.996,260.275L158.996,262.199C158.497,262.352 157.985,262.428 157.457,262.428C155.676,262.428 154.768,261.529 154.733,259.73L154.733,254.606L153.344,254.606L153.344,252.742L154.733,252.742L154.733,250.404L157.273,250.404Z" style="fill:rgb(119,119,119);fill-rule:nonzero;"/>
        <path d="M165.658,255.124C165.312,255.077 165.007,255.054 164.744,255.054C163.783,255.054 163.153,255.379 162.854,256.029L162.854,262.252L160.314,262.252L160.314,252.742L162.713,252.742L162.784,253.876C163.293,253.003 163.999,252.567 164.902,252.567C165.183,252.567 165.447,252.605 165.693,252.681L165.658,255.124Z" style="fill:rgb(119,119,119);fill-rule:nonzero;"/>
        <path d="M172.126,262.252C172.009,262.024 171.924,261.739 171.871,261.4C171.256,262.085 170.456,262.428 169.472,262.428C168.54,262.428 167.768,262.158 167.156,261.619C166.544,261.08 166.238,260.401 166.238,259.58C166.238,258.572 166.611,257.799 167.358,257.26C168.105,256.721 169.185,256.448 170.597,256.443L171.766,256.443L171.766,255.898C171.766,255.458 171.653,255.107 171.428,254.843C171.202,254.579 170.846,254.447 170.36,254.447C169.932,254.447 169.597,254.55 169.353,254.755C169.11,254.96 168.989,255.241 168.989,255.599L166.449,255.599C166.449,255.048 166.619,254.538 166.958,254.07C167.298,253.601 167.779,253.233 168.4,252.966C169.021,252.7 169.718,252.567 170.492,252.567C171.663,252.567 172.594,252.861 173.282,253.45C173.971,254.039 174.315,254.866 174.315,255.933L174.315,260.055C174.321,260.957 174.447,261.64 174.693,262.103L174.693,262.252L172.126,262.252ZM170.026,260.486C170.401,260.486 170.746,260.402 171.063,260.235C171.379,260.068 171.614,259.844 171.766,259.563L171.766,257.928L170.817,257.928C169.545,257.928 168.869,258.367 168.787,259.246L168.778,259.396C168.778,259.712 168.889,259.973 169.112,260.178C169.334,260.383 169.639,260.486 170.026,260.486Z" style="fill:rgb(119,119,119);fill-rule:nonzero;"/>
        <path d="M179.307,250.404L179.307,252.742L180.933,252.742L180.933,254.606L179.307,254.606L179.307,259.352C179.307,259.703 179.374,259.955 179.509,260.108C179.644,260.26 179.902,260.336 180.283,260.336C180.564,260.336 180.813,260.316 181.03,260.275L181.03,262.199C180.532,262.352 180.019,262.428 179.492,262.428C177.71,262.428 176.802,261.529 176.767,259.73L176.767,254.606L175.378,254.606L175.378,252.742L176.767,252.742L176.767,250.404L179.307,250.404Z" style="fill:rgb(119,119,119);fill-rule:nonzero;"/>
        <path d="M186.725,262.428C185.33,262.428 184.195,262 183.319,261.145C182.443,260.289 182.005,259.15 182.005,257.726L182.005,257.48C182.005,256.525 182.19,255.671 182.559,254.918C182.928,254.165 183.451,253.585 184.128,253.177C184.805,252.77 185.577,252.567 186.444,252.567C187.745,252.567 188.768,252.977 189.516,253.797C190.263,254.617 190.636,255.78 190.636,257.286L190.636,258.323L184.58,258.323C184.662,258.945 184.91,259.443 185.323,259.818C185.736,260.193 186.259,260.38 186.892,260.38C187.871,260.38 188.635,260.026 189.186,259.317L190.434,260.714C190.053,261.253 189.537,261.674 188.887,261.975C188.237,262.277 187.516,262.428 186.725,262.428ZM186.435,254.623C185.931,254.623 185.522,254.793 185.209,255.133C184.895,255.473 184.695,255.959 184.607,256.592L188.14,256.592L188.14,256.39C188.128,255.827 187.976,255.392 187.683,255.085C187.39,254.777 186.974,254.623 186.435,254.623Z" style="fill:rgb(119,119,119);fill-rule:nonzero;"/>
        <path d="M191.682,257.427C191.682,255.945 192.015,254.764 192.68,253.885C193.345,253.006 194.254,252.567 195.409,252.567C196.334,252.567 197.099,252.912 197.703,253.604L197.703,248.752L200.251,248.752L200.251,262.252L197.957,262.252L197.834,261.241C197.202,262.032 196.387,262.428 195.391,262.428C194.272,262.428 193.374,261.987 192.697,261.105C192.02,260.223 191.682,258.997 191.682,257.427ZM194.222,257.612C194.222,258.502 194.377,259.185 194.688,259.659C194.998,260.134 195.45,260.371 196.041,260.371C196.827,260.371 197.38,260.04 197.703,259.378L197.703,255.625C197.386,254.963 196.838,254.632 196.059,254.632C194.834,254.632 194.222,255.625 194.222,257.612Z" style="fill:rgb(119,119,119);fill-rule:nonzero;"/>
    </g>
    <g transform="matrix(1,0,0,1,0,-10)">
        <g transform="matrix(0.98827,-7.68831e-17,-2.19085e-17,0.425532,-531.437,-135.532)">
            <rect x="558" y="624" width="172" height="188" style="fill:white;"/>
        </g>
        <g transform="matrix(0.679108,-4.62142e-17,-9.3921e-18,0.159574,-358.925,113.426)">
            <rect x="558" y="624" width="172" height="188" style="fill:rgb(191,191,191);"/>
        </g>
        <g transform="matrix(1,0,0,1,14,-0.631835)">
            <g transform="matrix(0.232558,-1.54047e-17,-3.21629e-18,0.0531915,-99.7499,107.44)">
                <rect x="558" y="624" width="172" height="188" style="fill:rgb(119,119,119);fill-opacity:0.294118;"/>
            </g>
            <g transform="matrix(0.232558,-1.54047e-17,-3.21629e-18,0.0531915,-99.7499,159.44)">
                <rect x="558" y="624" width="172" height="188" style="fill:rgb(119,119,119);fill-opacity:0.294118;"/>
            </g>
            <g transform="matrix(0.406977,-1.54047e-17,-5.6285e-18,0.0531915,-177.093,120.44)">
                <rect x="558" y="624" width="172" height="188" style="fill:rgb(119,119,119);fill-opacity:0.294118;"/>
            </g>
            <g transform="matrix(0.232558,-1.54047e-17,-3.21629e-18,0.0531915,-79.7674,146.44)">
                <rect x="558" y="624" width="172" height="188" style="fill:rgb(119,119,119);fill-opacity:0.294118;"/>
            </g>
            <g transform="matrix(0.523256,-1.54047e-17,-7.23665e-18,0.0531915,-221.977,133.44)">
                <rect x="558" y="624" width="172" height="188" style="fill:rgb(119,119,119);fill-opacity:0.294118;"/>
            </g>
        </g>
        <g>
            <g transform="matrix(0.0581395,-1.54047e-17,-8.04072e-19,0.0531915,-2.42428,106.809)">
                <rect x="558" y="624" width="172" height="188" style="fill:rgb(119,119,119);fill-opacity:0.101961;"/>
            </g>
            <g transform="matrix(0.0581395,-1.54047e-17,-8.04072e-19,0.0531915,-2.42428,158.809)">
                <rect x="558" y="624" width="172" height="188" style="fill:rgb(119,119,119);fill-opacity:0.101961;"/>
            </g>
            <g transform="matrix(0.0581395,-1.54047e-17,-8.04072e-19,0.0531915,-2.42428,119.809)">
                <rect x="558" y="624" width="172" height="188" style="fill:rgb(119,119,119);fill-opacity:0.101961;"/>
            </g>
            <g transform="matrix(0.0581395,-1.54047e-17,-8.04072e-19,0.0531915,-2.42428,145.809)">
                <rect x="558" y="624" width="172" height="188" style="fill:rgb(119,119,119);fill-opacity:0.101961;"/>
            </g>
            <g transform="matrix(0.0581395,-1.54047e-17,-8.04072e-19,0.0531915,-2.42428,132.809)">
                <rect x="558" y="624" width="172" height="188" style="fill:rgb(119,119,119);fill-opacity:0.101961;"/>
            </g>
        </g>
        <g transform="matrix(1,6.01037e-32,6.01037e-32,1,-9.36758,-28.8103)">
            <path d="M50.556,257.989C50.456,259.366 49.948,260.45 49.031,261.241C48.114,262.032 46.906,262.428 45.406,262.428C43.765,262.428 42.475,261.876 41.534,260.771C40.594,259.667 40.123,258.151 40.123,256.223L40.123,255.441C40.123,254.21 40.34,253.126 40.774,252.189C41.207,251.251 41.827,250.532 42.633,250.031C43.438,249.53 44.374,249.279 45.441,249.279C46.917,249.279 48.107,249.675 49.009,250.466C49.912,251.257 50.433,252.367 50.574,253.797L47.937,253.797C47.872,252.971 47.642,252.372 47.247,252C46.851,251.628 46.249,251.442 45.441,251.442C44.562,251.442 43.904,251.757 43.468,252.386C43.031,253.016 42.807,253.993 42.795,255.318L42.795,256.284C42.795,257.667 43.005,258.678 43.424,259.317C43.843,259.955 44.503,260.275 45.406,260.275C46.22,260.275 46.828,260.089 47.229,259.716C47.631,259.344 47.861,258.769 47.919,257.989L50.556,257.989Z" style="fill:white;fill-rule:nonzero;"/>
            <path d="M51.725,257.409C51.725,256.466 51.907,255.625 52.27,254.887C52.633,254.149 53.156,253.577 53.839,253.173C54.521,252.769 55.314,252.567 56.216,252.567C57.499,252.567 58.547,252.959 59.358,253.744C60.17,254.529 60.622,255.596 60.716,256.944L60.734,257.594C60.734,259.053 60.327,260.223 59.512,261.105C58.698,261.987 57.605,262.428 56.234,262.428C54.863,262.428 53.768,261.988 52.951,261.11C52.134,260.231 51.725,259.035 51.725,257.524L51.725,257.409ZM54.265,257.594C54.265,258.496 54.435,259.186 54.775,259.664C55.115,260.141 55.601,260.38 56.234,260.38C56.849,260.38 57.329,260.144 57.675,259.673C58.021,259.201 58.194,258.446 58.194,257.409C58.194,256.525 58.021,255.839 57.675,255.353C57.329,254.866 56.843,254.623 56.216,254.623C55.595,254.623 55.115,254.865 54.775,255.348C54.435,255.832 54.265,256.58 54.265,257.594Z" style="fill:white;fill-rule:nonzero;"/>
            <path d="M70.859,257.585C70.859,259.05 70.526,260.223 69.861,261.105C69.196,261.987 68.298,262.428 67.167,262.428C66.206,262.428 65.43,262.094 64.838,261.426L64.838,265.908L62.298,265.908L62.298,252.742L64.654,252.742L64.742,253.674C65.357,252.936 66.16,252.567 67.15,252.567C68.322,252.567 69.233,253 69.883,253.867C70.534,254.735 70.859,255.93 70.859,257.453L70.859,257.585ZM68.319,257.401C68.319,256.516 68.162,255.833 67.849,255.353C67.535,254.872 67.079,254.632 66.482,254.632C65.685,254.632 65.137,254.937 64.838,255.546L64.838,259.44C65.149,260.067 65.703,260.38 66.499,260.38C67.712,260.38 68.319,259.387 68.319,257.401Z" style="fill:white;fill-rule:nonzero;"/>
            <path d="M75.886,258.657L77.644,252.742L80.369,252.742L76.545,263.729L76.334,264.23C75.766,265.472 74.829,266.093 73.522,266.093C73.153,266.093 72.778,266.037 72.397,265.926L72.397,264.001L72.784,264.01C73.264,264.01 73.623,263.937 73.86,263.79C74.098,263.644 74.284,263.401 74.418,263.061L74.717,262.279L71.386,252.742L74.12,252.742L75.886,258.657Z" style="fill:white;fill-rule:nonzero;"/>
            <path d="M96.435,262.252L93.798,262.252L93.798,256.768L88.657,256.768L88.657,262.252L86.02,262.252L86.02,249.455L88.657,249.455L88.657,254.641L93.798,254.641L93.798,249.455L96.435,249.455L96.435,262.252Z" style="fill:white;fill-rule:nonzero;"/>
            <path d="M108.116,251.591L104.196,251.591L104.196,262.252L101.559,262.252L101.559,251.591L97.692,251.591L97.692,249.455L108.116,249.455L108.116,251.591Z" style="fill:white;fill-rule:nonzero;"/>
            <path d="M113.064,249.455L116.351,258.737L119.621,249.455L123.083,249.455L123.083,262.252L120.438,262.252L120.438,258.754L120.702,252.716L117.247,262.252L115.437,262.252L111.992,252.725L112.255,258.754L112.255,262.252L109.619,262.252L109.619,249.455L113.064,249.455Z" style="fill:white;fill-rule:nonzero;"/>
            <path d="M128.023,260.134L133.621,260.134L133.621,262.252L125.386,262.252L125.386,249.455L128.023,249.455L128.023,260.134Z" style="fill:white;fill-rule:nonzero;"/>
        </g>
    </g>
    <g transform="matrix(1,0,0,1,0,201.625)">
        <g transform="matrix(1.22093,-9.56033e-17,-1.63248e-17,0.319149,-681.279,-147.774)">
            <rect x="558" y="624" width="172" height="188" style="fill:white;"/>
        </g>
        <g transform="matrix(0.820035,-4.22657e-17,-4.22657e-17,0.992598,5.48602,11.9494)">
            <rect x="17.699" y="53.32" width="40.242" height="33.246" style="fill:none;stroke-width:1.1px;stroke-dasharray:5.49,5.49,0,0;stroke:rgb(220,220,220);"/>
        </g>
        <g transform="matrix(1,6.01037e-32,6.01037e-32,1,23.6324,-183.877)">
            <g>
                <path d="M48.547,250.612L44.891,250.612L44.891,260.752L43.399,260.752L43.399,250.612L39.75,250.612L39.75,249.377L48.547,249.377L48.547,250.612Z" style="fill:rgb(119,119,119);fill-opacity:0.627451;fill-rule:nonzero;"/>
                <path d="M51.454,253.322C52.094,252.536 52.927,252.143 53.954,252.143C55.74,252.143 56.641,253.151 56.657,255.166L56.657,260.752L55.211,260.752L55.211,255.158C55.206,254.549 55.067,254.098 54.793,253.807C54.52,253.515 54.094,253.369 53.516,253.369C53.047,253.369 52.636,253.494 52.282,253.744C51.927,253.994 51.651,254.322 51.454,254.729L51.454,260.752L50.008,260.752L50.008,248.752L51.454,248.752L51.454,253.322Z" style="fill:rgb(119,119,119);fill-opacity:0.627451;fill-rule:nonzero;"/>
                <path d="M60.391,260.752L58.946,260.752L58.946,252.299L60.391,252.299L60.391,260.752ZM58.829,250.057C58.829,249.822 58.9,249.625 59.043,249.463C59.187,249.302 59.399,249.221 59.68,249.221C59.961,249.221 60.175,249.302 60.321,249.463C60.467,249.625 60.539,249.822 60.539,250.057C60.539,250.291 60.467,250.487 60.321,250.643C60.175,250.799 59.961,250.877 59.68,250.877C59.399,250.877 59.187,250.799 59.043,250.643C58.9,250.487 58.829,250.291 58.829,250.057Z" style="fill:rgb(119,119,119);fill-opacity:0.627451;fill-rule:nonzero;"/>
                <path d="M67.625,258.51C67.625,258.119 67.478,257.816 67.184,257.6C66.89,257.384 66.377,257.197 65.645,257.041C64.913,256.885 64.332,256.697 63.903,256.479C63.473,256.26 63.155,256 62.95,255.697C62.744,255.395 62.641,255.036 62.641,254.619C62.641,253.927 62.934,253.341 63.52,252.862C64.106,252.382 64.855,252.143 65.766,252.143C66.724,252.143 67.502,252.39 68.098,252.885C68.694,253.38 68.993,254.013 68.993,254.783L67.539,254.783C67.539,254.388 67.371,254.046 67.036,253.76C66.7,253.473 66.276,253.33 65.766,253.33C65.24,253.33 64.829,253.445 64.532,253.674C64.235,253.903 64.086,254.203 64.086,254.572C64.086,254.921 64.224,255.184 64.5,255.362C64.776,255.539 65.275,255.708 65.996,255.869C66.718,256.031 67.302,256.223 67.75,256.447C68.198,256.671 68.53,256.941 68.746,257.256C68.963,257.571 69.071,257.955 69.071,258.408C69.071,259.164 68.769,259.769 68.164,260.225C67.56,260.681 66.776,260.908 65.813,260.908C65.136,260.908 64.537,260.789 64.016,260.549C63.495,260.309 63.088,259.975 62.793,259.545C62.499,259.115 62.352,258.651 62.352,258.151L63.797,258.151C63.823,258.635 64.017,259.019 64.379,259.303C64.741,259.587 65.219,259.729 65.813,259.729C66.36,259.729 66.799,259.618 67.129,259.397C67.46,259.175 67.625,258.88 67.625,258.51Z" style="fill:rgb(119,119,119);fill-opacity:0.627451;fill-rule:nonzero;"/>
                <path d="M76.485,260.752L75.039,260.752L75.039,252.299L76.485,252.299L76.485,260.752ZM74.922,250.057C74.922,249.822 74.994,249.625 75.137,249.463C75.28,249.302 75.493,249.221 75.774,249.221C76.055,249.221 76.269,249.302 76.414,249.463C76.56,249.625 76.633,249.822 76.633,250.057C76.633,250.291 76.56,250.487 76.414,250.643C76.269,250.799 76.055,250.877 75.774,250.877C75.493,250.877 75.28,250.799 75.137,250.643C74.994,250.487 74.922,250.291 74.922,250.057Z" style="fill:rgb(119,119,119);fill-opacity:0.627451;fill-rule:nonzero;"/>
                <path d="M83.719,258.51C83.719,258.119 83.572,257.816 83.278,257.6C82.983,257.384 82.47,257.197 81.739,257.041C81.007,256.885 80.426,256.697 79.996,256.479C79.567,256.26 79.249,256 79.043,255.697C78.838,255.395 78.735,255.036 78.735,254.619C78.735,253.927 79.028,253.341 79.614,252.862C80.2,252.382 80.948,252.143 81.86,252.143C82.818,252.143 83.595,252.39 84.192,252.885C84.788,253.38 85.086,254.013 85.086,254.783L83.633,254.783C83.633,254.388 83.465,254.046 83.129,253.76C82.793,253.473 82.37,253.33 81.86,253.33C81.334,253.33 80.922,253.445 80.625,253.674C80.329,253.903 80.18,254.203 80.18,254.572C80.18,254.921 80.318,255.184 80.594,255.362C80.87,255.539 81.369,255.708 82.09,255.869C82.812,256.031 83.396,256.223 83.844,256.447C84.292,256.671 84.624,256.941 84.84,257.256C85.056,257.571 85.164,257.955 85.164,258.408C85.164,259.164 84.862,259.769 84.258,260.225C83.654,260.681 82.87,260.908 81.907,260.908C81.23,260.908 80.631,260.789 80.11,260.549C79.589,260.309 79.181,259.975 78.887,259.545C78.593,259.115 78.446,258.651 78.446,258.151L79.891,258.151C79.917,258.635 80.111,259.019 80.473,259.303C80.835,259.587 81.313,259.729 81.907,259.729C82.454,259.729 82.892,259.618 83.223,259.397C83.554,259.175 83.719,258.88 83.719,258.51Z" style="fill:rgb(119,119,119);fill-opacity:0.627451;fill-rule:nonzero;"/>
                <path d="M96.227,260.752C96.144,260.585 96.076,260.289 96.024,259.862C95.352,260.559 94.55,260.908 93.618,260.908C92.784,260.908 92.101,260.673 91.567,260.201C91.033,259.73 90.766,259.132 90.766,258.408C90.766,257.528 91.101,256.845 91.77,256.358C92.439,255.871 93.381,255.627 94.594,255.627L96,255.627L96,254.963C96,254.458 95.849,254.056 95.547,253.756C95.245,253.457 94.8,253.307 94.211,253.307C93.696,253.307 93.263,253.437 92.914,253.697C92.565,253.958 92.391,254.273 92.391,254.643L90.938,254.643C90.938,254.221 91.088,253.813 91.387,253.42C91.687,253.027 92.093,252.716 92.606,252.487C93.119,252.257 93.683,252.143 94.297,252.143C95.271,252.143 96.034,252.386 96.586,252.873C97.138,253.36 97.425,254.031 97.446,254.885L97.446,258.776C97.446,259.552 97.545,260.169 97.743,260.627L97.743,260.752L96.227,260.752ZM93.829,259.651C94.282,259.651 94.711,259.533 95.118,259.299C95.524,259.065 95.818,258.76 96,258.385L96,256.651L94.868,256.651C93.097,256.651 92.211,257.169 92.211,258.205C92.211,258.658 92.362,259.013 92.664,259.268C92.967,259.523 93.355,259.651 93.829,259.651Z" style="fill:rgb(119,119,119);fill-opacity:0.627451;fill-rule:nonzero;"/>
                <path d="M101.079,252.299L101.125,253.362C101.771,252.549 102.615,252.143 103.657,252.143C105.443,252.143 106.344,253.151 106.36,255.166L106.36,260.752L104.914,260.752L104.914,255.158C104.909,254.549 104.77,254.098 104.496,253.807C104.223,253.515 103.797,253.369 103.219,253.369C102.75,253.369 102.339,253.494 101.985,253.744C101.631,253.994 101.355,254.322 101.157,254.729L101.157,260.752L99.711,260.752L99.711,252.299L101.079,252.299Z" style="fill:rgb(119,119,119);fill-opacity:0.627451;fill-rule:nonzero;"/>
                <path d="M108.157,256.447C108.157,255.619 108.319,254.875 108.645,254.213C108.97,253.552 109.424,253.041 110.004,252.682C110.585,252.322 111.248,252.143 111.993,252.143C113.144,252.143 114.075,252.541 114.786,253.338C115.496,254.135 115.852,255.195 115.852,256.518L115.852,256.619C115.852,257.442 115.694,258.181 115.379,258.834C115.064,259.488 114.614,259.997 114.028,260.362C113.442,260.726 112.769,260.908 112.008,260.908C110.862,260.908 109.934,260.51 109.223,259.713C108.512,258.916 108.157,257.862 108.157,256.549L108.157,256.447ZM109.61,256.619C109.61,257.557 109.827,258.309 110.262,258.877C110.697,259.445 111.279,259.729 112.008,259.729C112.743,259.729 113.326,259.441 113.758,258.865C114.19,258.29 114.407,257.484 114.407,256.447C114.407,255.52 114.187,254.769 113.746,254.194C113.306,253.618 112.722,253.33 111.993,253.33C111.279,253.33 110.704,253.614 110.266,254.182C109.829,254.75 109.61,255.562 109.61,256.619Z" style="fill:rgb(119,119,119);fill-opacity:0.627451;fill-rule:nonzero;"/>
                <path d="M119.625,250.252L119.625,252.299L121.204,252.299L121.204,253.416L119.625,253.416L119.625,258.658C119.625,258.997 119.696,259.251 119.836,259.42C119.977,259.589 120.217,259.674 120.555,259.674C120.722,259.674 120.951,259.643 121.243,259.58L121.243,260.752C120.862,260.856 120.493,260.908 120.133,260.908C119.487,260.908 119,260.713 118.672,260.322C118.344,259.932 118.18,259.377 118.18,258.658L118.18,253.416L116.641,253.416L116.641,252.299L118.18,252.299L118.18,250.252L119.625,250.252Z" style="fill:rgb(119,119,119);fill-opacity:0.627451;fill-rule:nonzero;"/>
                <path d="M124.336,253.322C124.977,252.536 125.81,252.143 126.836,252.143C128.623,252.143 129.524,253.151 129.539,255.166L129.539,260.752L128.094,260.752L128.094,255.158C128.089,254.549 127.95,254.098 127.676,253.807C127.403,253.515 126.977,253.369 126.399,253.369C125.93,253.369 125.519,253.494 125.164,253.744C124.81,253.994 124.534,254.322 124.336,254.729L124.336,260.752L122.891,260.752L122.891,248.752L124.336,248.752L124.336,253.322Z" style="fill:rgb(119,119,119);fill-opacity:0.627451;fill-rule:nonzero;"/>
                <path d="M135.211,260.908C134.065,260.908 133.133,260.532 132.414,259.779C131.696,259.027 131.336,258.02 131.336,256.76L131.336,256.494C131.336,255.656 131.496,254.907 131.817,254.248C132.137,253.589 132.585,253.074 133.161,252.701C133.736,252.329 134.36,252.143 135.032,252.143C136.131,252.143 136.985,252.505 137.594,253.229C138.204,253.953 138.508,254.989 138.508,256.338L138.508,256.94L132.782,256.94C132.802,257.773 133.046,258.446 133.512,258.959C133.978,259.472 134.571,259.729 135.289,259.729C135.8,259.729 136.232,259.625 136.586,259.416C136.94,259.208 137.25,258.932 137.516,258.588L138.399,259.276C137.69,260.364 136.628,260.908 135.211,260.908ZM135.032,253.33C134.448,253.33 133.959,253.543 133.563,253.967C133.167,254.391 132.922,254.987 132.829,255.752L137.063,255.752L137.063,255.643C137.021,254.908 136.823,254.339 136.469,253.936C136.115,253.532 135.636,253.33 135.032,253.33Z" style="fill:rgb(119,119,119);fill-opacity:0.627451;fill-rule:nonzero;"/>
                <path d="M144.266,253.596C144.047,253.559 143.81,253.541 143.555,253.541C142.607,253.541 141.964,253.945 141.625,254.752L141.625,260.752L140.18,260.752L140.18,252.299L141.586,252.299L141.61,253.276C142.084,252.52 142.756,252.143 143.625,252.143C143.907,252.143 144.12,252.179 144.266,252.252L144.266,253.596Z" style="fill:rgb(119,119,119);fill-opacity:0.627451;fill-rule:nonzero;"/>
                <path d="M47.618,276.619C47.618,277.911 47.321,278.949 46.727,279.733C46.133,280.516 45.336,280.908 44.336,280.908C43.269,280.908 42.443,280.531 41.86,279.776L41.789,280.752L40.461,280.752L40.461,268.752L41.907,268.752L41.907,273.229C42.49,272.505 43.295,272.143 44.321,272.143C45.347,272.143 46.153,272.531 46.739,273.307C47.325,274.083 47.618,275.145 47.618,276.494L47.618,276.619ZM46.172,276.455C46.172,275.471 45.982,274.71 45.602,274.174C45.222,273.638 44.675,273.369 43.961,273.369C43.008,273.369 42.323,273.812 41.907,274.697L41.907,278.354C42.349,279.239 43.039,279.682 43.977,279.682C44.67,279.682 45.209,279.414 45.594,278.877C45.98,278.341 46.172,277.533 46.172,276.455Z" style="fill:rgb(119,119,119);fill-opacity:0.627451;fill-rule:nonzero;"/>
                <path d="M52.946,280.908C51.8,280.908 50.868,280.532 50.149,279.779C49.43,279.027 49.071,278.02 49.071,276.76L49.071,276.494C49.071,275.656 49.231,274.907 49.551,274.248C49.871,273.589 50.319,273.074 50.895,272.701C51.47,272.329 52.094,272.143 52.766,272.143C53.865,272.143 54.719,272.505 55.329,273.229C55.938,273.953 56.243,274.989 56.243,276.338L56.243,276.94L50.516,276.94C50.537,277.773 50.78,278.446 51.246,278.959C51.713,279.472 52.305,279.729 53.024,279.729C53.534,279.729 53.967,279.625 54.321,279.416C54.675,279.208 54.985,278.932 55.25,278.588L56.133,279.276C55.425,280.364 54.362,280.908 52.946,280.908ZM52.766,273.33C52.183,273.33 51.693,273.543 51.297,273.967C50.901,274.391 50.657,274.987 50.563,275.752L54.797,275.752L54.797,275.643C54.756,274.908 54.558,274.339 54.204,273.936C53.849,273.532 53.37,273.33 52.766,273.33Z" style="fill:rgb(119,119,119);fill-opacity:0.627451;fill-rule:nonzero;"/>
                <path d="M63.133,280.752C63.05,280.585 62.982,280.289 62.93,279.862C62.258,280.559 61.456,280.908 60.524,280.908C59.69,280.908 59.007,280.673 58.473,280.201C57.939,279.73 57.672,279.132 57.672,278.408C57.672,277.528 58.007,276.845 58.676,276.358C59.345,275.871 60.287,275.627 61.5,275.627L62.907,275.627L62.907,274.963C62.907,274.458 62.756,274.056 62.454,273.756C62.151,273.457 61.706,273.307 61.118,273.307C60.602,273.307 60.17,273.437 59.821,273.697C59.472,273.958 59.297,274.273 59.297,274.643L57.844,274.643C57.844,274.221 57.994,273.813 58.293,273.42C58.593,273.027 58.999,272.716 59.512,272.487C60.025,272.257 60.589,272.143 61.204,272.143C62.177,272.143 62.94,272.386 63.493,272.873C64.045,273.36 64.331,274.031 64.352,274.885L64.352,278.776C64.352,279.552 64.451,280.169 64.649,280.627L64.649,280.752L63.133,280.752ZM60.735,279.651C61.188,279.651 61.618,279.533 62.024,279.299C62.43,279.065 62.724,278.76 62.907,278.385L62.907,276.651L61.774,276.651C60.003,276.651 59.118,277.169 59.118,278.205C59.118,278.658 59.269,279.013 59.571,279.268C59.873,279.523 60.261,279.651 60.735,279.651Z" style="fill:rgb(119,119,119);fill-opacity:0.627451;fill-rule:nonzero;"/>
                <path d="M71.836,279.916C71.274,280.578 70.448,280.908 69.36,280.908C68.459,280.908 67.773,280.647 67.301,280.123C66.83,279.6 66.592,278.825 66.586,277.799L66.586,272.299L68.032,272.299L68.032,277.76C68.032,279.041 68.552,279.682 69.594,279.682C70.698,279.682 71.433,279.27 71.797,278.447L71.797,272.299L73.243,272.299L73.243,280.752L71.868,280.752L71.836,279.916Z" style="fill:rgb(119,119,119);fill-opacity:0.627451;fill-rule:nonzero;"/>
                <path d="M77.399,270.252L77.399,272.299L78.977,272.299L78.977,273.416L77.399,273.416L77.399,278.658C77.399,278.997 77.469,279.251 77.61,279.42C77.75,279.589 77.99,279.674 78.329,279.674C78.495,279.674 78.724,279.643 79.016,279.58L79.016,280.752C78.636,280.856 78.266,280.908 77.907,280.908C77.261,280.908 76.774,280.713 76.446,280.322C76.118,279.932 75.954,279.377 75.954,278.658L75.954,273.416L74.414,273.416L74.414,272.299L75.954,272.299L75.954,270.252L77.399,270.252Z" style="fill:rgb(119,119,119);fill-opacity:0.627451;fill-rule:nonzero;"/>
                <path d="M82.235,280.752L80.789,280.752L80.789,272.299L82.235,272.299L82.235,280.752ZM80.672,270.057C80.672,269.822 80.744,269.625 80.887,269.463C81.03,269.302 81.243,269.221 81.524,269.221C81.805,269.221 82.019,269.302 82.164,269.463C82.31,269.625 82.383,269.822 82.383,270.057C82.383,270.291 82.31,270.487 82.164,270.643C82.019,270.799 81.805,270.877 81.524,270.877C81.243,270.877 81.03,270.799 80.887,270.643C80.744,270.487 80.672,270.291 80.672,270.057Z" style="fill:rgb(119,119,119);fill-opacity:0.627451;fill-rule:nonzero;"/>
                <path d="M85.258,280.752L85.258,273.416L83.922,273.416L83.922,272.299L85.258,272.299L85.258,271.432C85.258,270.526 85.5,269.825 85.985,269.33C86.469,268.835 87.154,268.588 88.039,268.588C88.373,268.588 88.704,268.632 89.032,268.721L88.954,269.893C88.709,269.846 88.448,269.822 88.172,269.822C87.704,269.822 87.342,269.959 87.086,270.233C86.831,270.506 86.704,270.898 86.704,271.408L86.704,272.299L88.508,272.299L88.508,273.416L86.704,273.416L86.704,280.752L85.258,280.752Z" style="fill:rgb(119,119,119);fill-opacity:0.627451;fill-rule:nonzero;"/>
                <path d="M95.321,279.916C94.758,280.578 93.933,280.908 92.844,280.908C91.943,280.908 91.257,280.647 90.786,280.123C90.314,279.6 90.076,278.825 90.071,277.799L90.071,272.299L91.516,272.299L91.516,277.76C91.516,279.041 92.037,279.682 93.079,279.682C94.183,279.682 94.917,279.27 95.282,278.447L95.282,272.299L96.727,272.299L96.727,280.752L95.352,280.752L95.321,279.916Z" style="fill:rgb(119,119,119);fill-opacity:0.627451;fill-rule:nonzero;"/>
                <rect x="99.047" y="268.752" width="1.445" height="12" style="fill:rgb(119,119,119);fill-opacity:0.627451;fill-rule:nonzero;"/>
                <path d="M114.25,278.76L115.875,272.299L117.321,272.299L114.86,280.752L113.688,280.752L111.633,274.346L109.633,280.752L108.461,280.752L106.008,272.299L107.446,272.299L109.11,278.627L111.079,272.299L112.243,272.299L114.25,278.76Z" style="fill:rgb(119,119,119);fill-opacity:0.627451;fill-rule:nonzero;"/>
                <path d="M120.36,280.752L118.914,280.752L118.914,272.299L120.36,272.299L120.36,280.752ZM118.797,270.057C118.797,269.822 118.869,269.625 119.012,269.463C119.155,269.302 119.368,269.221 119.649,269.221C119.93,269.221 120.144,269.302 120.289,269.463C120.435,269.625 120.508,269.822 120.508,270.057C120.508,270.291 120.435,270.487 120.289,270.643C120.144,270.799 119.93,270.877 119.649,270.877C119.368,270.877 119.155,270.799 119.012,270.643C118.869,270.487 118.797,270.291 118.797,270.057Z" style="fill:rgb(119,119,119);fill-opacity:0.627451;fill-rule:nonzero;"/>
                <path d="M122.321,276.455C122.321,275.158 122.628,274.115 123.243,273.326C123.857,272.537 124.662,272.143 125.657,272.143C126.646,272.143 127.43,272.481 128.008,273.158L128.008,268.752L129.454,268.752L129.454,280.752L128.125,280.752L128.055,279.846C127.477,280.554 126.672,280.908 125.641,280.908C124.662,280.908 123.864,280.507 123.246,279.705C122.629,278.903 122.321,277.856 122.321,276.565L122.321,276.455ZM123.766,276.619C123.766,277.578 123.964,278.328 124.36,278.869C124.756,279.411 125.302,279.682 126,279.682C126.917,279.682 127.586,279.27 128.008,278.447L128.008,274.565C127.576,273.768 126.912,273.369 126.016,273.369C125.308,273.369 124.756,273.643 124.36,274.19C123.964,274.737 123.766,275.546 123.766,276.619Z" style="fill:rgb(119,119,119);fill-opacity:0.627451;fill-rule:nonzero;"/>
                <path d="M131.352,276.455C131.352,275.138 131.657,274.089 132.266,273.311C132.875,272.532 133.683,272.143 134.688,272.143C135.719,272.143 136.524,272.507 137.102,273.237L137.172,272.299L138.493,272.299L138.493,280.549C138.493,281.643 138.168,282.505 137.52,283.135C136.871,283.765 136,284.08 134.907,284.08C134.297,284.08 133.701,283.95 133.118,283.69C132.534,283.429 132.089,283.072 131.782,282.619L132.532,281.752C133.151,282.518 133.909,282.901 134.805,282.901C135.508,282.901 136.056,282.703 136.45,282.307C136.843,281.911 137.039,281.354 137.039,280.635L137.039,279.908C136.461,280.575 135.672,280.908 134.672,280.908C133.683,280.908 132.882,280.51 132.27,279.713C131.658,278.916 131.352,277.83 131.352,276.455ZM132.805,276.619C132.805,277.572 133,278.321 133.391,278.865C133.782,279.41 134.329,279.682 135.032,279.682C135.943,279.682 136.612,279.268 137.039,278.44L137.039,274.58C136.597,273.773 135.933,273.369 135.047,273.369C134.344,273.369 133.795,273.643 133.399,274.19C133.003,274.737 132.805,275.546 132.805,276.619Z" style="fill:rgb(119,119,119);fill-opacity:0.627451;fill-rule:nonzero;"/>
                <path d="M144.18,280.908C143.034,280.908 142.102,280.532 141.383,279.779C140.664,279.027 140.305,278.02 140.305,276.76L140.305,276.494C140.305,275.656 140.465,274.907 140.786,274.248C141.106,273.589 141.554,273.074 142.129,272.701C142.705,272.329 143.329,272.143 144,272.143C145.099,272.143 145.954,272.505 146.563,273.229C147.172,273.953 147.477,274.989 147.477,276.338L147.477,276.94L141.75,276.94C141.771,277.773 142.015,278.446 142.481,278.959C142.947,279.472 143.539,279.729 144.258,279.729C144.769,279.729 145.201,279.625 145.555,279.416C145.909,279.208 146.219,278.932 146.485,278.588L147.368,279.276C146.659,280.364 145.597,280.908 144.18,280.908ZM144,273.33C143.417,273.33 142.927,273.543 142.532,273.967C142.136,274.391 141.891,274.987 141.797,275.752L146.032,275.752L146.032,275.643C145.99,274.908 145.792,274.339 145.438,273.936C145.084,273.532 144.605,273.33 144,273.33Z" style="fill:rgb(119,119,119);fill-opacity:0.627451;fill-rule:nonzero;"/>
                <path d="M151.11,270.252L151.11,272.299L152.688,272.299L152.688,273.416L151.11,273.416L151.11,278.658C151.11,278.997 151.18,279.251 151.321,279.42C151.461,279.589 151.701,279.674 152.039,279.674C152.206,279.674 152.435,279.643 152.727,279.58L152.727,280.752C152.347,280.856 151.977,280.908 151.618,280.908C150.972,280.908 150.485,280.713 150.157,280.322C149.829,279.932 149.664,279.377 149.664,278.658L149.664,273.416L148.125,273.416L148.125,272.299L149.664,272.299L149.664,270.252L151.11,270.252Z" style="fill:rgb(119,119,119);fill-opacity:0.627451;fill-rule:nonzero;"/>
            </g>
        </g>
        <g transform="matrix(1.38158,8.3038e-32,8.3038e-32,1.38158,-807.17,-889.184)">
            <path d="M620.156,701.493C620.156,696.805 615.899,693 610.656,693C605.413,693 601.156,696.805 601.156,701.493C601.156,703.753 602.165,705.921 603.958,707.515L603.208,712L607.425,709.479C608.461,709.814 609.554,709.985 610.656,709.985C615.899,709.985 620.156,706.18 620.156,701.493Z" style="fill:rgb(104,195,255);"/>
        </g>
    </g>
</svg>
