<?xml version="1.0" standalone="no"?><!DOCTYPE svg PUBLIC "-//W3C//DTD SVG 1.1//EN" "http://www.w3.org/Graphics/SVG/1.1/DTD/svg11.dtd"><svg width="100%" height="100%" viewBox="0 0 512 512" version="1.1" xmlns="http://www.w3.org/2000/svg" xmlns:xlink="http://www.w3.org/1999/xlink" xml:space="preserve" style="fill-rule:evenodd;clip-rule:evenodd;stroke-linejoin:round;stroke-miterlimit:1.41421;"><g id="black"><path d="M143.12,413.365c-8.836,-8.463 -17.181,-17.437 -24.986,-26.871c1.11,-0.795 2.214,-1.6 3.328,-2.39c3.183,-2.256 6.362,-4.517 9.518,-6.811c2.755,-2.004 5.484,-4.043 8.226,-6.063c1.501,-1.106 3.013,-2.196 4.517,-3.298c2.114,-1.564 4.225,-3.132 6.332,-4.705c1.048,-0.791 2.098,-1.58 3.144,-2.373c1.045,-0.792 2.079,-1.6 3.142,-2.368c2.113,-1.542 4.222,-3.089 6.327,-4.641c2.215,-1.65 4.432,-3.296 6.631,-4.966c1.767,-1.236 3.532,-2.474 5.293,-3.718l0.756,-0.473c1.095,-0.691 2.19,-1.383 3.285,-2.074l-3.48,1.725l-0.8,0.393l-2.766,1.168c-1.199,0.499 -2.386,1.031 -3.604,1.483c-3.666,1.341 -7.335,2.673 -11.017,3.97c-1.484,0.523 -2.959,1.073 -4.456,1.555c-6.437,2.073 -12.918,4.012 -19.411,5.897l-2.188,0.602c-3.746,1.007 -7.494,2.007 -11.252,2.971c-2.485,0.638 -5.001,1.293 -7.498,1.88c-3.116,0.722 -6.233,1.43 -9.355,2.126c-6.934,-9.894 -13.315,-20.204 -19.096,-30.885c0.884,-0.405 1.768,-0.811 2.65,-1.22c1.4,-0.648 2.792,-1.315 4.196,-1.954c4.497,-2.045 8.982,-4.112 13.444,-6.232c3.889,-1.847 7.756,-3.739 11.648,-5.581c2.58,-1.231 5.155,-2.474 7.725,-3.727c2.962,-1.448 5.917,-2.911 8.863,-4.394c2.829,-1.326 5.649,-2.673 8.465,-4.027c2.71,-1.313 5.418,-2.632 8.115,-3.973c2.136,-0.948 4.269,-1.903 6.398,-2.868c0.955,-0.363 1.909,-0.729 2.863,-1.094c0.656,-0.253 1.311,-0.506 1.967,-0.759c-1.669,0.433 -3.337,0.866 -5.008,1.291l-1.136,0.215c-1.914,0.357 -3.83,0.711 -5.747,1.058l-0.499,0.069c-4.206,0.564 -8.415,1.106 -12.628,1.61c-1.677,0.201 -3.355,0.426 -5.036,0.587c-3.241,0.311 -6.493,0.532 -9.74,0.77c-0.005,0.001 0.02,-0.004 0.015,-0.004c-4.073,0.286 -8.146,0.577 -12.223,0.799c-1.552,0.085 -3.11,0.13 -4.663,0.187c-0.008,0.001 0.03,-0.006 0.022,-0.005c-5.615,0.193 -11.23,0.336 -16.848,0.445l0.031,-0.007c-2.101,0.035 -4.2,0.029 -6.301,0.018c-3.454,-0.018 -6.908,-0.049 -10.362,-0.112c-4.845,-11.652 -9.009,-23.658 -12.444,-35.966c2.214,-0.326 4.426,-0.664 6.636,-1.01c1.687,-0.265 3.371,-0.552 5.057,-0.816c5.294,-0.828 10.582,-1.681 15.859,-2.61c3.266,-0.576 6.523,-1.204 9.786,-1.797c5.198,-0.946 10.392,-1.905 15.575,-2.934c2.77,-0.559 5.539,-1.126 8.304,-1.713c1.812,-0.337 3.623,-0.683 5.433,-1.031c2.285,-0.447 4.569,-0.902 6.851,-1.364c2.466,-0.508 4.932,-1.019 7.393,-1.552c2.511,-0.439 5.02,-0.888 7.526,-1.352l1.029,-0.13c1.524,-0.198 3.047,-0.398 4.57,-0.601c-1.535,0.043 -3.07,0.085 -4.606,0.121c-0.345,0.008 -0.691,0.026 -1.036,0.022c-0.424,-0.004 -0.847,-0.03 -1.271,-0.045c-2.118,-0.082 -4.236,-0.17 -6.354,-0.267l-0.568,-0.048l-2.31,-0.206c-5.655,-0.523 -11.305,-1.094 -16.946,-1.747l-1.429,-0.203c-7.417,-1.083 -14.824,-2.24 -22.202,-3.565c-1.674,-0.3 -3.341,-0.649 -5.008,-0.982c-2.247,-0.449 -4.492,-0.908 -6.735,-1.378c-4.331,-0.909 -8.653,-1.861 -12.965,-2.858c-1.603,-0.37 -3.199,-0.784 -4.795,-1.183c-2.935,-0.734 -5.865,-1.489 -8.79,-2.265c-2.121,-0.563 -4.24,-1.135 -6.356,-1.718c-2.394,-14.519 -3.793,-29.372 -4.125,-44.486c2.604,0.486 5.212,0.954 7.823,1.403c2.678,0.462 5.362,0.882 8.043,1.325c5.864,0.969 11.736,1.876 17.626,2.672c3.582,0.484 7.17,0.903 10.757,1.349c3.247,0.404 6.494,0.808 9.746,1.168c3.409,0.379 6.823,0.716 10.238,1.04c2.219,0.2 4.44,0.394 6.661,0.574c2.883,0.3 5.768,0.572 8.654,0.833c2.548,0.22 5.096,0.428 7.646,0.624c1.901,0.137 3.803,0.275 5.705,0.396c2.792,0.278 5.585,0.542 8.38,0.783l1.138,0.157c1.675,0.225 3.35,0.446 5.026,0.663c-2.02,-0.46 -4.04,-0.923 -6.056,-1.4l-1.332,-0.39c-2.239,-0.666 -4.475,-1.339 -6.707,-2.025l-0.572,-0.199c-6.69,-2.359 -13.345,-4.814 -19.945,-7.415l-1.407,-0.594c-7.567,-3.235 -15.083,-6.591 -22.5,-10.158c-1.654,-0.796 -3.29,-1.636 -4.926,-2.467c-2.228,-1.13 -4.447,-2.277 -6.659,-3.439c-4.319,-2.268 -8.606,-4.593 -12.863,-6.975c-1.534,-0.858 -3.05,-1.761 -4.566,-2.652c-2.137,-1.256 -4.266,-2.526 -6.386,-3.811c-4.125,-2.499 -8.214,-5.056 -12.267,-7.669c1.608,-17.496 4.65,-34.579 9.006,-51.132c3.268,2.057 6.562,4.072 9.88,6.045c2.554,1.518 5.131,2.994 7.706,4.476c4.937,2.839 9.903,5.623 14.933,8.293c2.54,1.348 5.092,2.672 7.657,3.971c1.834,0.929 3.68,1.83 5.52,2.747c3.282,1.635 6.568,3.257 9.883,4.826c4.294,2.032 8.625,3.98 12.976,5.888c1.372,0.591 2.745,1.182 4.121,1.764c6.394,2.866 12.861,5.557 19.376,8.136c1.077,0.419 2.154,0.841 3.234,1.253c1.534,0.643 3.071,1.28 4.609,1.913c1.341,0.543 2.682,1.085 4.026,1.618l1.17,0.53c1.71,0.76 3.421,1.515 5.135,2.264c-2.464,-1.339 -2.464,-1.333 -4.92,-2.693c-0.374,-0.207 -0.751,-0.409 -1.119,-0.627c-1.241,-0.737 -2.448,-1.53 -3.666,-2.305c-1.998,-1.271 -2.327,-1.491 -4.178,-2.693l-0.523,-0.365c-6.414,-4.537 -12.734,-9.2 -18.909,-14.058l-1.239,-1.019c-7.001,-5.832 -13.846,-11.838 -20.491,-18.073c-2.111,-1.981 -4.157,-4.038 -6.201,-6.086c-5.117,-5.128 -10.094,-10.389 -14.957,-15.758c-1.875,-2.069 -3.683,-4.207 -5.491,-6.335c-2.932,-3.45 -5.81,-6.947 -8.63,-10.49c-2.628,-3.301 -5.206,-6.641 -7.732,-10.021c8.166,-20.363 18.399,-39.678 30.437,-57.685l0.978,1.454c41.584,61.467 104.291,107.496 177.661,127.632c-13.515,17.674 -21.548,39.76 -21.548,63.707c0,57.962 47.058,105.019 105.02,105.019l0.339,0.001c8.601,0.055 16.715,2.182 23.865,5.907c1.026,0.418 2.034,0.879 3.027,1.376c1.494,0.749 2.945,1.563 4.333,2.495c4.308,2.891 7.933,6.698 10.803,11.008c1.244,1.867 2.337,3.819 3.316,5.832c4.345,7.642 6.826,16.479 6.826,25.891c0,0.39 -0.004,0.78 -0.013,1.168c0.006,0.168 0.01,0.336 0.013,0.504l0.031,-0.168c0.69,-4.12 0.919,-8.328 0.848,-12.501c-0.08,-4.676 -0.568,-9.365 -1.586,-13.933c-0.416,-1.869 -0.95,-3.718 -1.559,-5.534c-1.908,-5.692 -4.734,-11.081 -8.517,-15.754c-2.451,-3.029 -5.281,-5.714 -8.391,-8.058c-1.832,-1.381 -3.826,-2.577 -5.849,-3.654c-3.938,-2.098 -8.139,-3.687 -12.449,-4.831c-3.05,-0.811 -6.187,-1.32 -9.316,-1.708c-0.938,-0.11 -1.877,-0.205 -2.817,-0.29c-1.387,-0.114 -2.776,-0.187 -4.164,-0.29c-2.483,-0.186 -4.97,-0.422 -7.438,-0.75c-2.423,-0.322 -4.833,-0.736 -7.225,-1.241c-1.218,-0.257 -2.424,-0.552 -3.635,-0.841c-1.516,-0.363 -3.028,-0.741 -4.528,-1.167c-3.374,-0.958 -6.701,-2.066 -9.978,-3.314c-1.137,-0.433 -2.276,-0.853 -3.403,-1.313c-1.261,-0.515 -2.502,-1.07 -3.745,-1.625c-1.181,-0.528 -2.36,-1.055 -3.525,-1.618c5.339,-8.982 8.964,-17.392 10.57,-24.568c9.955,6.086 21.654,9.595 34.166,9.595c12.55,0 24.282,-3.53 34.256,-9.65c3.708,16.659 18.317,39.988 40.013,61.707l-0.051,0.052c19.026,19.011 30.802,45.278 30.802,74.273c0,57.962 -47.058,105.019 -105.019,105.019l-1.019,-0.001c-77.219,-0.245 -147.936,-28.33 -202.631,-74.735c0.327,-0.328 0.655,-0.654 0.983,-0.981c4.287,-4.262 8.54,-8.554 12.752,-12.89c1.703,-1.767 3.428,-3.511 5.139,-5.269c1.707,-1.756 3.403,-3.522 5.099,-5.288c1.685,-1.772 3.344,-3.578 5.06,-5.32c1.705,-1.747 3.406,-3.497 5.104,-5.25c1.789,-1.866 3.581,-3.729 5.354,-5.61c1.429,-1.417 2.856,-2.836 4.279,-4.26l0.612,-0.556c0.894,-0.819 1.788,-1.638 2.682,-2.457l-2.887,2.211l-0.659,0.501c-1.762,1.208 -3.195,2.195 -4.982,3.399c-1.128,0.76 -2.305,1.446 -3.46,2.164c-2.056,1.278 -4.146,2.565 -6.213,3.825c-1.242,0.756 -2.472,1.532 -3.731,2.259c-2.946,1.699 -5.914,3.362 -8.886,5.015c-2.536,1.411 -5.073,2.826 -7.634,4.19c-1.371,0.73 -3.998,2.095 -5.153,2.692c-4.204,2.176 -8.429,4.311 -12.67,6.416c-1.16,0.576 -2.333,1.125 -3.502,1.683c-0.499,0.237 -0.999,0.475 -1.498,0.711Z" style="fill:#262626;"/><path d="M320.727,152.044c7.826,-23.04 22.926,-38.661 40.254,-38.661c17.328,0 32.428,15.622 40.254,38.663c-11.119,-8.651 -25.09,-13.805 -40.255,-13.805c-15.165,0 -29.135,5.153 -40.253,13.803Z" style="fill:#262626;"/><path d="M387.235,174.051c30.428,7.179 52.293,26.479 52.509,49.178l0.001,0.339c-20.165,0 -38.57,5.063 -52.51,13.384l0,-62.901Z" style="fill:#262626;"/><path d="M360.981,151.367c28.981,0 52.509,23.529 52.509,52.51c0,28.981 -23.528,52.509 -52.509,52.509c-28.981,0 -52.51,-23.528 -52.51,-52.509c0,-28.981 23.529,-52.51 52.51,-52.51ZM348.051,201.599c3.684,1.437 8.136,2.278 12.93,2.278c4.793,0 9.245,-0.841 12.93,-2.278c0.129,0.74 0.197,1.501 0.197,2.278c0,7.245 -5.882,13.127 -13.127,13.127c-7.246,0 -13.128,-5.882 -13.128,-13.127c0,-0.777 0.068,-1.538 0.198,-2.278Z" style="fill:#262626;"/></g></svg>